<?xml version="1.0" standalone="no"?>
<!DOCTYPE svg PUBLIC "-//W3C//DTD SVG 1.1//EN" "http://www.w3.org/Graphics/SVG/1.1/DTD/svg11.dtd" >
<svg xmlns="http://www.w3.org/2000/svg" xmlns:xlink="http://www.w3.org/1999/xlink" version="1.1">
<metadata></metadata>
<defs>
<font id="th_krubregular" horiz-adv-x="778" >
<font-face units-per-em="2048" ascent="1638" descent="-410" />
<missing-glyph horiz-adv-x="512" />
<glyph unicode="A&#x300;" horiz-adv-x="948" d="M41 0l381 993h106l379 -993h-110l-105 289h-436l-104 -289h-111zM246 1350h118l172 -215h-80zM285 379h381l-191 532z" />
<glyph unicode="A&#x301;" horiz-adv-x="948" d="M41 0l381 993h106l379 -993h-110l-105 289h-436l-104 -289h-111zM285 379h381l-191 532zM447 1135l174 215h121l-215 -215h-80z" />
<glyph unicode="A&#x303;" horiz-adv-x="948" d="M41 0l381 993h106l379 -993h-110l-105 289h-436l-104 -289h-111zM231 1130q4 55 41 104.5t97 49.5q29 0 57.5 -11t56.5 -26q29 -12 55.5 -22.5t53.5 -10.5q33 0 49 24t20 52h58q-8 -59 -38 -105t-99 -46q-25 0 -53.5 12t-57.5 25q-29 12 -57.5 22t-51.5 10 q-33 0 -50 -24.5t-21 -53.5h-60zM285 379h381l-191 532z" />
<glyph unicode="E&#x300;" horiz-adv-x="749" d="M123 0v995h586v-86h-484v-336h422v-86h-422v-401h477v-86h-579zM224 1350h118l172 -215h-80z" />
<glyph unicode="E&#x301;" horiz-adv-x="749" d="M123 0v995h586v-86h-484v-336h422v-86h-422v-401h477v-86h-579zM400 1135l174 215h121l-215 -215h-80z" />
<glyph unicode="I&#x300;" horiz-adv-x="565" d="M41 0v86h188v823h-182v86h477v-86h-194v-823h188v-86h-477zM76 1350h118l172 -215h-80z" />
<glyph unicode="I&#x301;" horiz-adv-x="565" d="M41 0v86h188v823h-182v86h477v-86h-194v-823h188v-86h-477zM232 1135l174 215h121l-215 -215h-80z" />
<glyph unicode="O&#x300;" horiz-adv-x="966" d="M82 485q0 256 91 386t310 130q109 0 185.5 -32.5t125 -97t70 -162t21.5 -224.5q0 -119 -21.5 -212t-70 -156.5t-125 -96t-185.5 -32.5q-217 0 -309 129t-92 368zM188 485q0 -104 13.5 -180t47.5 -125t90 -72.5t144 -23.5q86 0 143.5 23.5t91.5 72.5t47 125t13 180 q0 115 -13 195t-47 131t-91.5 74.5t-143.5 23.5q-88 0 -144 -23.5t-90 -74.5t-47.5 -131t-13.5 -195zM293 1350h118l172 -215h-80z" />
<glyph unicode="O&#x301;" horiz-adv-x="966" d="M82 485q0 256 91 386t310 130q109 0 185.5 -32.5t125 -97t70 -162t21.5 -224.5q0 -119 -21.5 -212t-70 -156.5t-125 -96t-185.5 -32.5q-217 0 -309 129t-92 368zM188 485q0 -104 13.5 -180t47.5 -125t90 -72.5t144 -23.5q86 0 143.5 23.5t91.5 72.5t47 125t13 180 q0 115 -13 195t-47 131t-91.5 74.5t-143.5 23.5q-88 0 -144 -23.5t-90 -74.5t-47.5 -131t-13.5 -195zM334 1135l174 215h121l-215 -215h-80z" />
<glyph unicode="O&#x303;" horiz-adv-x="966" d="M82 485q0 256 91 386t310 130q109 0 185.5 -32.5t125 -97t70 -162t21.5 -224.5q0 -119 -21.5 -212t-70 -156.5t-125 -96t-185.5 -32.5q-217 0 -309 129t-92 368zM188 485q0 -104 13.5 -180t47.5 -125t90 -72.5t144 -23.5q86 0 143.5 23.5t91.5 72.5t47 125t13 180 q0 115 -13 195t-47 131t-91.5 74.5t-143.5 23.5q-88 0 -144 -23.5t-90 -74.5t-47.5 -131t-13.5 -195zM243 1130q4 55 41 104.5t97 49.5q29 0 57.5 -11t56.5 -26q29 -12 55.5 -22.5t53.5 -10.5q33 0 49 24t20 52h58q-8 -59 -38 -105t-99 -46q-25 0 -53.5 12t-57.5 25 q-29 12 -57.5 22t-51.5 10q-33 0 -50 -24.5t-21 -53.5h-60z" />
<glyph unicode="U&#x300;" horiz-adv-x="1007" d="M123 330v665h102v-506q0 -61 -2 -111t-2 -91q0 -47 6 -85t29 -61q33 -35 99.5 -51t144.5 -16q76 0 148.5 16t103.5 51q23 23 28.5 61t5.5 85q0 41 -2 91t-2 111v506h103v-665q0 -96 -10.5 -148.5t-43.5 -93.5q-31 -33 -73.5 -52.5t-88.5 -30.5t-91.5 -14t-77.5 -3 q-33 0 -77 3t-89 13t-87 30.5t-71 53.5q-35 39 -44 92t-9 150zM291 1350h118l172 -215h-80z" />
<glyph unicode="U&#x301;" horiz-adv-x="1007" d="M123 330v665h102v-506q0 -61 -2 -111t-2 -91q0 -47 6 -85t29 -61q33 -35 99.5 -51t144.5 -16q76 0 148.5 16t103.5 51q23 23 28.5 61t5.5 85q0 41 -2 91t-2 111v506h103v-665q0 -96 -10.5 -148.5t-43.5 -93.5q-31 -33 -73.5 -52.5t-88.5 -30.5t-91.5 -14t-77.5 -3 q-33 0 -77 3t-89 13t-87 30.5t-71 53.5q-35 39 -44 92t-9 150zM443 1135l174 215h121l-215 -215h-80z" />
<glyph unicode="Y&#x301;" horiz-adv-x="866" d="M41 995h111l282 -522l281 522h110l-342 -606v-389h-102v389zM414 1135l174 215h121l-215 -215h-80z" />
<glyph unicode="a&#x300;" d="M41 217q0 82 34 133t99.5 81t161.5 42t223 19v96q0 82 -41 123t-145 41q-76 0 -134.5 -40t-111.5 -108q-8 -10 -22.5 -4t-28.5 16q-16 12 -33 33q84 98 167 137t167 39q139 0 204.5 -59t65.5 -195v-424q0 -47 7.5 -80.5t13.5 -50.5q-37 -16 -68 -16q-18 0 -29 16 q-6 16 -10 47q-2 17 -2 35q-72 -59 -137.5 -86.5t-159.5 -27.5t-157.5 65.5t-63.5 167.5zM127 219q0 -68 44 -114t108 -46q66 0 140.5 36t135.5 98v223q-135 -2 -219 -19.5t-130 -44t-62.5 -61.5t-16.5 -72zM224 1114h118l172 -215h-80z" />
<glyph unicode="a&#x301;" d="M41 217q0 82 34 133t99.5 81t161.5 42t223 19v96q0 82 -41 123t-145 41q-76 0 -134.5 -40t-111.5 -108q-8 -10 -22.5 -4t-28.5 16q-16 12 -33 33q84 98 167 137t167 39q139 0 204.5 -59t65.5 -195v-424q0 -47 7.5 -80.5t13.5 -50.5q-37 -16 -68 -16q-18 0 -29 16 q-6 16 -10 47q-2 17 -2 35q-72 -59 -137.5 -86.5t-159.5 -27.5t-157.5 65.5t-63.5 167.5zM127 219q0 -68 44 -114t108 -46q66 0 140.5 36t135.5 98v223q-135 -2 -219 -19.5t-130 -44t-62.5 -61.5t-16.5 -72zM359 899l174 215h121l-215 -215h-80z" />
<glyph unicode="a&#x303;" d="M41 217q0 82 34 133t99.5 81t161.5 42t223 19v96q0 82 -41 123t-145 41q-76 0 -134.5 -40t-111.5 -108q-8 -10 -22.5 -4t-28.5 16q-16 12 -33 33q84 98 167 137t167 39q139 0 204.5 -59t65.5 -195v-424q0 -47 7.5 -80.5t13.5 -50.5q-37 -16 -68 -16q-18 0 -29 16 q-6 16 -10 47q-2 17 -2 35q-72 -59 -137.5 -86.5t-159.5 -27.5t-157.5 65.5t-63.5 167.5zM110 915q4 55 41 104.5t97 49.5q29 0 57.5 -11t56.5 -26q29 -12 55.5 -22.5t53.5 -10.5q33 0 49 24t20 52h58q-8 -59 -38 -105t-99 -46q-25 0 -53.5 12t-57.5 25q-29 12 -57.5 22 t-51.5 10q-33 0 -50 -24.5t-21 -53.5h-60zM127 219q0 -68 44 -114t108 -46q66 0 140.5 36t135.5 98v223q-135 -2 -219 -19.5t-130 -44t-62.5 -61.5t-16.5 -72z" />
<glyph unicode="e&#x300;" d="M57 406q0 117 28 196.5t74 129.5t108.5 71.5t131.5 21.5q82 0 141.5 -30.5t97.5 -87t56.5 -134t18.5 -172.5h-563q0 -70 14 -131t46 -108t81 -75t119 -28q39 0 69.5 8.5t57 27t52 49t56.5 77.5l76 -39q-33 -53 -64.5 -91t-68.5 -61.5t-82 -34.5t-105 -11q-160 0 -252 103 t-92 319zM150 477h468q-4 133 -60 204t-163 71q-61 0 -107 -22.5t-77 -59.5t-46 -87.5t-15 -105.5zM203 1114h118l172 -215h-80z" />
<glyph unicode="e&#x301;" d="M57 406q0 117 28 196.5t74 129.5t108.5 71.5t131.5 21.5q82 0 141.5 -30.5t97.5 -87t56.5 -134t18.5 -172.5h-563q0 -70 14 -131t46 -108t81 -75t119 -28q39 0 69.5 8.5t57 27t52 49t56.5 77.5l76 -39q-33 -53 -64.5 -91t-68.5 -61.5t-82 -34.5t-105 -11q-160 0 -252 103 t-92 319zM150 477h468q-4 133 -60 204t-163 71q-61 0 -107 -22.5t-77 -59.5t-46 -87.5t-15 -105.5zM359 899l174 215h121l-215 -215h-80z" />
<glyph unicode="i&#x300;" horiz-adv-x="346" d="M-20 1114h118l172 -215h-80zM127 0v809h92v-809h-92z" />
<glyph unicode="i&#x301;" horiz-adv-x="346" d="M74 899l174 215h121l-215 -215h-80zM127 0v809h92v-809h-92z" />
<glyph unicode="o&#x300;" d="M57 406q0 98 16.5 175.5t55.5 132t102.5 83t157.5 28.5q96 0 159.5 -28.5t101.5 -83t54.5 -132t16.5 -175.5t-16.5 -176t-54.5 -133.5t-101.5 -84t-159.5 -28.5q-94 0 -157.5 28.5t-102.5 84t-55.5 133t-16.5 176.5zM150 406q0 -166 49 -256.5t190 -90.5t190.5 90.5 t49.5 256.5q0 82 -11.5 146t-38 108.5t-72.5 68t-118 23.5q-70 0 -117 -23.5t-73.5 -68t-37.5 -109t-11 -145.5zM254 1114h118l172 -215h-80z" />
<glyph unicode="o&#x301;" d="M57 406q0 98 16.5 175.5t55.5 132t102.5 83t157.5 28.5q96 0 159.5 -28.5t101.5 -83t54.5 -132t16.5 -175.5t-16.5 -176t-54.5 -133.5t-101.5 -84t-159.5 -28.5q-94 0 -157.5 28.5t-102.5 84t-55.5 133t-16.5 176.5zM150 406q0 -166 49 -256.5t190 -90.5t190.5 90.5 t49.5 256.5q0 82 -11.5 146t-38 108.5t-72.5 68t-118 23.5q-70 0 -117 -23.5t-73.5 -68t-37.5 -109t-11 -145.5zM348 899l174 215h121l-215 -215h-80z" />
<glyph unicode="o&#x303;" d="M57 406q0 98 16.5 175.5t55.5 132t102.5 83t157.5 28.5q96 0 159.5 -28.5t101.5 -83t54.5 -132t16.5 -175.5t-16.5 -176t-54.5 -133.5t-101.5 -84t-159.5 -28.5q-94 0 -157.5 28.5t-102.5 84t-55.5 133t-16.5 176.5zM141 915q4 55 41 104.5t97 49.5q29 0 57.5 -11 t56.5 -26q29 -12 55.5 -22.5t53.5 -10.5q33 0 49 24t20 52h58q-8 -59 -38 -105t-99 -46q-25 0 -53.5 12t-57.5 25q-29 12 -57.5 22t-51.5 10q-33 0 -50 -24.5t-21 -53.5h-60zM150 406q0 -166 49 -256.5t190 -90.5t190.5 90.5t49.5 256.5q0 82 -11.5 146t-38 108.5t-72.5 68 t-118 23.5q-70 0 -117 -23.5t-73.5 -68t-37.5 -109t-11 -145.5z" />
<glyph unicode="u&#x300;" horiz-adv-x="866" d="M129 256v553h92v-543q0 -100 35 -153.5t129 -53.5q78 0 144.5 42t113.5 114v594h94v-641q0 -72 7.5 -101.5t13.5 -50.5q-16 -8 -30.5 -12t-31.5 -4q-8 0 -19 3t-18 13q-4 8 -6 25.5t-4 38.5q-2 22 -2 49q-35 -70 -111.5 -107.5t-166.5 -37.5q-129 0 -184.5 70.5 t-55.5 201.5zM207 1114h118l172 -215h-80z" />
<glyph unicode="u&#x301;" horiz-adv-x="866" d="M129 256v553h92v-543q0 -100 35 -153.5t129 -53.5q78 0 144.5 42t113.5 114v594h94v-641q0 -72 7.5 -101.5t13.5 -50.5q-16 -8 -30.5 -12t-31.5 -4q-8 0 -19 3t-18 13q-4 8 -6 25.5t-4 38.5q-2 22 -2 49q-35 -70 -111.5 -107.5t-166.5 -37.5q-129 0 -184.5 70.5 t-55.5 201.5zM398 899l174 215h121l-215 -215h-80z" />
<glyph unicode="y&#x301;" horiz-adv-x="690" d="M10.5 -251q-2.5 15 1.5 31.5t10.5 32t12.5 19.5q23 -16 42 -28.5t48 -12.5q47 0 93 48t81 173l-279 797h101l223 -657h2l225 657h103l-303 -868q-41 -117 -95.5 -172.5t-162.5 -55.5q-31 0 -51.5 5.5t-36.5 11.5q-12 4 -14.5 19zM301 899l174 215h121l-215 -215h-80z" />
<glyph unicode="I&#x303;" horiz-adv-x="565" d="M37 1213q4 55 41 104t97 49q29 0 57.5 -11t56.5 -25q29 -12 55.5 -22.5t53.5 -10.5q33 0 49 23.5t20 52.5h58q-8 -59 -38 -105.5t-99 -46.5q-25 0 -53.5 12.5t-57.5 24.5t-57.5 22.5t-51.5 10.5q-33 0 -50 -24.5t-21 -53.5h-60zM41 0v86h188v823h-182v86h477v-86h-194 v-823h188v-86h-477z" />
<glyph unicode="i&#x303;" horiz-adv-x="346" d="M-72 1018q4 55 41 104t97 49q29 0 57.5 -11t56.5 -25q29 -12 55.5 -22.5t53.5 -10.5q33 0 49 23.5t20 52.5h58q-8 -59 -38 -105.5t-99 -46.5q-25 0 -53.5 12.5t-57.5 24.5t-57.5 22.5t-51.5 10.5q-33 0 -50 -24.5t-21 -53.5h-60zM127 0v809h92v-809h-92z" />
<glyph unicode="U&#x303;" horiz-adv-x="1007" d="M123 330v665h102v-506q0 -61 -2 -111t-2 -91q0 -47 6 -85t29 -61q33 -35 99.5 -51t144.5 -16q76 0 148.5 16t103.5 51q23 23 28.5 61t5.5 85q0 41 -2 91t-2 111v506h103v-665q0 -96 -10.5 -148.5t-43.5 -93.5q-31 -33 -73.5 -52.5t-88.5 -30.5t-91.5 -14t-77.5 -3 q-33 0 -77 3t-89 13t-87 30.5t-71 53.5q-35 39 -44 92t-9 150zM274 1103q4 55 41 104.5t97 49.5q29 0 57.5 -11t56.5 -26q29 -12 55.5 -22.5t53.5 -10.5q33 0 49 24t20 52h58q-8 -59 -38 -105t-99 -46q-25 0 -53.5 12t-57.5 25q-29 12 -57.5 22t-51.5 10q-33 0 -50 -24.5 t-21 -53.5h-60z" />
<glyph unicode="u&#x303;" horiz-adv-x="866" d="M129 256v553h92v-543q0 -100 35 -153.5t129 -53.5q78 0 144.5 42t113.5 114v594h94v-641q0 -72 7.5 -101.5t13.5 -50.5q-16 -8 -30.5 -12t-31.5 -4q-8 0 -19 3t-18 13q-4 8 -6 25.5t-4 38.5q-2 22 -2 49q-35 -70 -111.5 -107.5t-166.5 -37.5q-129 0 -184.5 70.5 t-55.5 201.5zM204 1018q4 55 41 104t97 49q29 0 57.5 -11t56.5 -25q29 -12 55.5 -22.5t53.5 -10.5q33 0 49 23.5t20 52.5h58q-8 -59 -38 -105.5t-99 -46.5q-25 0 -53.5 12.5t-57.5 24.5t-57.5 22.5t-51.5 10.5q-33 0 -50 -24.5t-21 -53.5h-60z" />
<glyph unicode="&#xe2f;&#xe2f;" horiz-adv-x="841" d="M33 705q0 61 35.5 91.5t81.5 30.5q47 0 77.5 -29.5t30.5 -88.5l-33 -60h-32v60q0 29 -13.5 40t-29.5 11q-49 0 -50 -55q0 -51 33 -74t74 -23q31 0 66.5 9.5t68.5 33t56.5 64.5t31.5 104h64q25 0 20.5 -13t-4.5 -46v-760h-86v664q-29 -45 -82 -81t-137 -36q-76 0 -124 43 t-48 115zM625 819h73q25 0 21 -13t-4 -46v-760h-86z" />
<glyph unicode="A&#x323;" horiz-adv-x="948" d="M41 0l381 993h106l379 -993h-110l-105 289h-436l-104 -289h-111zM285 379h381l-191 532zM403 -100h133v-142h-133v142z" />
<glyph unicode="a&#x323;" d="M41 217q0 82 34 133t99.5 81t161.5 42t223 19v96q0 82 -41 123t-145 41q-76 0 -134.5 -40t-111.5 -108q-8 -10 -22.5 -4t-28.5 16q-16 12 -33 33q84 98 167 137t167 39q139 0 204.5 -59t65.5 -195v-424q0 -47 7.5 -80.5t13.5 -50.5q-37 -16 -68 -16q-18 0 -29 16 q-6 16 -10 47q-2 17 -2 35q-72 -59 -137.5 -86.5t-159.5 -27.5t-157.5 65.5t-63.5 167.5zM127 219q0 -68 44 -114t108 -46q66 0 140.5 36t135.5 98v223q-135 -2 -219 -19.5t-130 -44t-62.5 -61.5t-16.5 -72zM287 -100h133v-142h-133v142z" />
<glyph unicode="A&#x309;" horiz-adv-x="948" d="M41 0l381 993h106l379 -993h-110l-105 289h-436l-104 -289h-111zM285 379h381l-191 532zM340 1393q47 86 146 86q55 0 94 -39t39 -94q0 -35 -15.5 -67t-36 -56.5t-40 -43t-29.5 -24.5l-59 41q102 72 102 146q0 29 -16.5 49t-44.5 20q-49 0 -88 -57z" />
<glyph unicode="a&#x309;" d="M41 217q0 82 34 133t99.5 81t161.5 42t223 19v96q0 82 -41 123t-145 41q-76 0 -134.5 -40t-111.5 -108q-8 -10 -22.5 -4t-28.5 16q-16 12 -33 33q84 98 167 137t167 39q139 0 204.5 -59t65.5 -195v-424q0 -47 7.5 -80.5t13.5 -50.5q-37 -16 -68 -16q-18 0 -29 16 q-6 16 -10 47q-2 17 -2 35q-72 -59 -137.5 -86.5t-159.5 -27.5t-157.5 65.5t-63.5 167.5zM127 219q0 -68 44 -114t108 -46q66 0 140.5 36t135.5 98v223q-135 -2 -219 -19.5t-130 -44t-62.5 -61.5t-16.5 -72zM280 1098q47 86 146 86q55 0 94 -39t39 -94q0 -35 -15.5 -67 t-36 -56.5t-40 -43t-29.5 -24.5l-59 41q102 72 102 146q0 29 -16.5 49t-44.5 20q-49 0 -88 -57z" />
<glyph unicode="&#xc2;&#x301;" horiz-adv-x="948" d="M41 0l381 993h106l379 -993h-110l-105 289h-436l-104 -289h-111zM242 1106l180 215h104l178 -215h-104l-125 158l-129 -158h-104zM285 379h381l-191 532zM632 1305l174 215h121l-215 -215h-80z" />
<glyph unicode="&#xe2;&#x301;" d="M41 217q0 82 34 133t99.5 81t161.5 42t223 19v96q0 82 -41 123t-145 41q-76 0 -134.5 -40t-111.5 -108q-8 -10 -22.5 -4t-28.5 16q-16 12 -33 33q84 98 167 137t167 39q139 0 204.5 -59t65.5 -195v-424q0 -47 7.5 -80.5t13.5 -50.5q-37 -16 -68 -16q-18 0 -29 16 q-6 16 -10 47q-2 17 -2 35q-72 -59 -137.5 -86.5t-159.5 -27.5t-157.5 65.5t-63.5 167.5zM127 219q0 -68 44 -114t108 -46q66 0 140.5 36t135.5 98v223q-135 -2 -219 -19.5t-130 -44t-62.5 -61.5t-16.5 -72zM152 917l180 215h104l178 -215h-104l-125 158l-129 -158h-104z M530 1170l174 215h121l-215 -215h-80z" />
<glyph unicode="&#xc2;&#x300;" horiz-adv-x="948" d="M41 0l381 993h106l379 -993h-110l-105 289h-436l-104 -289h-111zM244 1108l180 215h104l178 -215h-104l-125 158l-129 -158h-104zM285 379h381l-191 532zM543 1538h119l172 -215h-80z" />
<glyph unicode="&#xe2;&#x300;" d="M41 217q0 82 34 133t99.5 81t161.5 42t223 19v96q0 82 -41 123t-145 41q-76 0 -134.5 -40t-111.5 -108q-8 -10 -22.5 -4t-28.5 16q-16 12 -33 33q84 98 167 137t167 39q139 0 204.5 -59t65.5 -195v-424q0 -47 7.5 -80.5t13.5 -50.5q-37 -16 -68 -16q-18 0 -29 16 q-6 16 -10 47q-2 17 -2 35q-72 -59 -137.5 -86.5t-159.5 -27.5t-157.5 65.5t-63.5 167.5zM127 219q0 -68 44 -114t108 -46q66 0 140.5 36t135.5 98v223q-135 -2 -219 -19.5t-130 -44t-62.5 -61.5t-16.5 -72zM138 913l180 215h104l178 -215h-104l-125 158l-129 -158h-104z M426 1342h119l172 -215h-80z" />
<glyph unicode="&#xc2;&#x309;" horiz-adv-x="948" d="M41 0l381 993h106l379 -993h-110l-105 289h-436l-104 -289h-111zM242 1106l180 215h104l178 -215h-104l-125 158l-129 -158h-104zM285 379h381l-191 532zM520 1528q47 86 146 86q55 0 94 -39t39 -94q0 -35 -15.5 -67t-36 -56.5t-40 -43t-29.5 -24.5l-59 41 q102 72 102 146q0 29 -16.5 49t-44.5 20q-49 0 -88 -57z" />
<glyph unicode="&#xe2;&#x309;" d="M41 217q0 82 34 133t99.5 81t161.5 42t223 19v96q0 82 -41 123t-145 41q-76 0 -134.5 -40t-111.5 -108q-8 -10 -22.5 -4t-28.5 16q-16 12 -33 33q84 98 167 137t167 39q139 0 204.5 -59t65.5 -195v-424q0 -47 7.5 -80.5t13.5 -50.5q-37 -16 -68 -16q-18 0 -29 16 q-6 16 -10 47q-2 17 -2 35q-72 -59 -137.5 -86.5t-159.5 -27.5t-157.5 65.5t-63.5 167.5zM127 219q0 -68 44 -114t108 -46q66 0 140.5 36t135.5 98v223q-135 -2 -219 -19.5t-130 -44t-62.5 -61.5t-16.5 -72zM140 913l180 215h104l178 -215h-104l-125 158l-129 -158h-104z M430 1295q47 86 146 86q55 0 94 -39t39 -94q0 -35 -15.5 -67t-36 -56.5t-40 -43t-29.5 -24.5l-59 41q102 72 102 146q0 29 -16.5 49t-44.5 20q-49 0 -88 -57z" />
<glyph unicode="&#xc2;&#x303;" horiz-adv-x="948" d="M41 0l381 993h106l379 -993h-110l-105 289h-436l-104 -289h-111zM231 1407q4 55 41 104t97 49q29 0 57.5 -11t56.5 -25q29 -12 55.5 -22.5t53.5 -10.5q33 0 49 23.5t20 52.5h58q-8 -59 -38 -105.5t-99 -46.5q-25 0 -53.5 12.5t-57.5 24.5t-57.5 22.5t-51.5 10.5 q-33 0 -50 -24.5t-21 -53.5h-60zM242 1106l180 215h104l178 -215h-104l-125 158l-129 -158h-104zM285 379h381l-191 532z" />
<glyph unicode="&#xe2;&#x303;" d="M41 217q0 82 34 133t99.5 81t161.5 42t223 19v96q0 82 -41 123t-145 41q-76 0 -134.5 -40t-111.5 -108q-8 -10 -22.5 -4t-28.5 16q-16 12 -33 33q84 98 167 137t167 39q139 0 204.5 -59t65.5 -195v-424q0 -47 7.5 -80.5t13.5 -50.5q-37 -16 -68 -16q-18 0 -29 16 q-6 16 -10 47q-2 17 -2 35q-72 -59 -137.5 -86.5t-159.5 -27.5t-157.5 65.5t-63.5 167.5zM127 219q0 -68 44 -114t108 -46q66 0 140.5 36t135.5 98v223q-135 -2 -219 -19.5t-130 -44t-62.5 -61.5t-16.5 -72zM141 1231q4 55 41 104t97 49q29 0 57.5 -11t56.5 -25 q29 -12 55.5 -22.5t53.5 -10.5q33 0 49 23.5t20 52.5h58q-8 -59 -38 -105.5t-99 -46.5q-25 0 -53.5 12.5t-57.5 24.5t-57.5 22.5t-51.5 10.5q-33 0 -50 -24.5t-21 -53.5h-60zM154 913l180 215h104l178 -215h-104l-125 158l-129 -158h-104z" />
<glyph unicode="&#xc2;&#x323;" horiz-adv-x="948" d="M41 0l381 993h106l379 -993h-110l-105 289h-436l-104 -289h-111zM242 1106l180 215h104l178 -215h-104l-125 158l-129 -158h-104zM285 379h381l-191 532zM364 -100h133v-142h-133v142z" />
<glyph unicode="&#xe2;&#x323;" d="M41 217q0 82 34 133t99.5 81t161.5 42t223 19v96q0 82 -41 123t-145 41q-76 0 -134.5 -40t-111.5 -108q-8 -10 -22.5 -4t-28.5 16q-16 12 -33 33q84 98 167 137t167 39q139 0 204.5 -59t65.5 -195v-424q0 -47 7.5 -80.5t13.5 -50.5q-37 -16 -68 -16q-18 0 -29 16 q-6 16 -10 47q-2 17 -2 35q-72 -59 -137.5 -86.5t-159.5 -27.5t-157.5 65.5t-63.5 167.5zM123 913l180 215h104l178 -215h-104l-125 158l-129 -158h-104zM127 219q0 -68 44 -114t108 -46q66 0 140.5 36t135.5 98v223q-135 -2 -219 -19.5t-130 -44t-62.5 -61.5t-16.5 -72z M287 -100h133v-142h-133v142z" />
<glyph unicode="&#x102;&#x301;" horiz-adv-x="948" d="M41 0l381 993h106l379 -993h-110l-105 289h-436l-104 -289h-111zM252 1317h69q14 -70 53.5 -98.5t102.5 -28.5q59 0 99 29t55 98h69q-6 -92 -65.5 -144t-157.5 -52t-158.5 52t-66.5 144zM285 379h381l-191 532zM446 1325l174 215h121l-215 -215h-80z" />
<glyph unicode="&#x103;&#x301;" d="M41 217q0 82 34 133t99.5 81t161.5 42t223 19v96q0 82 -41 123t-145 41q-76 0 -134.5 -40t-111.5 -108q-8 -10 -22.5 -4t-28.5 16q-16 12 -33 33q84 98 167 137t167 39q139 0 204.5 -59t65.5 -195v-424q0 -47 7.5 -80.5t13.5 -50.5q-37 -16 -68 -16q-18 0 -29 16 q-6 16 -10 47q-2 17 -2 35q-72 -59 -137.5 -86.5t-159.5 -27.5t-157.5 65.5t-63.5 167.5zM127 219q0 -68 44 -114t108 -46q66 0 140.5 36t135.5 98v223q-135 -2 -219 -19.5t-130 -44t-62.5 -61.5t-16.5 -72zM162 1145h69q14 -70 53.5 -98.5t102.5 -28.5q59 0 99 29t55 98h69 q-6 -92 -65.5 -144t-157.5 -52t-158.5 52t-66.5 144zM329 1129l174 215h121l-215 -215h-80z" />
<glyph unicode="&#x102;&#x300;" horiz-adv-x="948" d="M41 0l381 993h106l379 -993h-110l-105 289h-436l-104 -289h-111zM231 1516h119l172 -215h-80zM250 1302h69q14 -70 53.5 -98.5t102.5 -28.5q59 0 99 29t55 98h69q-6 -92 -65.5 -144t-157.5 -52t-158.5 52t-66.5 144zM285 379h381l-191 532z" />
<glyph unicode="&#x103;&#x300;" d="M41 217q0 82 34 133t99.5 81t161.5 42t223 19v96q0 82 -41 123t-145 41q-76 0 -134.5 -40t-111.5 -108q-8 -10 -22.5 -4t-28.5 16q-16 12 -33 33q84 98 167 137t167 39q139 0 204.5 -59t65.5 -195v-424q0 -47 7.5 -80.5t13.5 -50.5q-37 -16 -68 -16q-18 0 -29 16 q-6 16 -10 47q-2 17 -2 35q-72 -59 -137.5 -86.5t-159.5 -27.5t-157.5 65.5t-63.5 167.5zM125 1362h119l172 -215h-80zM127 219q0 -68 44 -114t108 -46q66 0 140.5 36t135.5 98v223q-135 -2 -219 -19.5t-130 -44t-62.5 -61.5t-16.5 -72zM142 1151h69q14 -70 53.5 -98.5 t102.5 -28.5q59 0 99 29t55 98h69q-6 -92 -65.5 -144t-157.5 -52t-158.5 52t-66.5 144z" />
<glyph unicode="&#x102;&#x309;" horiz-adv-x="948" d="M41 0l381 993h106l379 -993h-110l-105 289h-436l-104 -289h-111zM250 1302h69q14 -70 53.5 -98.5t102.5 -28.5q59 0 99 29t55 98h69q-6 -92 -65.5 -144t-157.5 -52t-158.5 52t-66.5 144zM285 379h381l-191 532zM336 1536q47 86 146 86q55 0 94 -39t39 -94 q0 -35 -15.5 -67t-36 -56.5t-40 -43t-29.5 -24.5l-59 41q102 72 102 146q0 29 -16.5 49t-44.5 20q-49 0 -88 -57z" />
<glyph unicode="&#x103;&#x309;" d="M41 217q0 82 34 133t99.5 81t161.5 42t223 19v96q0 82 -41 123t-145 41q-76 0 -134.5 -40t-111.5 -108q-8 -10 -22.5 -4t-28.5 16q-16 12 -33 33q84 98 167 137t167 39q139 0 204.5 -59t65.5 -195v-424q0 -47 7.5 -80.5t13.5 -50.5q-37 -16 -68 -16q-18 0 -29 16 q-6 16 -10 47q-2 17 -2 35q-72 -59 -137.5 -86.5t-159.5 -27.5t-157.5 65.5t-63.5 167.5zM127 219q0 -68 44 -114t108 -46q66 0 140.5 36t135.5 98v223q-135 -2 -219 -19.5t-130 -44t-62.5 -61.5t-16.5 -72zM150 1147h69q14 -70 53.5 -98.5t102.5 -28.5q59 0 99 29t55 98h69 q-6 -92 -65.5 -144t-157.5 -52t-158.5 52t-66.5 144zM231 1377q47 86 146 86q55 0 94 -39t39 -94q0 -35 -15.5 -67t-36 -56.5t-40 -43t-29.5 -24.5l-59 41q102 72 102 146q0 29 -16.5 49t-44.5 20q-49 0 -88 -57z" />
<glyph unicode="&#x102;&#x303;" horiz-adv-x="948" d="M41 0l381 993h106l379 -993h-110l-105 289h-436l-104 -289h-111zM229 1399q4 55 41 104t97 49q29 0 57.5 -11t56.5 -25q29 -12 55.5 -22.5t53.5 -10.5q33 0 49 23.5t20 52.5h58q-8 -59 -38 -105.5t-99 -46.5q-25 0 -53.5 12.5t-57.5 24.5t-57.5 22.5t-51.5 10.5 q-33 0 -50 -24.5t-21 -53.5h-60zM252 1298h69q14 -70 53.5 -98.5t102.5 -28.5q59 0 99 29t55 98h69q-6 -92 -65.5 -144t-157.5 -52t-158.5 52t-66.5 144zM285 379h381l-191 532z" />
<glyph unicode="&#x103;&#x303;" d="M41 217q0 82 34 133t99.5 81t161.5 42t223 19v96q0 82 -41 123t-145 41q-76 0 -134.5 -40t-111.5 -108q-8 -10 -22.5 -4t-28.5 16q-16 12 -33 33q84 98 167 137t167 39q139 0 204.5 -59t65.5 -195v-424q0 -47 7.5 -80.5t13.5 -50.5q-37 -16 -68 -16q-18 0 -29 16 q-6 16 -10 47q-2 17 -2 35q-72 -59 -137.5 -86.5t-159.5 -27.5t-157.5 65.5t-63.5 167.5zM127 219q0 -68 44 -114t108 -46q66 0 140.5 36t135.5 98v223q-135 -2 -219 -19.5t-130 -44t-62.5 -61.5t-16.5 -72zM139 1260q4 55 41 104t97 49q29 0 57.5 -11t56.5 -25 q29 -12 55.5 -22.5t53.5 -10.5q33 0 49 23.5t20 52.5h58q-8 -59 -38 -105.5t-99 -46.5q-25 0 -53.5 12.5t-57.5 24.5t-57.5 22.5t-51.5 10.5q-33 0 -50 -24.5t-21 -53.5h-60zM156 1147h69q14 -70 53.5 -98.5t102.5 -28.5q59 0 99 29t55 98h69q-6 -92 -65.5 -144t-157.5 -52 t-158.5 52t-66.5 144z" />
<glyph unicode="&#x102;&#x323;" horiz-adv-x="948" d="M41 0l381 993h106l379 -993h-110l-105 289h-436l-104 -289h-111zM252 1319h69q14 -70 53.5 -98.5t102.5 -28.5q59 0 99 29t55 98h69q-6 -92 -65.5 -144t-157.5 -52t-158.5 52t-66.5 144zM285 379h381l-191 532zM411 -100h133v-142h-133v142z" />
<glyph unicode="&#x103;&#x323;" d="M41 217q0 82 34 133t99.5 81t161.5 42t223 19v96q0 82 -41 123t-145 41q-76 0 -134.5 -40t-111.5 -108q-8 -10 -22.5 -4t-28.5 16q-16 12 -33 33q84 98 167 137t167 39q139 0 204.5 -59t65.5 -195v-424q0 -47 7.5 -80.5t13.5 -50.5q-37 -16 -68 -16q-18 0 -29 16 q-6 16 -10 47q-2 17 -2 35q-72 -59 -137.5 -86.5t-159.5 -27.5t-157.5 65.5t-63.5 167.5zM127 219q0 -68 44 -114t108 -46q66 0 140.5 36t135.5 98v223q-135 -2 -219 -19.5t-130 -44t-62.5 -61.5t-16.5 -72zM133 1147h69q14 -70 53.5 -98.5t102.5 -28.5q59 0 99 29t55 98h69 q-6 -92 -65.5 -144t-157.5 -52t-158.5 52t-66.5 144zM287 -100h133v-142h-133v142z" />
<glyph unicode="E&#x323;" horiz-adv-x="749" d="M123 0v995h586v-86h-484v-336h422v-86h-422v-401h477v-86h-579zM293 -100h133v-142h-133v142z" />
<glyph unicode="e&#x323;" d="M57 406q0 117 28 196.5t74 129.5t108.5 71.5t131.5 21.5q82 0 141.5 -30.5t97.5 -87t56.5 -134t18.5 -172.5h-563q0 -70 14 -131t46 -108t81 -75t119 -28q39 0 69.5 8.5t57 27t52 49t56.5 77.5l76 -39q-33 -53 -64.5 -91t-68.5 -61.5t-82 -34.5t-105 -11q-160 0 -252 103 t-92 319zM150 477h468q-4 133 -60 204t-163 71q-61 0 -107 -22.5t-77 -59.5t-46 -87.5t-15 -105.5zM317 -100h133v-142h-133v142z" />
<glyph unicode="E&#x309;" horiz-adv-x="749" d="M123 0v995h586v-86h-484v-336h422v-86h-422v-401h477v-86h-579zM266 1377q47 86 146 86q55 0 94 -39t39 -94q0 -35 -15.5 -67t-36 -56.5t-40 -43t-29.5 -24.5l-59 41q102 72 102 146q0 29 -16.5 49t-44.5 20q-49 0 -88 -57z" />
<glyph unicode="e&#x309;" d="M57 406q0 117 28 196.5t74 129.5t108.5 71.5t131.5 21.5q82 0 141.5 -30.5t97.5 -87t56.5 -134t18.5 -172.5h-563q0 -70 14 -131t46 -108t81 -75t119 -28q39 0 69.5 8.5t57 27t52 49t56.5 77.5l76 -39q-33 -53 -64.5 -91t-68.5 -61.5t-82 -34.5t-105 -11q-160 0 -252 103 t-92 319zM150 477h468q-4 133 -60 204t-163 71q-61 0 -107 -22.5t-77 -59.5t-46 -87.5t-15 -105.5zM260 1180q47 86 146 86q55 0 94 -39t39 -94q0 -35 -15.5 -67t-36 -56.5t-40 -43t-29.5 -24.5l-59 41q102 72 102 146q0 29 -16.5 49t-44.5 20q-49 0 -88 -57z" />
<glyph unicode="E&#x303;" horiz-adv-x="749" d="M123 0v995h586v-86h-484v-336h422v-86h-422v-401h477v-86h-579zM176 1146q4 55 41 104.5t97 49.5q29 0 57.5 -11t56.5 -26q29 -12 55.5 -22.5t53.5 -10.5q33 0 49 24t20 52h58q-8 -59 -38 -105t-99 -46q-25 0 -53.5 12t-57.5 25q-29 12 -57.5 22t-51.5 10 q-33 0 -50 -24.5t-21 -53.5h-60z" />
<glyph unicode="e&#x303;" d="M57 406q0 117 28 196.5t74 129.5t108.5 71.5t131.5 21.5q82 0 141.5 -30.5t97.5 -87t56.5 -134t18.5 -172.5h-563q0 -70 14 -131t46 -108t81 -75t119 -28q39 0 69.5 8.5t57 27t52 49t56.5 77.5l76 -39q-33 -53 -64.5 -91t-68.5 -61.5t-82 -34.5t-105 -11q-160 0 -252 103 t-92 319zM150 477h468q-4 133 -60 204t-163 71q-61 0 -107 -22.5t-77 -59.5t-46 -87.5t-15 -105.5zM151 1018q4 55 41 104t97 49q29 0 57.5 -11t56.5 -25q29 -12 55.5 -22.5t53.5 -10.5q33 0 49 23.5t20 52.5h58q-8 -59 -38 -105.5t-99 -46.5q-25 0 -53.5 12.5t-57.5 24.5 t-57.5 22.5t-51.5 10.5q-33 0 -50 -24.5t-21 -53.5h-60z" />
<glyph unicode="&#xca;&#x301;" horiz-adv-x="749" d="M123 0v995h586v-86h-484v-336h422v-86h-422v-401h477v-86h-579zM154 1178l180 215h104l178 -215h-104l-125 158l-129 -158h-104zM524 1346l174 215h121l-215 -215h-80z" />
<glyph unicode="&#xea;&#x301;" d="M57 406q0 117 28 196.5t74 129.5t108.5 71.5t131.5 21.5q82 0 141.5 -30.5t97.5 -87t56.5 -134t18.5 -172.5h-563q0 -70 14 -131t46 -108t81 -75t119 -28q39 0 69.5 8.5t57 27t52 49t56.5 77.5l76 -39q-33 -53 -64.5 -91t-68.5 -61.5t-82 -34.5t-105 -11q-160 0 -252 103 t-92 319zM150 477h468q-4 133 -60 204t-163 71q-61 0 -107 -22.5t-77 -59.5t-46 -87.5t-15 -105.5zM189 899l180 215h104l178 -215h-104l-125 158l-129 -158h-104zM536 1129l174 215h121l-215 -215h-80z" />
<glyph unicode="&#xca;&#x300;" horiz-adv-x="749" d="M123 0v995h586v-86h-484v-336h422v-86h-422v-401h477v-86h-579zM185 1145l180 215h104l178 -215h-104l-125 158l-129 -158h-104zM471 1559h119l172 -215h-80z" />
<glyph unicode="&#xea;&#x300;" d="M57 406q0 117 28 196.5t74 129.5t108.5 71.5t131.5 21.5q82 0 141.5 -30.5t97.5 -87t56.5 -134t18.5 -172.5h-563q0 -70 14 -131t46 -108t81 -75t119 -28q39 0 69.5 8.5t57 27t52 49t56.5 77.5l76 -39q-33 -53 -64.5 -91t-68.5 -61.5t-82 -34.5t-105 -11q-160 0 -252 103 t-92 319zM148 899l180 215h104l178 -215h-104l-125 158l-129 -158h-104zM150 477h468q-4 133 -60 204t-163 71q-61 0 -107 -22.5t-77 -59.5t-46 -87.5t-15 -105.5zM430 1321h119l172 -215h-80z" />
<glyph unicode="&#xca;&#x309;" horiz-adv-x="749" d="M123 0v995h586v-86h-484v-336h422v-86h-422v-401h477v-86h-579zM170 1178l180 215h104l178 -215h-104l-125 158l-129 -158h-104zM460 1528q47 86 146 86q55 0 94 -39t39 -94q0 -35 -15.5 -67t-36 -56.5t-40 -43t-29.5 -24.5l-59 41q102 72 102 146q0 29 -16.5 49 t-44.5 20q-49 0 -88 -57z" />
<glyph unicode="&#xea;&#x309;" d="M57 406q0 117 28 196.5t74 129.5t108.5 71.5t131.5 21.5q82 0 141.5 -30.5t97.5 -87t56.5 -134t18.5 -172.5h-563q0 -70 14 -131t46 -108t81 -75t119 -28q39 0 69.5 8.5t57 27t52 49t56.5 77.5l76 -39q-33 -53 -64.5 -91t-68.5 -61.5t-82 -34.5t-105 -11q-160 0 -252 103 t-92 319zM150 477h468q-4 133 -60 204t-163 71q-61 0 -107 -22.5t-77 -59.5t-46 -87.5t-15 -105.5zM168 911l180 215h104l178 -215h-104l-125 158l-129 -158h-104zM471 1258q47 86 146 86q55 0 94 -39t39 -94q0 -35 -15.5 -67t-36 -56.5t-40 -43t-29.5 -24.5l-59 41 q102 72 102 146q0 29 -16.5 49t-44.5 20q-49 0 -88 -57z" />
<glyph unicode="&#xca;&#x303;" horiz-adv-x="749" d="M123 0v995h586v-86h-484v-336h422v-86h-422v-401h477v-86h-579zM153 1473q4 55 41 104t97 49q29 0 57.5 -11t56.5 -25q29 -12 55.5 -22.5t53.5 -10.5q33 0 49 23.5t20 52.5h58q-8 -59 -38 -105.5t-99 -46.5q-25 0 -53.5 12.5t-57.5 24.5t-57.5 22.5t-51.5 10.5 q-33 0 -50 -24.5t-21 -53.5h-60zM164 1155l180 215h104l178 -215h-104l-125 158l-129 -158h-104z" />
<glyph unicode="&#xea;&#x303;" d="M57 406q0 117 28 196.5t74 129.5t108.5 71.5t131.5 21.5q82 0 141.5 -30.5t97.5 -87t56.5 -134t18.5 -172.5h-563q0 -70 14 -131t46 -108t81 -75t119 -28q39 0 69.5 8.5t57 27t52 49t56.5 77.5l76 -39q-33 -53 -64.5 -91t-68.5 -61.5t-82 -34.5t-105 -11q-160 0 -252 103 t-92 319zM90 1292q4 55 41 104t97 49q29 0 57.5 -11t56.5 -25q29 -12 55.5 -22.5t53.5 -10.5q33 0 49 23.5t20 52.5h58q-8 -59 -38 -105.5t-99 -46.5q-25 0 -53.5 12.5t-57.5 24.5t-57.5 22.5t-51.5 10.5q-33 0 -50 -24.5t-21 -53.5h-60zM150 477h468q-4 133 -60 204 t-163 71q-61 0 -107 -22.5t-77 -59.5t-46 -87.5t-15 -105.5zM168 899l180 215h104l178 -215h-104l-125 158l-129 -158h-104z" />
<glyph unicode="&#xca;&#x323;" horiz-adv-x="749" d="M123 0v995h586v-86h-484v-336h422v-86h-422v-401h477v-86h-579zM191 1178l180 215h104l178 -215h-104l-125 158l-129 -158h-104zM342 -100h133v-142h-133v142z" />
<glyph unicode="&#xea;&#x323;" d="M57 406q0 117 28 196.5t74 129.5t108.5 71.5t131.5 21.5q82 0 141.5 -30.5t97.5 -87t56.5 -134t18.5 -172.5h-563q0 -70 14 -131t46 -108t81 -75t119 -28q39 0 69.5 8.5t57 27t52 49t56.5 77.5l76 -39q-33 -53 -64.5 -91t-68.5 -61.5t-82 -34.5t-105 -11q-160 0 -252 103 t-92 319zM107 899l180 215h104l178 -215h-104l-125 158l-129 -158h-104zM150 477h468q-4 133 -60 204t-163 71q-61 0 -107 -22.5t-77 -59.5t-46 -87.5t-15 -105.5zM317 -100h133v-142h-133v142z" />
<glyph unicode="I&#x309;" horiz-adv-x="565" d="M41 0v86h188v823h-182v86h477v-86h-194v-823h188v-86h-477zM145 1360q47 86 146 86q55 0 94 -39t39 -94q0 -35 -15.5 -67t-36 -56.5t-40 -43t-29.5 -24.5l-59 41q102 72 102 146q0 29 -16.5 49t-44.5 20q-49 0 -88 -57z" />
<glyph unicode="i&#x309;" horiz-adv-x="309" d="M20 1098q47 86 146 86q55 0 94 -39t39 -94q0 -35 -15.5 -67t-36 -56.5t-40 -43t-29.5 -24.5l-59 41q102 72 102 146q0 29 -16.5 49t-44.5 20q-49 0 -88 -57zM127 0v809h92v-809h-92z" />
<glyph unicode="I&#x323;" horiz-adv-x="565" d="M41 0v86h188v823h-182v86h477v-86h-194v-823h188v-86h-477zM219 -100h133v-142h-133v142z" />
<glyph unicode="i&#x323;" horiz-adv-x="346" d="M108 -100h133v-142h-133v142zM127 0v809h92v-809h-92zM127 987v137h92v-137h-92z" />
<glyph unicode="O&#x323;" horiz-adv-x="966" d="M82 485q0 256 91 386t310 130q109 0 185.5 -32.5t125 -97t70 -162t21.5 -224.5q0 -119 -21.5 -212t-70 -156.5t-125 -96t-185.5 -32.5q-217 0 -309 129t-92 368zM188 485q0 -104 13.5 -180t47.5 -125t90 -72.5t144 -23.5q86 0 143.5 23.5t91.5 72.5t47 125t13 180 q0 115 -13 195t-47 131t-91.5 74.5t-143.5 23.5q-88 0 -144 -23.5t-90 -74.5t-47.5 -131t-13.5 -195zM420 -100h133v-142h-133v142z" />
<glyph unicode="o&#x323;" d="M57 406q0 98 16.5 175.5t55.5 132t102.5 83t157.5 28.5q96 0 159.5 -28.5t101.5 -83t54.5 -132t16.5 -175.5t-16.5 -176t-54.5 -133.5t-101.5 -84t-159.5 -28.5q-94 0 -157.5 28.5t-102.5 84t-55.5 133t-16.5 176.5zM150 406q0 -166 49 -256.5t190 -90.5t190.5 90.5 t49.5 256.5q0 82 -11.5 146t-38 108.5t-72.5 68t-118 23.5q-70 0 -117 -23.5t-73.5 -68t-37.5 -109t-11 -145.5zM325 -100h133v-142h-133v142z" />
<glyph unicode="O&#x309;" horiz-adv-x="966" d="M82 485q0 256 91 386t310 130q109 0 185.5 -32.5t125 -97t70 -162t21.5 -224.5q0 -119 -21.5 -212t-70 -156.5t-125 -96t-185.5 -32.5q-217 0 -309 129t-92 368zM188 485q0 -104 13.5 -180t47.5 -125t90 -72.5t144 -23.5q86 0 143.5 23.5t91.5 72.5t47 125t13 180 q0 115 -13 195t-47 131t-91.5 74.5t-143.5 23.5q-88 0 -144 -23.5t-90 -74.5t-47.5 -131t-13.5 -195zM397 1377q47 86 146 86q55 0 94 -39t39 -94q0 -35 -15.5 -67t-36 -56.5t-40 -43t-29.5 -24.5l-59 41q102 72 102 146q0 29 -16.5 49t-44.5 20q-49 0 -88 -57z" />
<glyph unicode="o&#x309;" d="M57 406q0 98 16.5 175.5t55.5 132t102.5 83t157.5 28.5q96 0 159.5 -28.5t101.5 -83t54.5 -132t16.5 -175.5t-16.5 -176t-54.5 -133.5t-101.5 -84t-159.5 -28.5q-94 0 -157.5 28.5t-102.5 84t-55.5 133t-16.5 176.5zM150 406q0 -166 49 -256.5t190 -90.5t190.5 90.5 t49.5 256.5q0 82 -11.5 146t-38 108.5t-72.5 68t-118 23.5q-70 0 -117 -23.5t-73.5 -68t-37.5 -109t-11 -145.5zM280 1098q47 86 146 86q55 0 94 -39t39 -94q0 -35 -15.5 -67t-36 -56.5t-40 -43t-29.5 -24.5l-59 41q102 72 102 146q0 29 -16.5 49t-44.5 20q-49 0 -88 -57z " />
<glyph unicode="&#xd4;&#x301;" horiz-adv-x="966" d="M82 485q0 256 91 386t310 130q109 0 185.5 -32.5t125 -97t70 -162t21.5 -224.5q0 -119 -21.5 -212t-70 -156.5t-125 -96t-185.5 -32.5q-217 0 -309 129t-92 368zM188 485q0 -104 13.5 -180t47.5 -125t90 -72.5t144 -23.5q86 0 143.5 23.5t91.5 72.5t47 125t13 180 q0 115 -13 195t-47 131t-91.5 74.5t-143.5 23.5q-88 0 -144 -23.5t-90 -74.5t-47.5 -131t-13.5 -195zM263 1178l180 215h104l178 -215h-104l-125 158l-129 -158h-104zM755 1346l174 215h121l-215 -215h-80z" />
<glyph unicode="&#xf4;&#x301;" d="M57 406q0 98 16.5 175.5t55.5 132t102.5 83t157.5 28.5q96 0 159.5 -28.5t101.5 -83t54.5 -132t16.5 -175.5t-16.5 -176t-54.5 -133.5t-101.5 -84t-159.5 -28.5q-94 0 -157.5 28.5t-102.5 84t-55.5 133t-16.5 176.5zM150 406q0 -166 49 -256.5t190 -90.5t190.5 90.5 t49.5 256.5q0 82 -11.5 146t-38 108.5t-72.5 68t-118 23.5q-70 0 -117 -23.5t-73.5 -68t-37.5 -109t-11 -145.5zM164 899l180 215h104l178 -215h-104l-125 158l-129 -158h-104zM536 1145l174 215h121l-215 -215h-80z" />
<glyph unicode="&#xd4;&#x300;" horiz-adv-x="966" d="M82 485q0 256 91 386t310 130q109 0 185.5 -32.5t125 -97t70 -162t21.5 -224.5q0 -119 -21.5 -212t-70 -156.5t-125 -96t-185.5 -32.5q-217 0 -309 129t-92 368zM188 485q0 -104 13.5 -180t47.5 -125t90 -72.5t144 -23.5q86 0 143.5 23.5t91.5 72.5t47 125t13 180 q0 115 -13 195t-47 131t-91.5 74.5t-143.5 23.5q-88 0 -144 -23.5t-90 -74.5t-47.5 -131t-13.5 -195zM256 1116l180 215h104l178 -215h-104l-125 158l-129 -158h-104zM547 1549h119l172 -215h-80z" />
<glyph unicode="&#xf4;&#x300;" d="M57 406q0 98 16.5 175.5t55.5 132t102.5 83t157.5 28.5q96 0 159.5 -28.5t101.5 -83t54.5 -132t16.5 -175.5t-16.5 -176t-54.5 -133.5t-101.5 -84t-159.5 -28.5q-94 0 -157.5 28.5t-102.5 84t-55.5 133t-16.5 176.5zM148 899l180 215h104l178 -215h-104l-125 158 l-129 -158h-104zM150 406q0 -166 49 -256.5t190 -90.5t190.5 90.5t49.5 256.5q0 82 -11.5 146t-38 108.5t-72.5 68t-118 23.5q-70 0 -117 -23.5t-73.5 -68t-37.5 -109t-11 -145.5zM432 1323h119l172 -215h-80z" />
<glyph unicode="&#xd4;&#x309;" horiz-adv-x="966" d="M82 485q0 256 91 386t310 130q109 0 185.5 -32.5t125 -97t70 -162t21.5 -224.5q0 -119 -21.5 -212t-70 -156.5t-125 -96t-185.5 -32.5q-217 0 -309 129t-92 368zM188 485q0 -104 13.5 -180t47.5 -125t90 -72.5t144 -23.5q86 0 143.5 23.5t91.5 72.5t47 125t13 180 q0 115 -13 195t-47 131t-91.5 74.5t-143.5 23.5q-88 0 -144 -23.5t-90 -74.5t-47.5 -131t-13.5 -195zM260 1171l180 215h104l178 -215h-104l-125 158l-129 -158h-104zM675 1508q47 86 146 86q55 0 94 -39t39 -94q0 -35 -15.5 -67t-36 -56.5t-40 -43t-29.5 -24.5l-59 41 q102 72 102 146q0 29 -16.5 49t-44.5 20q-49 0 -88 -57z" />
<glyph unicode="&#xf4;&#x309;" d="M57 406q0 98 16.5 175.5t55.5 132t102.5 83t157.5 28.5q96 0 159.5 -28.5t101.5 -83t54.5 -132t16.5 -175.5t-16.5 -176t-54.5 -133.5t-101.5 -84t-159.5 -28.5q-94 0 -157.5 28.5t-102.5 84t-55.5 133t-16.5 176.5zM146 899l180 215h104l178 -215h-104l-125 158 l-129 -158h-104zM150 406q0 -166 49 -256.5t190 -90.5t190.5 90.5t49.5 256.5q0 82 -11.5 146t-38 108.5t-72.5 68t-118 23.5q-70 0 -117 -23.5t-73.5 -68t-37.5 -109t-11 -145.5zM526 1243q47 86 146 86q55 0 94 -39t39 -94q0 -35 -15.5 -67t-36 -56.5t-40 -43t-29.5 -24.5 l-59 41q102 72 102 146q0 29 -16.5 49t-44.5 20q-49 0 -88 -57z" />
<glyph unicode="&#xd4;&#x303;" horiz-adv-x="966" d="M82 485q0 256 91 386t310 130q109 0 185.5 -32.5t125 -97t70 -162t21.5 -224.5q0 -119 -21.5 -212t-70 -156.5t-125 -96t-185.5 -32.5q-217 0 -309 129t-92 368zM188 485q0 -104 13.5 -180t47.5 -125t90 -72.5t144 -23.5q86 0 143.5 23.5t91.5 72.5t47 125t13 180 q0 115 -13 195t-47 131t-91.5 74.5t-143.5 23.5q-88 0 -144 -23.5t-90 -74.5t-47.5 -131t-13.5 -195zM245 1385q4 55 41 104t97 49q29 0 57.5 -11t56.5 -25q29 -12 55.5 -22.5t53.5 -10.5q33 0 49 23.5t20 52.5h58q-8 -59 -38 -105.5t-99 -46.5q-25 0 -53.5 12.5t-57.5 24.5 t-57.5 22.5t-51.5 10.5q-33 0 -50 -24.5t-21 -53.5h-60zM263 1094l180 215h104l178 -215h-104l-125 158l-129 -158h-104z" />
<glyph unicode="&#xf4;&#x303;" d="M57 406q0 98 16.5 175.5t55.5 132t102.5 83t157.5 28.5q96 0 159.5 -28.5t101.5 -83t54.5 -132t16.5 -175.5t-16.5 -176t-54.5 -133.5t-101.5 -84t-159.5 -28.5q-94 0 -157.5 28.5t-102.5 84t-55.5 133t-16.5 176.5zM131 1178q4 55 41 104t97 49q29 0 57.5 -11t56.5 -25 q29 -12 55.5 -22.5t53.5 -10.5q33 0 49 23.5t20 52.5h58q-8 -59 -38 -105.5t-99 -46.5q-25 0 -53.5 12.5t-57.5 24.5t-57.5 22.5t-51.5 10.5q-33 0 -50 -24.5t-21 -53.5h-60zM148 899l180 215h104l178 -215h-104l-125 158l-129 -158h-104zM150 406q0 -166 49 -256.5 t190 -90.5t190.5 90.5t49.5 256.5q0 82 -11.5 146t-38 108.5t-72.5 68t-118 23.5q-70 0 -117 -23.5t-73.5 -68t-37.5 -109t-11 -145.5z" />
<glyph unicode="&#xd4;&#x323;" horiz-adv-x="966" d="M82 485q0 256 91 386t310 130q109 0 185.5 -32.5t125 -97t70 -162t21.5 -224.5q0 -119 -21.5 -212t-70 -156.5t-125 -96t-185.5 -32.5q-217 0 -309 129t-92 368zM188 485q0 -104 13.5 -180t47.5 -125t90 -72.5t144 -23.5q86 0 143.5 23.5t91.5 72.5t47 125t13 180 q0 115 -13 195t-47 131t-91.5 74.5t-143.5 23.5q-88 0 -144 -23.5t-90 -74.5t-47.5 -131t-13.5 -195zM263 1124l180 215h104l178 -215h-104l-125 158l-129 -158h-104zM473 -100h133v-142h-133v142z" />
<glyph unicode="&#xf4;&#x323;" d="M57 406q0 98 16.5 175.5t55.5 132t102.5 83t157.5 28.5q96 0 159.5 -28.5t101.5 -83t54.5 -132t16.5 -175.5t-16.5 -176t-54.5 -133.5t-101.5 -84t-159.5 -28.5q-94 0 -157.5 28.5t-102.5 84t-55.5 133t-16.5 176.5zM150 406q0 -166 49 -256.5t190 -90.5t190.5 90.5 t49.5 256.5q0 82 -11.5 146t-38 108.5t-72.5 68t-118 23.5q-70 0 -117 -23.5t-73.5 -68t-37.5 -109t-11 -145.5zM150 899l180 215h104l178 -215h-104l-125 158l-129 -158h-104zM358 -100h133v-142h-133v142z" />
<glyph unicode="&#x1a0;&#x301;" horiz-adv-x="1087" d="M82 485q0 256 91 386t310 130q190 0 289 -104q66 20 89.5 60t8.5 106l97 31q16 -94 -30 -166t-124 -90q72 -125 72 -353q0 -119 -21.5 -212t-70 -156.5t-125 -96t-185.5 -32.5q-217 0 -309 129t-92 368zM188 485q0 -104 13.5 -180t47.5 -125t90 -72.5t144 -23.5 q86 0 143.5 23.5t91.5 72.5t47 125t13 180q0 115 -13 195t-47 131t-91.5 74.5t-143.5 23.5q-88 0 -144 -23.5t-90 -74.5t-47.5 -131t-13.5 -195zM448 1155l174 215h121l-215 -215h-80z" />
<glyph unicode="&#x1a1;&#x301;" horiz-adv-x="856" d="M57 406q0 98 16.5 175.5t55.5 132t102.5 83t157.5 28.5q127 0 207 -57q66 16 87.5 53t6.5 99l86 28q8 -41 2 -80t-23.5 -70.5t-45 -53t-64.5 -25.5q41 -53 58.5 -133t17.5 -180q0 -98 -16.5 -176t-54.5 -133.5t-101.5 -84t-159.5 -28.5q-94 0 -157.5 28.5t-102.5 84 t-55.5 133t-16.5 176.5zM150 406q0 -82 8 -146.5t33.5 -110t72.5 -68t125 -22.5t125 22.5t72.5 68t34 110t8.5 146.5t-8.5 146t-34 108.5t-72.5 68t-125 23.5t-125 -23.5t-72.5 -68t-33.5 -109t-8 -145.5zM299 965l174 215h121l-215 -215h-80z" />
<glyph unicode="&#x1a0;&#x300;" horiz-adv-x="1087" d="M82 485q0 256 91 386t310 130q190 0 289 -104q66 20 89.5 60t8.5 106l97 31q16 -94 -30 -166t-124 -90q72 -125 72 -353q0 -119 -21.5 -212t-70 -156.5t-125 -96t-185.5 -32.5q-217 0 -309 129t-92 368zM188 485q0 -104 13.5 -180t47.5 -125t90 -72.5t144 -23.5 q86 0 143.5 23.5t91.5 72.5t47 125t13 180q0 115 -13 195t-47 131t-91.5 74.5t-143.5 23.5q-88 0 -144 -23.5t-90 -74.5t-47.5 -131t-13.5 -195zM379 1393h119l172 -215h-80z" />
<glyph unicode="&#x1a1;&#x300;" horiz-adv-x="856" d="M57 406q0 98 16.5 175.5t55.5 132t102.5 83t157.5 28.5q127 0 207 -57q66 16 87.5 53t6.5 99l86 28q8 -41 2 -80t-23.5 -70.5t-45 -53t-64.5 -25.5q41 -53 58.5 -133t17.5 -180q0 -98 -16.5 -176t-54.5 -133.5t-101.5 -84t-159.5 -28.5q-94 0 -157.5 28.5t-102.5 84 t-55.5 133t-16.5 176.5zM150 406q0 -82 8 -146.5t33.5 -110t72.5 -68t125 -22.5t125 22.5t72.5 68t34 110t8.5 146.5t-8.5 146t-34 108.5t-72.5 68t-125 23.5t-125 -23.5t-72.5 -68t-33.5 -109t-8 -145.5zM264 1178h119l172 -215h-80z" />
<glyph unicode="&#x1a0;&#x309;" horiz-adv-x="1087" d="M82 485q0 256 91 386t310 130q190 0 289 -104q66 20 89.5 60t8.5 106l97 31q16 -94 -30 -166t-124 -90q72 -125 72 -353q0 -119 -21.5 -212t-70 -156.5t-125 -96t-185.5 -32.5q-217 0 -309 129t-92 368zM188 485q0 -104 13.5 -180t47.5 -125t90 -72.5t144 -23.5 q86 0 143.5 23.5t91.5 72.5t47 125t13 180q0 115 -13 195t-47 131t-91.5 74.5t-143.5 23.5q-88 0 -144 -23.5t-90 -74.5t-47.5 -131t-13.5 -195zM401 1377q47 86 146 86q55 0 94 -39t39 -94q0 -35 -15.5 -67t-36 -56.5t-40 -43t-29.5 -24.5l-59 41q102 72 102 146 q0 29 -16.5 49t-44.5 20q-49 0 -88 -57z" />
<glyph unicode="&#x1a1;&#x309;" horiz-adv-x="856" d="M57 406q0 98 16.5 175.5t55.5 132t102.5 83t157.5 28.5q127 0 207 -57q66 16 87.5 53t6.5 99l86 28q8 -41 2 -80t-23.5 -70.5t-45 -53t-64.5 -25.5q41 -53 58.5 -133t17.5 -180q0 -98 -16.5 -176t-54.5 -133.5t-101.5 -84t-159.5 -28.5q-94 0 -157.5 28.5t-102.5 84 t-55.5 133t-16.5 176.5zM150 406q0 -82 8 -146.5t33.5 -110t72.5 -68t125 -22.5t125 22.5t72.5 68t34 110t8.5 146.5t-8.5 146t-34 108.5t-72.5 68t-125 23.5t-125 -23.5t-72.5 -68t-33.5 -109t-8 -145.5zM286 1098q47 86 146 86q55 0 94 -39t39 -94q0 -35 -15.5 -67 t-36 -56.5t-40 -43t-29.5 -24.5l-59 41q102 72 102 146q0 29 -16.5 49t-44.5 20q-49 0 -88 -57z" />
<glyph unicode="&#x1a0;&#x303;" horiz-adv-x="1087" d="M82 485q0 256 91 386t310 130q190 0 289 -104q66 20 89.5 60t8.5 106l97 31q16 -94 -30 -166t-124 -90q72 -125 72 -353q0 -119 -21.5 -212t-70 -156.5t-125 -96t-185.5 -32.5q-217 0 -309 129t-92 368zM188 485q0 -104 13.5 -180t47.5 -125t90 -72.5t144 -23.5 q86 0 143.5 23.5t91.5 72.5t47 125t13 180q0 115 -13 195t-47 131t-91.5 74.5t-143.5 23.5q-88 0 -144 -23.5t-90 -74.5t-47.5 -131t-13.5 -195zM250 1297q4 55 41 104t97 49q29 0 57.5 -11t56.5 -25q29 -12 55.5 -22.5t53.5 -10.5q33 0 49 23.5t20 52.5h58 q-8 -59 -38 -105.5t-99 -46.5q-25 0 -53.5 12.5t-57.5 24.5t-57.5 22.5t-51.5 10.5q-33 0 -50 -24.5t-21 -53.5h-60z" />
<glyph unicode="&#x1a1;&#x303;" horiz-adv-x="856" d="M57 406q0 98 16.5 175.5t55.5 132t102.5 83t157.5 28.5q127 0 207 -57q66 16 87.5 53t6.5 99l86 28q8 -41 2 -80t-23.5 -70.5t-45 -53t-64.5 -25.5q41 -53 58.5 -133t17.5 -180q0 -98 -16.5 -176t-54.5 -133.5t-101.5 -84t-159.5 -28.5q-94 0 -157.5 28.5t-102.5 84 t-55.5 133t-16.5 176.5zM135 1018q4 55 41 104t97 49q29 0 57.5 -11t56.5 -25q29 -12 55.5 -22.5t53.5 -10.5q33 0 49 23.5t20 52.5h58q-8 -59 -38 -105.5t-99 -46.5q-25 0 -53.5 12.5t-57.5 24.5t-57.5 22.5t-51.5 10.5q-33 0 -50 -24.5t-21 -53.5h-60zM150 406 q0 -82 8 -146.5t33.5 -110t72.5 -68t125 -22.5t125 22.5t72.5 68t34 110t8.5 146.5t-8.5 146t-34 108.5t-72.5 68t-125 23.5t-125 -23.5t-72.5 -68t-33.5 -109t-8 -145.5z" />
<glyph unicode="&#x1a0;&#x323;" horiz-adv-x="1087" d="M82 485q0 256 91 386t310 130q190 0 289 -104q66 20 89.5 60t8.5 106l97 31q16 -94 -30 -166t-124 -90q72 -125 72 -353q0 -119 -21.5 -212t-70 -156.5t-125 -96t-185.5 -32.5q-217 0 -309 129t-92 368zM188 485q0 -104 13.5 -180t47.5 -125t90 -72.5t144 -23.5 q86 0 143.5 23.5t91.5 72.5t47 125t13 180q0 115 -13 195t-47 131t-91.5 74.5t-143.5 23.5q-88 0 -144 -23.5t-90 -74.5t-47.5 -131t-13.5 -195zM477 -100h133v-142h-133v142z" />
<glyph unicode="&#x1a1;&#x323;" horiz-adv-x="856" d="M57 406q0 98 16.5 175.5t55.5 132t102.5 83t157.5 28.5q127 0 207 -57q66 16 87.5 53t6.5 99l86 28q8 -41 2 -80t-23.5 -70.5t-45 -53t-64.5 -25.5q41 -53 58.5 -133t17.5 -180q0 -98 -16.5 -176t-54.5 -133.5t-101.5 -84t-159.5 -28.5q-94 0 -157.5 28.5t-102.5 84 t-55.5 133t-16.5 176.5zM150 406q0 -82 8 -146.5t33.5 -110t72.5 -68t125 -22.5t125 22.5t72.5 68t34 110t8.5 146.5t-8.5 146t-34 108.5t-72.5 68t-125 23.5t-125 -23.5t-72.5 -68t-33.5 -109t-8 -145.5zM362 -100h133v-142h-133v142z" />
<glyph unicode="U&#x323;" horiz-adv-x="974" d="M133 330v665h102v-506q0 -61 -2 -111t-2 -91q0 -47 6 -85t29 -61q33 -35 99.5 -51t144.5 -16q76 0 148.5 16t103.5 51q23 23 28.5 61t5.5 85q0 41 -2 91t-2 111v506h103v-665q0 -96 -10.5 -148.5t-43.5 -93.5q-31 -33 -73.5 -52.5t-88.5 -30.5t-91.5 -14t-77.5 -3 q-33 0 -77 3t-89 13t-87 30.5t-71 53.5q-35 39 -44 92t-9 150zM422 -100h133v-142h-133v142z" />
<glyph unicode="u&#x323;" horiz-adv-x="829" d="M129 256v553h92v-543q0 -100 35 -153.5t129 -53.5q78 0 144.5 42t113.5 114v594h94v-641q0 -72 7.5 -101.5t13.5 -50.5q-16 -8 -30.5 -12t-31.5 -4q-8 0 -19 3t-18 13q-4 8 -6 25.5t-4 38.5q-2 22 -2 49q-35 -70 -111.5 -107.5t-166.5 -37.5q-129 0 -184.5 70.5 t-55.5 201.5zM348 -100h133v-142h-133v142z" />
<glyph unicode="U&#x309;" horiz-adv-x="974" d="M133 330v665h102v-506q0 -61 -2 -111t-2 -91q0 -47 6 -85t29 -61q33 -35 99.5 -51t144.5 -16q76 0 148.5 16t103.5 51q23 23 28.5 61t5.5 85q0 41 -2 91t-2 111v506h103v-665q0 -96 -10.5 -148.5t-43.5 -93.5q-31 -33 -73.5 -52.5t-88.5 -30.5t-91.5 -14t-77.5 -3 q-33 0 -77 3t-89 13t-87 30.5t-71 53.5q-35 39 -44 92t-9 150zM346 1274q47 86 146 86q55 0 94 -39t39 -94q0 -35 -15.5 -67t-36 -56.5t-40 -43t-29.5 -24.5l-59 41q102 72 102 146q0 29 -16.5 49t-44.5 20q-49 0 -88 -57z" />
<glyph unicode="u&#x309;" horiz-adv-x="829" d="M129 256v553h92v-543q0 -100 35 -153.5t129 -53.5q78 0 144.5 42t113.5 114v594h94v-641q0 -72 7.5 -101.5t13.5 -50.5q-16 -8 -30.5 -12t-31.5 -4q-8 0 -19 3t-18 13q-4 8 -6 25.5t-4 38.5q-2 22 -2 49q-35 -70 -111.5 -107.5t-166.5 -37.5q-129 0 -184.5 70.5 t-55.5 201.5zM272 1098q47 86 146 86q55 0 94 -39t39 -94q0 -35 -15.5 -67t-36 -56.5t-40 -43t-29.5 -24.5l-59 41q102 72 102 146q0 29 -16.5 49t-44.5 20q-49 0 -88 -57z" />
<glyph unicode="&#x1af;&#x301;" horiz-adv-x="1030" d="M123 330v665h102v-506q0 -61 -2 -111t-2 -91q0 -47 6 -85t29 -61q33 -35 99.5 -51t144.5 -16q76 0 148.5 16t103.5 51q23 23 28.5 61t5.5 85q0 41 -2 91t-2 111v506h103v-135q39 2 63.5 22.5t36.5 50.5t13 64.5t-5 65.5l97 31q8 -61 -3.5 -115.5t-38 -97.5t-67.5 -69 t-96 -28v-454q0 -96 -10.5 -148.5t-43.5 -93.5q-31 -33 -73.5 -52.5t-88.5 -30.5t-91.5 -14t-77.5 -3q-33 0 -77 3t-89 13t-87 30.5t-71 53.5q-35 39 -44 92t-9 150zM448 1098l174 215h121l-215 -215h-80z" />
<glyph unicode="&#x1b0;&#x301;" horiz-adv-x="886" d="M129 256v553h92v-543q0 -100 35 -153.5t129 -53.5q39 0 69.5 11.5t59.5 32t59.5 49t69.5 63.5v594h94v-115q31 10 49.5 28.5t27.5 43.5t10 51.5t-3 52.5l86 21q8 -98 -31.5 -172t-138.5 -96v-623h-94v129q-66 -70 -125 -107.5t-149 -37.5q-129 0 -184.5 70.5t-55.5 201.5 zM315 965l174 215h121l-215 -215h-80z" />
<glyph unicode="&#x1af;&#x300;" horiz-adv-x="1030" d="M123 330v665h102v-506q0 -61 -2 -111t-2 -91q0 -47 6 -85t29 -61q33 -35 99.5 -51t144.5 -16q76 0 148.5 16t103.5 51q23 23 28.5 61t5.5 85q0 41 -2 91t-2 111v506h103v-135q39 2 63.5 22.5t36.5 50.5t13 64.5t-5 65.5l97 31q8 -61 -3.5 -115.5t-38 -97.5t-67.5 -69 t-96 -28v-454q0 -96 -10.5 -148.5t-43.5 -93.5q-31 -33 -73.5 -52.5t-88.5 -30.5t-91.5 -14t-77.5 -3q-33 0 -77 3t-89 13t-87 30.5t-71 53.5q-35 39 -44 92t-9 150zM309 1313h119l172 -215h-80z" />
<glyph unicode="&#x1b0;&#x300;" horiz-adv-x="886" d="M129 256v553h92v-543q0 -100 35 -153.5t129 -53.5q39 0 69.5 11.5t59.5 32t59.5 49t69.5 63.5v594h94v-115q31 10 49.5 28.5t27.5 43.5t10 51.5t-3 52.5l86 21q8 -98 -31.5 -172t-138.5 -96v-623h-94v129q-66 -70 -125 -107.5t-149 -37.5q-129 0 -184.5 70.5t-55.5 201.5 zM278 1178h119l172 -215h-80z" />
<glyph unicode="&#x1af;&#x309;" horiz-adv-x="1030" d="M123 330v665h102v-506q0 -61 -2 -111t-2 -91q0 -47 6 -85t29 -61q33 -35 99.5 -51t144.5 -16q76 0 148.5 16t103.5 51q23 23 28.5 61t5.5 85q0 41 -2 91t-2 111v506h103v-135q39 2 63.5 22.5t36.5 50.5t13 64.5t-5 65.5l97 31q8 -61 -3.5 -115.5t-38 -97.5t-67.5 -69 t-96 -28v-454q0 -96 -10.5 -148.5t-43.5 -93.5q-31 -33 -73.5 -52.5t-88.5 -30.5t-91.5 -14t-77.5 -3q-33 0 -77 3t-89 13t-87 30.5t-71 53.5q-35 39 -44 92t-9 150zM372 1295q47 86 146 86q55 0 94 -39t39 -94q0 -35 -15.5 -67t-36 -56.5t-40 -43t-29.5 -24.5l-59 41 q102 72 102 146q0 29 -16.5 49t-44.5 20q-49 0 -88 -57z" />
<glyph unicode="&#x1b0;&#x309;" horiz-adv-x="886" d="M129 256v553h92v-543q0 -100 35 -153.5t129 -53.5q39 0 69.5 11.5t59.5 32t59.5 49t69.5 63.5v594h94v-115q31 10 49.5 28.5t27.5 43.5t10 51.5t-3 52.5l86 21q8 -98 -31.5 -172t-138.5 -96v-623h-94v129q-66 -70 -125 -107.5t-149 -37.5q-129 0 -184.5 70.5t-55.5 201.5 zM301 1211q47 86 146 86q55 0 94 -39t39 -94q0 -35 -15.5 -67t-36 -56.5t-40 -43t-29.5 -24.5l-59 41q102 72 102 146q0 29 -16.5 49t-44.5 20q-49 0 -88 -57z" />
<glyph unicode="&#x1af;&#x303;" horiz-adv-x="1030" d="M123 330v665h102v-506q0 -61 -2 -111t-2 -91q0 -47 6 -85t29 -61q33 -35 99.5 -51t144.5 -16q76 0 148.5 16t103.5 51q23 23 28.5 61t5.5 85q0 41 -2 91t-2 111v506h103v-135q39 2 63.5 22.5t36.5 50.5t13 64.5t-5 65.5l97 31q8 -61 -3.5 -115.5t-38 -97.5t-67.5 -69 t-96 -28v-454q0 -96 -10.5 -148.5t-43.5 -93.5q-31 -33 -73.5 -52.5t-88.5 -30.5t-91.5 -14t-77.5 -3q-33 0 -77 3t-89 13t-87 30.5t-71 53.5q-35 39 -44 92t-9 150zM262 1116q4 55 41 104t97 49q29 0 57.5 -11t56.5 -25q29 -12 55.5 -22.5t53.5 -10.5q33 0 49 23.5t20 52.5 h58q-8 -59 -38 -105.5t-99 -46.5q-25 0 -53.5 12.5t-57.5 24.5t-57.5 22.5t-51.5 10.5q-33 0 -50 -24.5t-21 -53.5h-60z" />
<glyph unicode="&#x1b0;&#x303;" horiz-adv-x="886" d="M129 256v553h92v-543q0 -100 35 -153.5t129 -53.5q39 0 69.5 11.5t59.5 32t59.5 49t69.5 63.5v594h94v-115q31 10 49.5 28.5t27.5 43.5t10 51.5t-3 52.5l86 21q8 -98 -31.5 -172t-138.5 -96v-623h-94v129q-66 -70 -125 -107.5t-149 -37.5q-129 0 -184.5 70.5t-55.5 201.5 zM186 1018q4 55 41 104t97 49q29 0 57.5 -11t56.5 -25q29 -12 55.5 -22.5t53.5 -10.5q33 0 49 23.5t20 52.5h58q-8 -59 -38 -105.5t-99 -46.5q-25 0 -53.5 12.5t-57.5 24.5t-57.5 22.5t-51.5 10.5q-33 0 -50 -24.5t-21 -53.5h-60z" />
<glyph unicode="&#x1af;&#x323;" horiz-adv-x="1030" d="M123 330v665h102v-506q0 -61 -2 -111t-2 -91q0 -47 6 -85t29 -61q33 -35 99.5 -51t144.5 -16q76 0 148.5 16t103.5 51q23 23 28.5 61t5.5 85q0 41 -2 91t-2 111v506h103v-135q39 2 63.5 22.5t36.5 50.5t13 64.5t-5 65.5l97 31q8 -61 -3.5 -115.5t-38 -97.5t-67.5 -69 t-96 -28v-454q0 -96 -10.5 -148.5t-43.5 -93.5q-31 -33 -73.5 -52.5t-88.5 -30.5t-91.5 -14t-77.5 -3q-33 0 -77 3t-89 13t-87 30.5t-71 53.5q-35 39 -44 92t-9 150zM448 -100h133v-142h-133v142z" />
<glyph unicode="&#x1b0;&#x323;" horiz-adv-x="886" d="M129 256v553h92v-543q0 -100 35 -153.5t129 -53.5q39 0 69.5 11.5t59.5 32t59.5 49t69.5 63.5v594h94v-115q31 10 49.5 28.5t27.5 43.5t10 51.5t-3 52.5l86 21q8 -98 -31.5 -172t-138.5 -96v-623h-94v129q-66 -70 -125 -107.5t-149 -37.5q-129 0 -184.5 70.5t-55.5 201.5 zM377 -100h133v-142h-133v142z" />
<glyph unicode="Y&#x300;" horiz-adv-x="866" d="M41 995h111l282 -522l281 522h110l-342 -606v-389h-102v389zM211 1340h119l172 -215h-80z" />
<glyph unicode="y&#x300;" horiz-adv-x="690" d="M10.5 -251q-2.5 15 1.5 31.5t10.5 32t12.5 19.5q23 -16 42 -28.5t48 -12.5q47 0 93 48t81 173l-279 797h101l223 -657h2l225 657h103l-303 -868q-41 -117 -95.5 -172.5t-162.5 -55.5q-31 0 -51.5 5.5t-36.5 11.5q-12 4 -14.5 19zM180 1178h119l172 -215h-80z" />
<glyph unicode="Y&#x323;" horiz-adv-x="866" d="M41 995h111l282 -522l281 522h110l-342 -606v-389h-102v389zM368 -100h133v-142h-133v142z" />
<glyph unicode="y&#x323;" horiz-adv-x="690" d="M10.5 -251q-2.5 15 1.5 31.5t10.5 32t12.5 19.5q23 -16 42 -28.5t48 -12.5q47 0 93 48t81 173l-279 797h101l223 -657h2l225 657h103l-303 -868q-41 -117 -95.5 -172.5t-162.5 -55.5q-31 0 -51.5 5.5t-36.5 11.5q-12 4 -14.5 19zM432 -100h133v-142h-133v142z" />
<glyph unicode="Y&#x309;" horiz-adv-x="866" d="M41 995h111l282 -522l281 522h110l-342 -606v-389h-102v389zM295 1276q47 86 146 86q55 0 94 -39t39 -94q0 -35 -15.5 -67t-36 -56.5t-40 -43t-29.5 -24.5l-59 41q102 72 102 146q0 29 -16.5 49t-44.5 20q-49 0 -88 -57z" />
<glyph unicode="y&#x309;" horiz-adv-x="690" d="M10.5 -251q-2.5 15 1.5 31.5t10.5 32t12.5 19.5q23 -16 42 -28.5t48 -12.5q47 0 93 48t81 173l-279 797h101l223 -657h2l225 657h103l-303 -868q-41 -117 -95.5 -172.5t-162.5 -55.5q-31 0 -51.5 5.5t-36.5 11.5q-12 4 -14.5 19zM204 1209q47 86 146 86q55 0 94 -39 t39 -94q0 -35 -15.5 -67t-36 -56.5t-40 -43t-29.5 -24.5l-59 41q102 72 102 146q0 29 -16.5 49t-44.5 20q-49 0 -88 -57z" />
<glyph unicode="Y&#x303;" horiz-adv-x="866" d="M41 995h111l282 -522l281 522h110l-342 -606v-389h-102v389zM190 1161q4 55 41 104t97 49q29 0 57.5 -11t56.5 -25q29 -12 55.5 -22.5t53.5 -10.5q33 0 49 23.5t20 52.5h58q-8 -59 -38 -105.5t-99 -46.5q-25 0 -53.5 12.5t-57.5 24.5t-57.5 22.5t-51.5 10.5 q-33 0 -50 -24.5t-21 -53.5h-60z" />
<glyph unicode="y&#x303;" horiz-adv-x="690" d="M10.5 -251q-2.5 15 1.5 31.5t10.5 32t12.5 19.5q23 -16 42 -28.5t48 -12.5q47 0 93 48t81 173l-279 797h101l223 -657h2l225 657h103l-303 -868q-41 -117 -95.5 -172.5t-162.5 -55.5q-31 0 -51.5 5.5t-36.5 11.5q-12 4 -14.5 19zM104 1018q4 55 41 104t97 49 q29 0 57.5 -11t56.5 -25q29 -12 55.5 -22.5t53.5 -10.5q33 0 49 23.5t20 52.5h58q-8 -59 -38 -105.5t-99 -46.5q-25 0 -53.5 12.5t-57.5 24.5t-57.5 22.5t-51.5 10.5q-33 0 -50 -24.5t-21 -53.5h-60z" />
<glyph unicode="&#xe4f;&#x22;" horiz-adv-x="985" d="M113 432q0 84 31.5 153.5t84 119t121 77t144.5 27.5q74 0 142.5 -27.5t120.5 -77t83.5 -119t31.5 -153.5q0 -82 -31.5 -150.5t-83.5 -117.5t-121 -77t-142 -28q-76 0 -144.5 28t-121 77t-84 117.5t-31.5 150.5zM201 432q0 -61 22.5 -114.5t62.5 -93.5t93.5 -62.5 t114.5 -22.5q59 0 112 22.5t93 62.5t62.5 93.5t22.5 114.5t-22.5 115.5t-62.5 94.5t-93 63.5t-112 23.5q-61 0 -114.5 -23.5t-93.5 -63.5t-62.5 -94t-22.5 -116zM315 438q0 74 53.5 126t127.5 52t127 -52t53 -126q0 -78 -53.5 -129t-126.5 -51q-74 0 -127.5 51t-53.5 129z M348 1114h105l-9 -235h-63zM391 438q0 -45 31 -75.5t74 -30.5t73.5 30.5t30.5 75.5q0 41 -30.5 72t-73.5 31t-74 -31t-31 -72zM524 1114h105l-33 -235h-64z" />
<glyph unicode="&#xe24;&#xe32;" horiz-adv-x="1349" d="M102 653q0 18 24 49t68 60t104 49t134 20q88 0 156.5 -24.5t109.5 -87.5q25 23 56.5 42t65.5 35.5t67 25.5t63 9q57 0 107.5 -14t88.5 -45t59.5 -81t21.5 -122q0 -66 -1 -124t-1 -121v-62.5t1 -112t1 -134t1 -132t3 -106.5t4 -56q4 -20 -1 -24t-13 -4h-74q0 150 -2 276 q0 53 -1 107.5t-2 101.5t-1 83v52q0 66 2 125.5t2 130.5q0 68 -23.5 106t-55.5 56.5t-61.5 23.5t-41.5 5q-72 0 -125.5 -35t-104.5 -92q6 -27 10.5 -57.5t4.5 -65.5v-817h-82v817q0 80 -15.5 128t-45.5 75.5t-73 37t-100 9.5q-51 0 -96 -12.5t-79 -30t-54.5 -33.5t-20.5 -27 q0 -6 7.5 -18t18.5 -24.5t21.5 -21.5t16.5 -9q16 0 34.5 13t36.5 13q6 0 14.5 -10t14.5 -22.5t7 -22.5t-7 -10q-31 0 -54.5 -6.5t-39.5 -25.5t-25.5 -55t-9.5 -93v-207q0 -47 18.5 -73t49.5 -26q35 0 53 22.5t18 53.5t-17 52.5t-48 21.5h-58v33l58 39q59 0 99 -42t40 -104 q0 -61 -42 -104t-103 -43q-70 0 -110 48t-40 148v181q0 78 15.5 113.5t50.5 70.5q-8 4 -24.5 16.5t-33 27.5t-29 31.5t-12.5 28.5z" />
<glyph unicode="&#xe26;&#xe32;" horiz-adv-x="1406" d="M51 131q0 61 36 101t93 40l47 -34v-33h-47q-31 0 -44 -21.5t-13 -52.5t18.5 -51.5t53.5 -20.5q31 0 51 20.5t20 67.5q0 72 -22.5 140.5t-22.5 130.5q0 49 10.5 77.5t34.5 53.5q-8 4 -24.5 16.5t-32.5 27.5t-28.5 31.5t-12.5 28.5q0 18 23.5 49t67.5 60t104.5 49t134.5 20 q86 0 154.5 -23.5t109.5 -84.5q51 41 118.5 74.5t127.5 33.5q57 0 107 -14t88 -45t59.5 -81t21.5 -122q0 -66 -1 -124t-1 -121v-62.5t1 -112t1 -134t1 -132t3 -106.5t4 -56q4 -20 -1 -24t-13 -4h-74q0 150 -2 276q0 53 -1 107.5t-2 101.5t-1 83v52q0 66 2 125.5t2 130.5 q0 68 -23.5 106t-55 56.5t-61.5 23.5t-42 5q-68 0 -121 -33t-102 -86q16 -59 16 -131v-817h-82v817q0 80 -15.5 128t-45 75.5t-72.5 37t-100 9.5q-51 0 -96.5 -12.5t-79 -30t-54 -33.5t-20.5 -27q0 -6 7 -18t18.5 -24.5t21.5 -21.5t16 -9q16 0 35 13t37 13q6 0 14.5 -10 t14.5 -22.5t7 -22.5t-7 -10q-59 0 -84 -25.5t-25 -103.5q0 -35 7 -73t14.5 -74t14.5 -67.5t7 -54.5q0 -78 -40 -118.5t-111 -40.5q-61 0 -102.5 41t-41.5 102z" />
<glyph unicode="fi" d="M16 735v74h134v115q0 106 45 161.5t149 55.5q25 0 49.5 -5.5t52.5 -9.5v-77q-23 8 -45 12t-47 4q-55 0 -82.5 -28.5t-27.5 -100.5v-127h166v-74h-166v-735h-94v735h-134zM559 0v809h92v-809h-92zM559 987v137h92v-137h-92z" />
<glyph unicode="fl" d="M16 735v74h134v115q0 106 45 161.5t149 55.5q25 0 49.5 -5.5t52.5 -9.5v-77q-23 8 -45 12t-47 4q-55 0 -82.5 -28.5t-27.5 -100.5v-127h166v-74h-166v-735h-94v735h-134zM559 0v1124h92v-1124h-92z" />
<glyph unicode="B&#x35;&#x31;&#x33;DS&#x21;GN" horiz-adv-x="6897" d="M125 0v995h354q78 0 131.5 -17t86 -47t47 -70t14.5 -87q0 -82 -34 -131.5t-87 -67.5q39 -8 71.5 -34.5t56 -62.5t37 -78t13.5 -83q0 -68 -18.5 -126t-58.5 -100t-104.5 -66.5t-158.5 -24.5h-350zM227 86h228q143 0 200.5 55.5t57.5 175.5q0 100 -60.5 156.5t-218.5 56.5 h-207v-444zM231 612h207q80 0 123 12.5t64.5 34t25.5 51t4 64.5q0 59 -35.5 94t-140.5 35h-248v-291zM934 162l70 45q18 -39 47.5 -65.5t64.5 -42t73 -22.5t75 -7q63 0 109 22.5t76 59t44 85t14 101.5q0 125 -59 188.5t-166 63.5q-29 0 -66.5 -7.5t-72.5 -20.5t-64.5 -34.5 t-42.5 -52.5l-69 10l43 512h970v-919h187q59 0 106 -1t89 -3t83 -3t86 -1q117 0 170.5 61.5t53.5 159.5q0 102 -66 163.5t-197 61.5h-84v84h70q127 0 186.5 41t59.5 135q0 86 -45 117t-142 31q-66 0 -114.5 -29t-98.5 -88l-69 53q66 78 140.5 112t150.5 34q53 0 101 -10.5 t86 -36t60.5 -68.5t22.5 -109q0 -94 -33 -146t-117 -75q78 -16 129.5 -85.5t51.5 -180.5q0 -147 -83 -227t-237 -80q-57 0 -101 2t-84 4t-82 4t-93 2h-453v78h174v837h-801l-26 -311q43 41 107.5 55.5t127.5 14.5q68 0 123.5 -25.5t95 -69.5t62 -104.5t22.5 -130.5 q0 -76 -24.5 -141.5t-68.5 -113.5t-107.5 -74.5t-143.5 -26.5q-43 0 -91 11t-92 32.5t-81 54.5t-57 76zM3070 0v995h309q219 0 331 -128t112 -384q0 -242 -112 -362.5t-331 -120.5h-309zM3172 86h207q174 0 257 94t83 303q0 227 -83 326.5t-257 99.5h-207v-823zM3938 295 l97 29q33 -131 110.5 -190.5t212.5 -59.5q106 0 166.5 45t60.5 147q0 68 -46 106t-113.5 62.5t-148.5 45t-148.5 52t-113.5 84t-46 142.5q0 117 84 179t244 62q135 0 229 -69.5t135 -202.5l-90 -27q-31 96 -97.5 155.5t-176.5 59.5q-225 0 -226 -157q0 -68 46.5 -106 t114 -63.5t148.5 -45t148.5 -50t113.5 -79.5t46 -133q0 -147 -86 -220t-246 -73q-174 0 -272.5 73.5t-145.5 233.5zM4854 0v141h137v-141h-137zM4854 995h137l-29 -702h-80zM5165 496q0 135 18.5 231t62.5 158.5t116.5 91.5t179.5 29q68 0 144.5 -21.5t131.5 -64.5l-63 -78 q-47 41 -100.5 57t-114.5 16q-86 0 -140.5 -23.5t-85 -73.5t-41 -130t-10.5 -192q0 -113 10.5 -192t41 -130t85 -74.5t140.5 -23.5q61 0 114.5 16.5t100.5 57.5v294h-197v86h293v-419q-41 -43 -117.5 -84t-191.5 -41q-106 0 -179 28.5t-117 91t-62.5 158.5t-18.5 232z M6046 0v995h170l456 -811v811h103v-995h-103l-524 909v-909h-102z" />
<glyph unicode="&#xd;" horiz-adv-x="442" />
<glyph unicode=" "  horiz-adv-x="512" />
<glyph unicode="&#x09;" horiz-adv-x="512" />
<glyph unicode="&#xa0;" horiz-adv-x="512" />
<glyph unicode="!" horiz-adv-x="350" d="M106 0v141h138v-141h-138zM106 995h138l-29 -702h-80z" />
<glyph unicode="&#x22;" horiz-adv-x="460" d="M113 719v330h71v-330h-71zM276 719v330h72v-330h-72z" />
<glyph unicode="#" horiz-adv-x="737" d="M35 313v64h164l30 207h-157v63h164l45 311h67l-45 -311h195l43 311h67l-43 -311h140v-63h-152l-29 -207h144v-64h-152l-45 -313h-65l45 313h-195l-45 -313h-66l45 313h-155zM264 377h195l30 207h-196z" />
<glyph unicode="$" horiz-adv-x="866" d="M45 227l74 52q37 -84 108.5 -144.5t169.5 -60.5v401q-55 16 -111.5 34.5t-100.5 48.5t-71.5 75t-27.5 112q0 72 23.5 120t65.5 78t99.5 43t122.5 15v150h74v-150q53 -2 100 -19t86 -44t67 -58.5t42 -62.5q-2 0 -11.5 -8t-20.5 -17.5t-21.5 -17.5t-14.5 -10 q-37 68 -93 108.5t-134 51.5v-377q59 -16 118.5 -37t107.5 -53.5t79 -81.5t31 -123q0 -72 -27.5 -120t-75 -76.5t-107.5 -42t-126 -13.5v-184h-74v184q-115 4 -209 63.5t-143 163.5zM170 752q0 -51 19.5 -82t52 -49.5t72.5 -29.5t83 -22v357q-45 0 -86 -9.5t-72.5 -30 t-50 -54t-18.5 -80.5zM471 74q49 0 94 11t80 32.5t56.5 56.5t21.5 82q0 51 -23.5 83t-60.5 53.5t-81 35.5t-87 29v-383z" />
<glyph unicode="%" horiz-adv-x="1222" d="M113 768q0 47 17 88t48 71.5t72 49t86 18.5q47 0 89 -18.5t72.5 -49t48 -71.5t17.5 -88t-17.5 -88t-48 -71.5t-72.5 -48t-89 -17.5q-45 0 -86 17.5t-72 48t-48 71.5t-17 88zM186 768q-2 -63 43 -107.5t107 -44.5q66 0 109.5 44.5t43.5 107.5q0 66 -43.5 109t-109.5 43 q-61 0 -106.5 -43t-43.5 -109zM285 -14l569 1024h86l-571 -1024h-84zM657 225q0 47 18.5 88t49.5 72t72 48.5t86 17.5q47 0 88 -17.5t71.5 -48.5t49 -72t18.5 -88q0 -45 -18.5 -86t-49 -71.5t-71.5 -49t-88 -18.5q-45 0 -86 18.5t-72 49t-49.5 71.5t-18.5 86zM733 225 q-2 -63 42 -107t108 -44q66 0 110.5 44t42.5 107q2 63 -42.5 108.5t-110.5 45.5q-63 0 -107.5 -45t-42.5 -109z" />
<glyph unicode="&#x26;" horiz-adv-x="976" d="M57 244q0 55 13.5 97t41 79t71.5 72.5t106 76.5q-35 53 -56.5 111.5t-21.5 120.5q0 100 54 154.5t149 54.5q86 0 141 -50.5t55 -142.5q0 -49 -17.5 -90t-46 -75t-65.5 -62.5t-73 -54.5q59 -84 113 -167t118 -151q37 57 63.5 120.5t38.5 129.5l86 -16q-35 -162 -125 -293 q35 -35 77 -60.5t95 -27.5v-84q-68 4 -126 32.5t-107 75.5q-55 -53 -129 -80.5t-154 -27.5q-57 0 -112.5 16t-96 48t-66.5 81t-26 113zM150 238q0 -43 18 -77t49 -56.5t69 -34t76 -11.5q43 0 79 10.5t63.5 25t47 31.5t32.5 30q-25 25 -60 67.5t-70.5 92t-68.5 97.5t-55 83 q-82 -47 -131 -102.5t-49 -155.5zM299 791q0 -47 17.5 -94.5t45.5 -88.5q66 37 112 95.5t46 119.5q0 47 -26.5 79t-83.5 32q-49 0 -80 -33.5t-31 -109.5z" />
<glyph unicode="'" horiz-adv-x="317" d="M123 719v330h72v-330h-72z" />
<glyph unicode="(" horiz-adv-x="552" d="M113 541q0 80 14 167t43 174t72 172t100 160h119q-63 -76 -110.5 -160.5t-78 -171.5t-45 -174t-14.5 -167q0 -82 14.5 -169t45 -174t77.5 -173t111 -162h-119q-57 76 -100 162t-72 173t-43 174t-14 169z" />
<glyph unicode=")" horiz-adv-x="552" d="M92 -137q66 76 113 162t77.5 173t45 174t14.5 169q0 80 -14.5 167t-45 174t-77.5 172t-113 160h119q57 -76 100 -160.5t72 -171.5t43 -174t14 -167q0 -82 -14 -169t-43 -174t-72 -173t-100 -162h-119z" />
<glyph unicode="*" horiz-adv-x="878" d="M143 1051l33 94l240 -92l-25 256h98l-20 -256l236 96l30 -90l-254 -62l164 -186l-80 -63l-123 223l-127 -223l-82 53l170 196z" />
<glyph unicode="+" horiz-adv-x="1044" d="M102 418v86h375v375h82v-375h375v-86h-375v-375h-82v375h-375z" />
<glyph unicode="," horiz-adv-x="438" d="M127 -238l90 238h-67v141h139v-141l-103 -238h-59z" />
<glyph unicode="-" horiz-adv-x="681" d="M86 436v92h510v-92h-510z" />
<glyph unicode="." horiz-adv-x="438" d="M150 0v141h139v-141h-139z" />
<glyph unicode="/" horiz-adv-x="460" d="M0 -78l412 1231h90l-404 -1231h-98z" />
<glyph unicode="0" horiz-adv-x="856" d="M63 457q0 117 19.5 207t62.5 151.5t113 93t170 31.5q199 0 282 -125t83 -358q0 -109 -19.5 -196t-63.5 -147.5t-114 -92t-168 -31.5t-168 31.5t-114 92t-63.5 147.5t-19.5 196zM156 457q0 -94 12 -166t44 -120t84 -72.5t132 -24.5t132 24.5t83 72.5t44 119.5t13 166.5 q0 102 -13 178t-44 125t-83 73.5t-132 24.5t-132 -24.5t-84 -73.5t-44 -125t-12 -178z" />
<glyph unicode="1" horiz-adv-x="653" d="M111 0v78h174v735l-164 -37v72l207 88h49v-858h166v-78h-432z" />
<glyph unicode="2" horiz-adv-x="763" d="M74 0v80q0 35 6 67.5t34.5 71.5t88 85t166.5 106q68 37 108.5 68.5t63 62t30 64.5t7.5 73q0 86 -43 135t-152 49q-70 0 -126 -46t-81 -150l-92 12q23 127 105.5 196.5t203.5 69.5q141 0 209 -70.5t68 -193.5q0 -113 -59.5 -186.5t-188.5 -147.5q-86 -49 -137.5 -87 t-78 -68.5t-34.5 -56t-8 -50.5h506v-84h-596z" />
<glyph unicode="3" horiz-adv-x="780" d="M55 174l82 39q23 -45 44.5 -73.5t49 -44t62.5 -20.5t80 -5q117 0 170 46t53 144q0 102 -65.5 148.5t-196.5 46.5h-84v84h69q127 0 186.5 41t59.5 135q0 86 -45 116.5t-141 30.5q-66 0 -115 -28.5t-98 -88.5l-70 54q66 78 140.5 111.5t150.5 33.5q53 0 101.5 -10t86 -36 t60 -69t22.5 -108q0 -94 -32.5 -146.5t-116.5 -74.5q78 -16 129 -70.5t51 -165.5q0 -147 -83 -211.5t-236 -64.5q-115 0 -194 45t-120 141z" />
<glyph unicode="4" horiz-adv-x="727" d="M18 203v80l410 653h119v-649h143v-84h-143v-203h-92v203h-437zM121 287h334v553h-9z" />
<glyph unicode="5" horiz-adv-x="790" d="M92 162l70 45q39 -78 103.5 -107.5t135.5 -29.5q63 0 106.5 17t69 48t37 75t11.5 97q0 125 -49.5 173t-155.5 48q-29 0 -62.5 -7t-65.5 -20.5t-58.5 -35t-38.5 -51.5l-70 10l43 512h481v-82h-403l-27 -311q43 41 97.5 55t117.5 14q135 0 209 -78.5t74 -220.5 q0 -154 -82 -239.5t-242 -85.5q-43 0 -88 11t-85 32.5t-73.5 54.5t-54.5 76z" />
<glyph unicode="6" horiz-adv-x="821" d="M92 432q0 123 17.5 218t57.5 161t105.5 99.5t163.5 33.5q61 0 131 -19.5t119 -58.5l-57 -71q-41 37 -90.5 52t-104.5 15q-80 0 -129 -24.5t-76.5 -75.5t-37 -126t-9.5 -177q47 53 120 88t144 35q72 0 128.5 -23.5t94.5 -64.5t58.5 -96.5t20.5 -121.5q0 -68 -26 -121 t-69 -89.5t-100 -57t-121 -20.5q-98 0 -162.5 31.5t-104.5 89t-56.5 140.5t-16.5 183zM186 332q0 -76 18.5 -127t51.5 -80t79 -41t99 -12q221 0 221 219q0 96 -55 152.5t-166 56.5q-51 0 -97 -21.5t-79 -50.5t-52.5 -56.5t-19.5 -39.5z" />
<glyph unicode="7" horiz-adv-x="686" d="M74 854v82h575v-64l-397 -872h-105l398 854h-471z" />
<glyph unicode="8" horiz-adv-x="802" d="M74 240q0 72 46 137t167 119q-86 31 -132 89t-46 120q0 119 79.5 180t212.5 61q135 0 213 -61.5t78 -179.5q0 -61 -45 -120t-133 -89q121 -53 168 -119t47 -137q0 -127 -90 -189.5t-238 -62.5q-145 0 -236 62.5t-91 189.5zM166 240q0 -82 65.5 -126t169.5 -44t170 44 t66 126q0 76 -60.5 124t-175.5 93q-115 -45 -175 -93t-60 -124zM199 709q0 -59 58 -106.5t144 -72.5q88 25 144.5 72t56.5 107q0 70 -54 112.5t-147 42.5q-92 0 -147 -42.5t-55 -112.5z" />
<glyph unicode="9" horiz-adv-x="821" d="M74 657q0 68 25.5 121t68.5 90t100.5 57.5t120.5 20.5q98 0 162.5 -31.5t104.5 -90t56.5 -140.5t16.5 -182q0 -123 -17.5 -218.5t-57.5 -161t-106.5 -99t-164.5 -33.5q-59 0 -130 19.5t-118 56.5l58 73q41 -39 90 -54t102 -15q80 0 129 25.5t76.5 75.5t37 127t9.5 177 q-47 -53 -119 -89t-143 -36q-72 0 -128.5 23.5t-94 64.5t-58 97.5t-20.5 121.5zM166 641q0 -96 55 -151.5t166 -55.5q53 0 98 21.5t78 49t52.5 56.5t19.5 41q0 78 -18.5 128t-52.5 79t-79 41t-98 12q-221 0 -221 -221z" />
<glyph unicode=":" horiz-adv-x="460" d="M158 0v150h145v-150h-145zM158 506v149h145v-149h-145z" />
<glyph unicode=";" horiz-adv-x="460" d="M133 -250l96 250h-71v150h145v-150l-106 -250h-64zM158 506v149h145v-149h-145z" />
<glyph unicode="&#x3c;" horiz-adv-x="995" d="M66 385v92l864 395v-96l-752 -344l752 -346v-96z" />
<glyph unicode="=" horiz-adv-x="802" d="M72 283v88h659v-88h-659zM72 573v89h659v-89h-659z" />
<glyph unicode="&#x3e;" horiz-adv-x="995" d="M66 -10v96l751 346l-751 344v96l864 -395v-92z" />
<glyph unicode="?" horiz-adv-x="675" d="M47 907q35 94 112 154.5t185 60.5q53 0 103.5 -17.5t90.5 -51t64.5 -84.5t24.5 -117q0 -55 -20.5 -98t-50.5 -81t-65.5 -72t-65.5 -69.5t-50.5 -76.5t-20.5 -93v-79h-88v100q0 72 42 134.5t91.5 118.5t91 109.5t41.5 108.5q0 47 -16 80t-44 55.5t-61.5 32.5t-68.5 10 q-41 0 -76 -16.5t-61.5 -41t-45 -53t-28.5 -55.5zM233 0v150h144v-150h-144z" />
<glyph unicode="@" horiz-adv-x="1185" d="M102 508q0 106 41 199.5t111 163t163 109.5t197 40q98 0 184.5 -32t150 -88t99 -135t35.5 -173q0 -82 -28.5 -154.5t-74.5 -128t-102.5 -87.5t-109.5 -32q-37 0 -64.5 26t-29.5 73h-2q-35 -35 -83 -67t-102 -32q-90 0 -141 62.5t-51 144.5q0 76 24.5 150t69.5 132 t108.5 95t139.5 37q47 0 87 -26.5t62 -92.5l37 92h76l-135 -411q-8 -23 -14.5 -42.5t-6.5 -35.5q0 -37 39 -37q41 0 82 29.5t74 78t53.5 109t20.5 119.5q0 84 -33 150.5t-87 114.5t-126 73.5t-150 25.5q-94 0 -176 -36.5t-140 -99t-92 -146.5t-34 -178q0 -92 35 -174 t95.5 -142.5t141 -96.5t172.5 -36q106 0 208 50.5t163 142.5h72q-33 -59 -80 -106.5t-105.5 -81.5t-124 -51t-133.5 -17q-111 0 -205 41t-162.5 112.5t-108.5 166.5t-40 202zM385 406q0 -63 34 -103.5t87 -40.5q49 0 92 36t75 88t50 111.5t18 106.5q0 25 -9 49.5t-24.5 44 t-36 30.5t-40.5 11q-55 0 -100.5 -32.5t-77 -83t-50 -108.5t-18.5 -109z" />
<glyph unicode="A" horiz-adv-x="948" d="M41 0l381 993h106l379 -993h-110l-105 289h-436l-104 -289h-111zM285 379h381l-191 532z" />
<glyph unicode="B" horiz-adv-x="874" d="M123 0v995h354q78 0 131.5 -18.5t86 -50t47 -73.5t14.5 -89q0 -82 -34 -136.5t-87 -72.5q39 -8 71.5 -33.5t56 -59.5t37 -74t13.5 -81q0 -68 -18.5 -124t-58.5 -97t-104.5 -63.5t-158.5 -22.5h-350zM225 86h228q143 0 200.5 50t57.5 171q0 100 -60.5 151.5t-218.5 51.5 h-207v-424zM229 592h207q80 0 123 14.5t64.5 38t25.5 54t4 65.5q0 59 -35.5 99t-140.5 40h-248v-311z" />
<glyph unicode="C" horiz-adv-x="776" d="M82 496q0 135 18.5 231t62.5 158.5t116.5 91.5t179.5 29q68 0 144.5 -21.5t131.5 -64.5l-63 -78q-47 41 -100.5 57t-114.5 16q-86 0 -140.5 -23.5t-85 -73.5t-41 -130t-10.5 -192q0 -113 10.5 -192t41 -130t85 -74.5t140.5 -23.5q61 0 114.5 16.5t100.5 57.5l63 -78 q-55 -43 -132 -64.5t-144 -21.5q-106 0 -179 28.5t-117 91t-62.5 159t-18.5 231.5z" />
<glyph unicode="D" horiz-adv-x="956" d="M123 0v995h350q109 0 185.5 -31.5t124.5 -96t69.5 -161t21.5 -223.5q0 -119 -21.5 -210t-69.5 -151.5t-124.5 -91t-185.5 -30.5h-350zM225 86h248q86 0 143.5 23.5t91 71.5t47 123t13.5 179q0 115 -13.5 195t-47 132t-91 75.5t-143.5 23.5h-248v-823z" />
<glyph unicode="E" horiz-adv-x="749" d="M123 0v995h586v-86h-484v-336h422v-86h-422v-401h477v-86h-579z" />
<glyph unicode="F" horiz-adv-x="749" d="M123 0v995h586v-86h-484v-336h422v-86h-422v-487h-102z" />
<glyph unicode="G" horiz-adv-x="890" d="M102 496q0 135 18.5 231t62.5 158.5t117 91.5t179 29q68 0 144.5 -21.5t132.5 -64.5l-64 -78q-47 41 -100 57t-115 16q-86 0 -140 -23.5t-85 -73.5t-41 -130t-10 -192q0 -113 10 -192t41 -130t85 -74.5t140 -23.5q61 0 114.5 16.5t100.5 57.5v292h-84q-39 0 -61.5 -4 t-34.5 -6t-17.5 0t-11.5 14q-10 20 -12 46t4 38h313v-419q-41 -43 -117.5 -84t-191.5 -41q-106 0 -179 28.5t-117 91t-62.5 158.5t-18.5 232z" />
<glyph unicode="H" horiz-adv-x="933" d="M123 0v995h102v-422h484v422h102v-995h-102v487h-484v-487h-102z" />
<glyph unicode="I" horiz-adv-x="565" d="M41 0v86h188v823h-182v86h477v-86h-194v-823h188v-86h-477z" />
<glyph unicode="J" horiz-adv-x="677" d="M20 72l64 78q47 -41 90 -57.5t105 -16.5q63 0 98 22.5t52 71.5t20.5 128t3.5 191v506h102v-506q0 -135 -9 -230t-38 -156.5t-84 -89t-148 -27.5q-68 0 -134 21.5t-122 64.5z" />
<glyph unicode="K" horiz-adv-x="894" d="M123 0v995h102v-463l463 463h121l-424 -426l428 -569h-111l-380 504l-97 -94v-410h-102z" />
<glyph unicode="L" horiz-adv-x="729" d="M123 0v995h102v-909h484v-86h-586z" />
<glyph unicode="M" horiz-adv-x="1150" d="M123 0v995h170l282 -893l283 893h170v-995h-102v909l-299 -909h-103l-299 909v-909h-102z" />
<glyph unicode="N" horiz-adv-x="974" d="M123 0v995h170l457 -811v811h102v-995h-102l-525 909v-909h-102z" />
<glyph unicode="O" horiz-adv-x="966" d="M82 485q0 256 91 386t310 130q109 0 185.5 -32.5t125 -97t70 -162t21.5 -224.5q0 -119 -21.5 -212t-70 -156.5t-125 -96t-185.5 -32.5q-217 0 -309 129t-92 368zM188 485q0 -104 13.5 -180t47.5 -125t90 -72.5t144 -23.5q86 0 143.5 23.5t91.5 72.5t47 125t13 180 q0 115 -13 195t-47 131t-91.5 74.5t-143.5 23.5q-88 0 -144 -23.5t-90 -74.5t-47.5 -131t-13.5 -195z" />
<glyph unicode="P" horiz-adv-x="874" d="M123 0v995h330q102 0 170.5 -19.5t110.5 -58t60.5 -98t18.5 -141.5q0 -74 -21.5 -131.5t-69.5 -97t-125 -60t-185 -20.5h-187v-369h-102zM225 455h207q158 0 218.5 54t60.5 169q0 68 -13.5 113t-44 70.5t-80 36.5t-120.5 11h-228v-454z" />
<glyph unicode="Q" horiz-adv-x="1048" d="M123 485q0 256 91 386t310 130q109 0 185.5 -32.5t125 -97t70 -162t21.5 -224.5q0 -119 -21.5 -212t-70 -156.5t-125 -96t-185.5 -32.5q-217 0 -309 129t-92 368zM229 485q0 -104 13.5 -180t47.5 -125t90 -72.5t144 -23.5q86 0 143.5 23.5t91.5 72.5t47 125t13 180 q0 115 -13 195t-47 131t-91.5 74.5t-143.5 23.5q-88 0 -144 -23.5t-90 -74.5t-47.5 -131t-13.5 -195zM532 268l86 31l308 -373l-103 -32z" />
<glyph unicode="R" horiz-adv-x="894" d="M123 0v995h330q102 0 170.5 -18.5t110.5 -55t60.5 -90t18.5 -122.5q0 -111 -63.5 -175.5t-155.5 -76.5l215 -457h-117l-192 451h-275v-451h-102zM225 537h248q41 0 82 8t75 27.5t55.5 53t21.5 83.5q0 59 -19.5 98t-53.5 61.5t-81 31.5t-100 9h-228v-372z" />
<glyph unicode="S" horiz-adv-x="913" d="M82 295l96 29q33 -131 111 -190.5t213 -59.5q106 0 166.5 45t60.5 147q0 68 -46 106t-113.5 62.5t-148.5 45t-148.5 52t-113.5 84t-46 142.5q0 117 84 179t243 62q135 0 229.5 -69.5t135.5 -202.5l-90 -27q-31 96 -97.5 155.5t-177.5 59.5q-225 0 -225 -157 q0 -68 46 -106t113.5 -63.5t148.5 -45t148.5 -50t113.5 -79.5t46 -133q0 -147 -86 -220t-245 -73q-174 0 -272.5 73.5t-145.5 233.5z" />
<glyph unicode="T" horiz-adv-x="757" d="M20 909v86h717v-86h-307v-909h-102v909h-308z" />
<glyph unicode="U" horiz-adv-x="1007" d="M123 330v665h102v-506q0 -61 -2 -111t-2 -91q0 -47 6 -85t29 -61q33 -35 99.5 -51t144.5 -16q76 0 148.5 16t103.5 51q23 23 28.5 61t5.5 85q0 41 -2 91t-2 111v506h103v-665q0 -96 -10.5 -148.5t-43.5 -93.5q-31 -33 -73.5 -52.5t-88.5 -30.5t-91.5 -14t-77.5 -3 q-33 0 -77 3t-89 13t-87 30.5t-71 53.5q-35 39 -44 92t-9 150z" />
<glyph unicode="V" horiz-adv-x="907" d="M41 995h111l303 -911l301 911h110l-358 -995h-107z" />
<glyph unicode="W" horiz-adv-x="1159" d="M41 995h111l159 -891l219 891h99l219 -891l160 891h110l-207 -995h-116l-215 893l-215 -893h-117z" />
<glyph unicode="X" horiz-adv-x="837" d="M20 0l332 494l-311 501h123l250 -444l248 444h122l-307 -501l340 -494h-125l-278 426l-273 -426h-121z" />
<glyph unicode="Y" horiz-adv-x="866" d="M41 995h111l282 -522l281 522h110l-342 -606v-389h-102v389z" />
<glyph unicode="Z" horiz-adv-x="811" d="M82 907v88h637v-94l-514 -815h524v-86h-643v86l520 821h-524z" />
<glyph unicode="[" horiz-adv-x="552" d="M145 -121v1319h310v-61h-209v-1196h209v-62h-310z" />
<glyph unicode="\" horiz-adv-x="460" d="M-20 1214h92l409 -1230h-98z" />
<glyph unicode="]" horiz-adv-x="552" d="M98 -59h209v1196h-209v61h310v-1319h-310v62z" />
<glyph unicode="^" horiz-adv-x="933" d="M88 461l336 663h84l338 -663h-103l-280 551l-273 -551h-102z" />
<glyph unicode="_" horiz-adv-x="972" d="M0 -145h973v-99h-973v99z" />
<glyph unicode="`" horiz-adv-x="346" d="M-20 1114h118l172 -215h-80z" />
<glyph unicode="a" d="M41 217q0 82 34 133t99.5 81t161.5 42t223 19v96q0 82 -41 123t-145 41q-76 0 -134.5 -40t-111.5 -108q-8 -10 -22.5 -4t-28.5 16q-16 12 -33 33q84 98 167 137t167 39q139 0 204.5 -59t65.5 -195v-424q0 -47 7.5 -80.5t13.5 -50.5q-37 -16 -68 -16q-18 0 -29 16 q-6 16 -10 47q-2 17 -2 35q-72 -59 -137.5 -86.5t-159.5 -27.5t-157.5 65.5t-63.5 167.5zM127 219q0 -68 44 -114t108 -46q66 0 140.5 36t135.5 98v223q-135 -2 -219 -19.5t-130 -44t-62.5 -61.5t-16.5 -72z" />
<glyph unicode="b" horiz-adv-x="849" d="M117 16q6 23 16 60t10 112v936h88v-399q72 43 136.5 71.5t146.5 28.5q143 0 211 -110.5t68 -304.5q0 -223 -76 -324.5t-217 -101.5q-86 0 -147.5 28.5t-123.5 91.5l-4 -36q-2 -16 -5 -29.5t-7 -22.5q-10 -16 -29 -16q-31 0 -67 16zM231 207q45 -63 111 -105.5t152 -42.5 q61 0 101 23.5t63.5 67t32.5 104.5t9 139q0 86 -9 153.5t-32.5 113t-64.5 69t-105 23.5q-35 0 -69.5 -12.5t-68.5 -31t-64.5 -41t-55.5 -42.5v-418z" />
<glyph unicode="c" d="M57 406q0 207 76 313t262 106q104 0 169 -44t114 -130l-80 -28q-33 55 -78 92t-125 37q-72 0 -120 -18.5t-75.5 -60.5t-38.5 -107.5t-11 -159.5q0 -78 9 -141.5t35.5 -109.5t74.5 -71t124 -25q86 0 136.5 43t76.5 91l72 -41q-18 -33 -44 -63t-59.5 -53.5t-78.5 -37.5 t-103 -14q-100 0 -165.5 31.5t-103.5 87t-52.5 133t-14.5 170.5z" />
<glyph unicode="d" horiz-adv-x="849" d="M57 410q0 195 88 305t232 110q82 0 141.5 -27.5t99.5 -52.5v379h89v-956q0 -47 7 -88t13 -64q-37 -16 -65 -16q-18 0 -29 16q-6 16 -10 52q-2 18 -2 36q-61 -63 -123 -91.5t-148 -28.5q-141 0 -217 101t-76 325zM150 393q0 -78 9 -139t32.5 -104.5t63.5 -67t101 -23.5 q86 0 151.5 42t110.5 106v438q-12 16 -34.5 35.5t-52 35t-62.5 26t-68 10.5q-129 0 -190 -92.5t-61 -266.5z" />
<glyph unicode="e" d="M57 406q0 117 28 196.5t74 129.5t108.5 71.5t131.5 21.5q82 0 141.5 -30.5t97.5 -87t56.5 -134t18.5 -172.5h-563q0 -70 14 -131t46 -108t81 -75t119 -28q39 0 69.5 8.5t57 27t52 49t56.5 77.5l76 -39q-33 -53 -64.5 -91t-68.5 -61.5t-82 -34.5t-105 -11q-160 0 -252 103 t-92 319zM150 477h468q-4 133 -60 204t-163 71q-61 0 -107 -22.5t-77 -59.5t-46 -87.5t-15 -105.5z" />
<glyph unicode="f" horiz-adv-x="434" d="M16 735v74h134v115q0 106 44 161.5t148 55.5q25 0 52.5 -2t49.5 -11q14 -29 9.5 -61.5t-15.5 -32.5q-20 10 -40.5 17.5t-45.5 7.5q-55 0 -82.5 -25.5t-27.5 -97.5v-127h166v-74h-166v-735h-92v735h-134z" />
<glyph unicode="g" d="M39 -96q0 53 24.5 97t110.5 75v4q-59 10 -80.5 42t-21.5 75q0 53 26.5 82.5t69.5 39.5q-55 35 -76.5 92.5t-21.5 120.5q0 143 71.5 218t249.5 75q63 0 108.5 -15t73.5 -32q35 35 75 56.5t89 21.5q10 0 15.5 -10t7.5 -25.5t-1 -32t-9 -30.5q-33 0 -65.5 -4t-57.5 -27 q27 -35 39 -77t12 -101q0 -86 -22.5 -141.5t-63.5 -88t-98.5 -45t-128.5 -12.5q-82 0 -142 21q-39 -16 -53 -34t-14 -40q0 -18 9 -30.5t35.5 -19.5t77 -11.5t132.5 -4.5q182 0 257.5 -47t75.5 -162q0 -59 -16 -101t-58 -68.5t-111 -39t-173 -12.5t-172 13.5t-106.5 39 t-53 60.5t-14.5 78zM133 -78q0 -45 13.5 -71.5t42 -41t73.5 -18.5t109 -4q76 0 128 4t85.5 18.5t49 42t15.5 74.5q0 41 -10 66.5t-41 41t-87 20.5t-146 5q-70 0 -114 -11t-70.5 -30.5t-37 -44t-10.5 -51.5zM164 543q0 -63 14.5 -103.5t41 -62t65.5 -29.5t88 -8q57 0 97 8 t65.5 29.5t37 61.5t11.5 104q0 66 -11.5 105.5t-37 63t-65.5 32t-97 8.5q-113 0 -161 -45t-48 -164z" />
<glyph unicode="h" horiz-adv-x="866" d="M129 0v1124h92v-442q66 68 126.5 105.5t150.5 37.5q127 0 183 -70.5t56 -201.5v-553h-94v543q0 102 -35 155.5t-129 53.5q-37 0 -67.5 -11.5t-60 -32t-60.5 -49t-70 -63.5v-596h-92z" />
<glyph unicode="i" horiz-adv-x="346" d="M127 0v809h92v-809h-92zM127 987v137h92v-137h-92z" />
<glyph unicode="j" horiz-adv-x="346" d="M-85 -212.5q5 32.5 15 32.5q20 -10 41 -17.5t45 -7.5q29 0 49.5 3t34 13.5t20.5 31t7 55.5v911h92v-899q0 -106 -44 -151.5t-148 -45.5q-25 0 -52.5 2t-50.5 11q-14 29 -9 61.5zM127 987v137h92v-137h-92z" />
<glyph unicode="k" d="M129 0v1124h92v-704l365 389h119l-338 -365l376 -444h-122l-318 383l-82 -92v-291h-92z" />
<glyph unicode="l" horiz-adv-x="346" d="M127 0v1124h92v-1124h-92z" />
<glyph unicode="m" horiz-adv-x="1296" d="M129 0v809h92v-123q31 33 59.5 58.5t59.5 44t66.5 27.5t82.5 9q68 0 124.5 -41t72.5 -106q55 63 117.5 105t150.5 42q106 0 159.5 -56t53.5 -165v-604h-94v614q0 137 -139 138q-27 0 -60.5 -13.5t-67.5 -35t-63.5 -50t-48.5 -57.5v-596h-92v614q0 68 -37 103t-104 35 q-27 0 -60.5 -13.5t-67.5 -35t-63.5 -50t-48.5 -57.5v-596h-92z" />
<glyph unicode="n" horiz-adv-x="866" d="M129 0v809h92v-125q49 68 118 104.5t159 36.5q127 0 183 -70.5t56 -201.5v-553h-94v543q0 102 -35 155.5t-129 53.5q-76 0 -136 -43t-122 -113v-596h-92z" />
<glyph unicode="o" d="M57 406q0 98 16.5 175.5t55.5 132t102.5 83t157.5 28.5q96 0 159.5 -28.5t101.5 -83t54.5 -132t16.5 -175.5t-16.5 -176t-54.5 -133.5t-101.5 -84t-159.5 -28.5q-94 0 -157.5 28.5t-102.5 84t-55.5 133t-16.5 176.5zM150 406q0 -166 49 -256.5t190 -90.5t190.5 90.5 t49.5 256.5q0 82 -11.5 146t-38 108.5t-72.5 68t-118 23.5q-70 0 -117 -23.5t-73.5 -68t-37.5 -109t-11 -145.5z" />
<glyph unicode="p" horiz-adv-x="849" d="M127 788l20 11q21 10 52 10q18 0 25 -18.5t7 -63.5v-43h2q47 72 117 106.5t150 34.5q72 0 126 -22.5t91 -72.5t56.5 -131t19.5 -200q0 -195 -80 -305t-240 -110q-82 0 -133 15t-109 44v-330h-88v824v54t-2 73.5t-5 72.5t-9 51zM231 143q35 -27 91.5 -56.5t126.5 -29.5 q143 0 197 92.5t54 266.5q0 170 -42 252t-164 82q-86 0 -152 -52.5t-111 -115.5v-439z" />
<glyph unicode="q" horiz-adv-x="849" d="M57 399q0 223 76 324.5t217 101.5q170 0 277 -110q2 45 9 69.5t26 24.5q31 0 51 -10l20 -11q-6 -16 -11 -47.5t-8 -68.5t-5 -73t-2 -62v-824h-89v330q-33 -18 -59.5 -29.5t-53 -18.5t-57 -9t-71.5 -2q-160 0 -240 110.5t-80 304.5zM150 416q0 -174 54 -266.5t197 -92.5 q70 0 119 22.5t98 63.5v459q-45 63 -110.5 105.5t-151.5 42.5q-61 0 -101 -24t-63.5 -67t-32.5 -104t-9 -139z" />
<glyph unicode="r" horiz-adv-x="540" d="M121 0v809h94v-154h2q33 76 90.5 123t134.5 47q10 0 34 -2t36 -8q6 -14 5 -30.5t-6 -32t-12 -25.5t-12 -10q-30 18 -69 18q-35 0 -71 -21.5t-65.5 -59.5t-48 -88t-18.5 -109v-457h-94z" />
<glyph unicode="s" horiz-adv-x="690" d="M39 147l18 19q8 8 16.5 15t16.5 12q23 10 37 -9q53 -68 111.5 -96.5t119.5 -28.5q78 0 129.5 45.5t51.5 110.5q0 57 -36 89t-88.5 51.5t-114.5 33.5t-114.5 38t-88.5 64.5t-36 112.5q0 57 24 99t61.5 69t83.5 40t89 13q86 0 161 -37.5t118 -107.5q-6 -8 -14 -16 q-6 -6 -15.5 -13.5t-23.5 -11.5q-10 -4 -15.5 0t-15.5 16q-37 47 -84 72t-115 25t-113.5 -35t-45.5 -109q0 -49 35.5 -75.5t88 -45t115 -34t114.5 -42t88 -72.5t36 -124q0 -55 -23.5 -98t-62.5 -73t-89 -45t-106 -15q-94 0 -175 38.5t-138 124.5z" />
<glyph unicode="t" horiz-adv-x="432" d="M16 735v74h121v264h92v-264h181v-74h-181v-590q0 -41 17.5 -59t62.5 -18q23 0 53.5 7t53.5 17q4 -2 8 -16.5t5 -30.5t-1 -30.5t-12 -16.5q-25 -6 -52.5 -10t-50.5 -4q-100 0 -138 33.5t-38 109.5v608h-121z" />
<glyph unicode="u" horiz-adv-x="866" d="M129 256v553h92v-543q0 -100 35 -153.5t129 -53.5q78 0 144.5 42t113.5 114v594h94v-641q0 -72 7.5 -101.5t13.5 -50.5q-16 -8 -30.5 -12t-31.5 -4q-8 0 -19 3t-18 13q-4 8 -6 25.5t-4 38.5q-2 22 -2 49q-35 -70 -111.5 -107.5t-166.5 -37.5q-129 0 -184.5 70.5 t-55.5 201.5z" />
<glyph unicode="v" horiz-adv-x="690" d="M20 809h101l221 -666h4l223 666h101l-279 -809h-92z" />
<glyph unicode="w" horiz-adv-x="1038" d="M12 809h92l181 -649h2l184 649h94l178 -649h5l182 649h96l-235 -809h-93l-180 649h-4l-182 -649h-94z" />
<glyph unicode="x" horiz-adv-x="690" d="M16 0l275 430l-244 379h113l186 -291l186 291h111l-242 -379l275 -430h-111l-219 340l-217 -340h-113z" />
<glyph unicode="y" horiz-adv-x="690" d="M10.5 -251q-2.5 15 1.5 31.5t10.5 32t12.5 19.5q23 -16 42 -28.5t48 -12.5q47 0 93 48t81 173l-279 797h101l223 -657h2l225 657h103l-303 -868q-41 -117 -95.5 -172.5t-162.5 -55.5q-31 0 -51.5 5.5t-36.5 11.5q-12 4 -14.5 19z" />
<glyph unicode="z" horiz-adv-x="690" d="M39 0v59l467 676h-430v74h555v-57l-467 -678h479v-74h-604z" />
<glyph unicode="{" horiz-adv-x="518" d="M68 479v53q53 0 73.5 34t20.5 93v304q0 86 35.5 132t101.5 46h96v-58h-78q-31 0 -47 -18t-16 -84v-307q0 -78 -28.5 -115t-82.5 -51v-4q53 -12 82 -50t29 -116v-307q0 -66 16.5 -84.5t46.5 -18.5h78v-57h-96q-66 0 -101.5 46t-35.5 132v303q0 59 -20.5 93t-73.5 34z" />
<glyph unicode="|" horiz-adv-x="346" d="M131 -16v1157h84v-1157h-84z" />
<glyph unicode="}" horiz-adv-x="518" d="M123 -72h78q31 0 46 18.5t15 84.5v307q0 78 30 116t83 50v4q-53 14 -83 51t-30 115v307q0 66 -15.5 84t-45.5 18h-78v58h96q66 0 101.5 -46t35.5 -132v-304q0 -59 19.5 -93t73.5 -34v-53q-53 0 -73 -33.5t-20 -93.5v-303q0 -86 -35.5 -132t-101.5 -46h-96v57z" />
<glyph unicode="~" horiz-adv-x="933" d="M80 371q27 47 76 88t135 41q41 0 88 -14.5t96 -36.5q47 -18 92 -35t80 -17q51 0 86 34t64 75l57 -66q-27 -49 -75 -90t-136 -41q-41 0 -88 14.5t-96 36.5q-47 18 -92 35t-80 17q-51 0 -86 -34t-64 -75z" />
<glyph unicode="&#xa1;" horiz-adv-x="346" d="M104 -315l31 778h78l27 -778h-136zM104 670v139h136v-139h-136z" />
<glyph unicode="&#xa2;" horiz-adv-x="866" d="M86 379q0 109 22.5 183.5t63.5 120.5t98.5 67.5t126.5 21.5q43 0 82 -12l49 147h74l-59 -176q41 -27 69.5 -64.5t44.5 -91.5l-75 -20q-20 59 -64 100l-180 -596q25 -6 59 -6q92 0 139.5 39t73.5 109l68 -33q-31 -76 -96.5 -129t-184.5 -53q-43 0 -80 10l-53 -162h-74 l62 186q-82 45 -124 128t-42 231zM170 379q0 -211 104 -287l185 602q-16 4 -30.5 8.5t-31.5 4.5q-51 0 -93 -17.5t-71.5 -56.5t-46 -101.5t-16.5 -152.5z" />
<glyph unicode="&#xa3;" horiz-adv-x="866" d="M20 463v65h146q-4 51 -11.5 101.5t-7.5 101.5q0 127 75 203t202 76q119 0 195.5 -69t97.5 -185l-88 -29q-20 92 -63.5 144.5t-141.5 52.5q-100 0 -142 -52.5t-42 -144.5q0 -51 5 -101.5t15 -97.5h201v-65h-193q2 -18 3 -36.5t1 -37.5q0 -68 -10 -120t-39 -113 q49 -31 113.5 -58.5t124.5 -27.5q41 0 70.5 7t51 26.5t37 54.5t29.5 88l88 -17q-23 -117 -85 -180t-177 -63q-98 0 -161.5 32.5t-127.5 73.5q-29 -39 -72.5 -67.5t-90.5 -38.5v106q45 12 75.5 40t49 66t26.5 83t8 90q0 23 -3 46t-5 46h-154z" />
<glyph unicode="&#xa4;" horiz-adv-x="866" d="M47 174l84 84q-45 51 -64.5 114.5t-19.5 129.5t19.5 127t64.5 114l-84 84l57 60l89 -86q51 43 112.5 64.5t126.5 21.5q137 0 242 -86l86 86l59 -60l-84 -84q45 -53 64.5 -114.5t19.5 -126.5q0 -66 -19.5 -129.5t-64.5 -114.5l84 -84l-59 -59l-86 84q-106 -84 -242 -84 q-66 0 -127 21.5t-112 62.5l-89 -84zM131 502q0 -63 23.5 -119.5t64.5 -99.5t96.5 -68t116.5 -25q63 0 118.5 25t96.5 68t64.5 99t23.5 120q0 61 -23.5 117.5t-64.5 99.5t-96 68.5t-119 25.5q-61 0 -116.5 -25.5t-96.5 -68.5t-64.5 -99.5t-23.5 -117.5z" />
<glyph unicode="&#xa5;" horiz-adv-x="866" d="M-2 995h96l281 -493l299 493h94l-238 -389h156v-65h-190l-72 -119v-19h242v-65h-242v-338h-92v338h-244v65h244v19l-70 119h-194v65h159z" />
<glyph unicode="&#xa6;" horiz-adv-x="346" d="M131 -16v436h84v-436h-84zM131 705v436h84v-436h-84z" />
<glyph unicode="&#xa7;" horiz-adv-x="749" d="M102 524q0 76 52.5 112t128.5 36l4 4q-41 29 -71 68.5t-30 101.5q0 80 57.5 121t149.5 41q80 0 138.5 -41t93.5 -113l-62 -39q-29 57 -70.5 90t-107.5 33q-53 0 -87 -19.5t-34 -84.5q0 -33 29 -65t71 -64.5t92 -68.5t92 -77t70.5 -88t28.5 -102q0 -80 -49 -119t-121 -45 q35 -41 60.5 -76t25.5 -90q0 -47 -18.5 -78t-49 -50.5t-69.5 -27.5t-80 -8q-72 0 -135.5 40t-91.5 105l63 41q20 -49 64.5 -83.5t99.5 -34.5q66 0 102.5 23.5t36.5 82.5q0 29 -28.5 60.5t-70.5 68.5t-92 77t-92 84t-71 90t-29 95zM180 530q0 -39 35 -87t81 -90t93 -70.5 t74 -28.5q49 0 77.5 31.5t28.5 79.5q0 35 -31.5 78.5t-77.5 83.5t-95 68t-84 28t-68 -26t-33 -67z" />
<glyph unicode="&#xa8;" horiz-adv-x="346" d="M0 915v148h102v-148h-102zM244 915v148h102v-148h-102z" />
<glyph unicode="&#xa9;" horiz-adv-x="1245" d="M39 498q0 104 40 197t109.5 163t163 111t199.5 41t199.5 -41t163 -111t109.5 -163t40 -197t-40 -197.5t-109.5 -163t-163 -110.5t-199.5 -41t-199.5 41t-163 110.5t-109.5 162.5t-40 198zM121 498q0 -92 32.5 -173t91 -140.5t136.5 -94.5t170 -35t171 35t136 94.5 t90 140.5t33 173t-33 173t-90 140t-136 94t-171 35t-170 -35t-136.5 -94t-91 -140t-32.5 -173zM258 500q0 70 20.5 128t59.5 101t95 67.5t128 24.5q102 0 176 -55t86 -160h-73q-12 59 -60.5 102.5t-126.5 43.5q-109 0 -167 -74t-58 -178q0 -49 16.5 -96.5t46 -82t72.5 -56 t94 -21.5q74 0 122 43t61 106h73q-23 -98 -90 -158.5t-166 -60.5q-72 0 -129 24.5t-97 68.5t-61.5 103.5t-21.5 129.5z" />
<glyph unicode="&#xaa;" horiz-adv-x="466" d="M20 764q0 61 35 97t85 56.5t104.5 30.5t91.5 21v39q0 31 -20.5 50t-77.5 19q-51 0 -84 -18.5t-62 -59.5l-49 33q35 59 82 84t121 25q88 0 128 -36t40 -114v-243q0 -35 2 -54.5t8 -46.5h-70l-8 60q-41 -35 -81 -51.5t-99 -16.5q-63 0 -104.5 33t-41.5 92zM98 766 q0 -29 20.5 -47.5t57.5 -18.5q41 0 87 19.5t73 52.5v131q-25 -8 -66 -17t-78.5 -24.5t-65.5 -38t-28 -57.5z" />
<glyph unicode="&#xab;" d="M129 410l186 233h103l-193 -233l193 -244h-103zM358 410l191 233h100l-194 -233l194 -244h-100z" />
<glyph unicode="&#xac;" horiz-adv-x="933" d="M61 436v86h811v-356h-84v270h-727z" />
<glyph unicode="&#xad;" horiz-adv-x="681" d="M86 436v92h510v-92h-510z" />
<glyph unicode="&#xae;" horiz-adv-x="1245" d="M39 498q0 104 40 197t109.5 163t163 111t199.5 41t199.5 -41t163 -111t109.5 -163t40 -197t-40 -197.5t-109.5 -163t-163 -110.5t-199.5 -41t-199.5 41t-163 110.5t-109.5 162.5t-40 198zM121 498q0 -92 32.5 -173t91 -140.5t136.5 -94.5t170 -35t171 35t136 94.5 t90 140.5t33 173t-33 173t-90 140t-136 94t-171 35t-170 -35t-136.5 -94t-91 -140t-32.5 -173zM362 193v608h232q104 0 150.5 -43t46.5 -125q0 -80 -44.5 -119t-95.5 -49l168 -272h-92l-166 272h-117v-272h-82zM444 532h95q31 0 60.5 1.5t53 10.5t39 30.5t15.5 60.5 q0 31 -11.5 50.5t-30 30.5t-42 14t-48.5 3h-131v-201z" />
<glyph unicode="&#xaf;" horiz-adv-x="346" d="M-59 961v69h462v-69h-462z" />
<glyph unicode="&#xb0;" horiz-adv-x="622" d="M84 913q0 47 17.5 88t48 72t71.5 49.5t90 18.5t90 -18.5t72 -49.5t48.5 -71.5t17.5 -88.5q0 -47 -17.5 -89t-48.5 -72.5t-72 -49t-90 -18.5t-90 18.5t-71.5 49t-48 72.5t-17.5 89zM156 913q0 -70 43 -115.5t112 -45.5q70 0 113 46t43 115q0 68 -43 114t-113 46 t-112.5 -46t-42.5 -114z" />
<glyph unicode="&#xb1;" horiz-adv-x="933" d="M61 0v84h811v-84h-811zM61 438v84h363v287h86v-287h362v-84h-362v-288h-86v288h-363z" />
<glyph unicode="&#xb2;" horiz-adv-x="473" d="M31 401v48q0 18 5 35.5t22.5 40t50 51t90.5 67.5q55 37 89 63.5t52 48t24.5 41t6.5 40.5q0 51 -30 81.5t-83 30.5q-127 0 -156 -121l-63 11q16 82 72.5 127t142.5 45t137 -47.5t51 -133.5q0 -43 -17 -73.5t-45 -56t-61.5 -48t-66.5 -47.5q-76 -57 -112 -87t-40 -52h340 v-64h-409z" />
<glyph unicode="&#xb3;" horiz-adv-x="499" d="M31 512l53 33q31 -53 66.5 -71.5t101.5 -18.5q72 0 108.5 30.5t36.5 83.5q0 63 -45 91t-129 28h-59v62h49q78 0 121 24.5t43 83.5q0 41 -36 65.5t-83 24.5q-53 0 -84 -12t-61 -57l-52 32q39 53 86.5 76t106.5 23q37 0 71.5 -9.5t62.5 -28t44.5 -46t16.5 -64.5 q0 -51 -17.5 -85t-75.5 -56q53 -16 83 -52t30 -100q0 -94 -62.5 -134t-158.5 -40q-78 0 -134.5 29t-82.5 88z" />
<glyph unicode="&#xb4;" horiz-adv-x="346" d="M74 899l174 215h121l-215 -215h-80z" />
<glyph unicode="&#xb5;" horiz-adv-x="866" d="M129 -287v1096h92v-543q0 -100 35 -153.5t129 -53.5q39 0 69.5 11.5t59.5 32t59.5 49t69.5 63.5v594h94v-809h-94v129q-66 -70 -125 -107.5t-149 -37.5q-94 0 -148 36v-307h-92z" />
<glyph unicode="&#xb6;" d="M25 819q0 147 91 226t255 79h411v-69h-116v-1180h-78v1180h-164v-1180h-78v649q-68 0 -126 23.5t-102 63.5t-68.5 93.5t-24.5 114.5z" />
<glyph unicode="&#xb7;" horiz-adv-x="432" d="M137 406q0 33 24.5 55t53.5 22q31 0 54.5 -22.5t23.5 -54.5q0 -33 -23.5 -55.5t-54.5 -22.5q-29 0 -53.5 22.5t-24.5 55.5z" />
<glyph unicode="&#xb8;" horiz-adv-x="346" d="M0 -293l20 55q20 -6 47 -14t46 -8q53 0 77.5 13.5t24.5 47.5q0 35 -21.5 49.5t-48.5 14.5q-39 0 -67 -12l-23 18l92 129h60l-68 -78l4 -4q14 10 47 10q57 0 90 -34.5t33 -96.5q0 -31 -16 -53.5t-41 -37.5t-53.5 -22.5t-52.5 -7.5q-39 0 -77 7.5t-73 23.5z" />
<glyph unicode="&#xb9;" horiz-adv-x="538" d="M123 913v50l131 47h55v-545h107v-64h-279v64h101v475z" />
<glyph unicode="&#xba;" horiz-adv-x="423" d="M20 786q0 43 9.5 84t32 72t59.5 49.5t92 18.5t91 -18.5t58.5 -49.5t31.5 -72t9 -84t-9 -82.5t-31.5 -70.5t-58.5 -49.5t-91 -18.5t-92 18.5t-59.5 49.5t-32 70.5t-9.5 82.5zM96 786q0 -78 25.5 -117.5t91.5 -39.5t90.5 40t24.5 117q0 78 -24.5 119t-90.5 41t-91.5 -41 t-25.5 -119z" />
<glyph unicode="&#xbb;" d="M129 166l195 235l-195 242h100l191 -242l-191 -235h-100zM360 166l193 235l-193 242h103l186 -242l-186 -235h-103z" />
<glyph unicode="&#xbc;" horiz-adv-x="1220" d="M123 913v50l129 47h57v-545h105v-64h-279v64h101v475zM252 -14l610 1024h80l-610 -1024h-80zM641 143v68l268 387h92v-395h97v-60h-97v-143h-73v143h-287zM715 203h213v311h-4z" />
<glyph unicode="&#xbd;" horiz-adv-x="1214" d="M123 913v50l129 47h57v-545h105v-64h-279v64h101v475zM233 -14l613 1024h78l-609 -1024h-82zM680 0v45q0 18 5 35.5t22.5 40t50.5 52.5t90 71q55 35 88 61.5t51.5 48t24.5 40t6 38.5q0 51 -28.5 82t-80.5 31q-127 0 -157 -119l-64 8q16 82 73.5 127t143.5 45t136.5 -46 t50.5 -132q0 -43 -17.5 -74.5t-45.5 -57.5t-61.5 -48.5t-66.5 -46.5q-76 -55 -111.5 -86t-37.5 -56h338v-59h-410z" />
<glyph unicode="&#xbe;" horiz-adv-x="1218" d="M41 512l57 33q29 -53 65 -71.5t97 -18.5q74 0 112 30.5t38 83.5q0 63 -46.5 91t-127.5 28h-60v62h49q78 0 121 24.5t43 83.5q0 41 -35 65.5t-82 24.5q-27 0 -48 -2t-38.5 -10t-33 -21.5t-31.5 -35.5l-49 32q41 53 87 76t105 23q37 0 73 -9.5t63.5 -28t44 -46t16.5 -64.5 q0 -51 -17.5 -85t-74.5 -56q53 -16 82.5 -52t29.5 -100q0 -94 -62.5 -134t-158.5 -40q-162 0 -219 117zM272 -14l611 1024h78l-607 -1024h-82zM639 143v68l268 387h92v-395h97v-60h-97v-143h-73v143h-287zM713 203h213v311h-4z" />
<glyph unicode="&#xbf;" horiz-adv-x="604" d="M47 -76q0 78 41 133.5t91 105.5t91 103t41 127v74h84v-113q0 -59 -38 -110t-84 -102.5t-84.5 -109t-38.5 -130.5q0 -72 45 -110t110 -38q39 0 67.5 13.5t50 35t36 48t24.5 51.5l78 -39q-33 -88 -95.5 -141.5t-162.5 -53.5q-49 0 -96 16.5t-82 48t-56.5 80t-21.5 111.5z M293 670v139h131v-139h-131z" />
<glyph unicode="&#xc2;" horiz-adv-x="948" d="M41 0l381 993h106l379 -993h-110l-105 289h-436l-104 -289h-111zM242 1135l180 215h104l178 -215h-104l-125 158l-129 -158h-104zM285 379h381l-191 532z" />
<glyph unicode="&#xc4;" horiz-adv-x="948" d="M41 0l381 993h106l379 -993h-110l-105 289h-436l-104 -289h-111zM285 379h381l-191 532zM303 1130v148h102v-148h-102zM547 1130v148h102v-148h-102z" />
<glyph unicode="&#xc5;" horiz-adv-x="948" d="M41 0l381 993h106l379 -993h-110l-105 289h-436l-104 -289h-111zM285 379h381l-191 532zM319 1264q0 66 46.5 110.5t109.5 44.5q61 0 108.5 -45t47.5 -110q0 -66 -47 -111t-109 -45q-63 0 -109.5 45t-46.5 111zM371 1264q0 -41 30.5 -72t73.5 -31q41 0 71.5 31t30.5 72 q0 45 -30.5 73.5t-71.5 28.5q-43 0 -73.5 -28.5t-30.5 -73.5z" />
<glyph unicode="&#xc6;" horiz-adv-x="1329" d="M41 0l551 995h696v-86h-483v-336h422v-86h-422v-401h477v-86h-569v289h-404l-157 -289h-111zM350 379h363v532h-68z" />
<glyph unicode="&#xc7;" horiz-adv-x="776" d="M82 496q0 135 18.5 231t62.5 158.5t116.5 91.5t179.5 29q68 0 144.5 -21.5t131.5 -64.5l-63 -78q-47 41 -100.5 57t-114.5 16q-86 0 -140.5 -23.5t-85 -73.5t-41 -130t-10.5 -192q0 -113 10.5 -192t41 -130t85 -74.5t140.5 -23.5q61 0 114.5 16.5t100.5 57.5l63 -78 q-55 -43 -132 -64.5t-144 -21.5q-106 0 -179 28.5t-117 91t-62.5 159t-18.5 231.5zM274 -293l20 55q20 -6 47 -14t46 -8q53 0 77.5 13.5t24.5 47.5q0 35 -21.5 49.5t-48.5 14.5q-39 0 -67 -12l-23 18l92 129h60l-68 -78l4 -4q14 10 47 10q57 0 90 -34.5t33 -96.5 q0 -31 -16 -53.5t-41 -37.5t-53.5 -22.5t-52.5 -7.5q-39 0 -77 7.5t-73 23.5z" />
<glyph unicode="&#xca;" horiz-adv-x="749" d="M123 0v995h586v-86h-484v-336h422v-86h-422v-401h477v-86h-579zM199 1135l180 215h104l178 -215h-104l-125 158l-129 -158h-104z" />
<glyph unicode="&#xcb;" horiz-adv-x="749" d="M123 0v995h586v-86h-484v-336h422v-86h-422v-401h477v-86h-579zM281 1130v148h102v-148h-102zM525 1130v148h102v-148h-102z" />
<glyph unicode="&#xce;" horiz-adv-x="565" d="M41 0v86h188v823h-182v86h477v-86h-194v-823h188v-86h-477zM47 1135l180 215h104l178 -215h-104l-125 158l-129 -158h-104z" />
<glyph unicode="&#xcf;" horiz-adv-x="565" d="M41 0v86h188v823h-182v86h477v-86h-194v-823h188v-86h-477zM111 1130v148h102v-148h-102zM355 1130v148h102v-148h-102z" />
<glyph unicode="&#xd0;" horiz-adv-x="956" d="M-41 465v82h164v448h371q109 0 182.5 -31.5t117.5 -96t62 -161t18 -223.5q0 -119 -18 -210t-62 -151.5t-118 -91t-182 -30.5h-371v465h-164zM225 86h269q86 0 140 23.5t85 71.5t42 123t11 179q0 115 -11 195t-42 132t-85 75.5t-140 23.5h-269v-362h310v-82h-310v-379z " />
<glyph unicode="&#xd1;" horiz-adv-x="974" d="M123 0v995h170l457 -811v811h102v-995h-102l-525 909v-909h-102zM241 1130q4 55 41 104.5t97 49.5q29 0 57.5 -11t56.5 -26q29 -12 55.5 -22.5t53.5 -10.5q33 0 49 24t20 52h58q-8 -59 -38 -105t-99 -46q-25 0 -53.5 12t-57.5 25q-29 12 -57.5 22t-51.5 10 q-33 0 -50 -24.5t-21 -53.5h-60z" />
<glyph unicode="&#xd4;" horiz-adv-x="966" d="M82 485q0 256 91 386t310 130q109 0 185.5 -32.5t125 -97t70 -162t21.5 -224.5q0 -119 -21.5 -212t-70 -156.5t-125 -96t-185.5 -32.5q-217 0 -309 129t-92 368zM188 485q0 -104 13.5 -180t47.5 -125t90 -72.5t144 -23.5q86 0 143.5 23.5t91.5 72.5t47 125t13 180 q0 115 -13 195t-47 131t-91.5 74.5t-143.5 23.5q-88 0 -144 -23.5t-90 -74.5t-47.5 -131t-13.5 -195zM252 1135l180 215h104l178 -215h-104l-125 158l-129 -158h-104z" />
<glyph unicode="&#xd6;" horiz-adv-x="966" d="M82 485q0 256 91 386t310 130q109 0 185.5 -32.5t125 -97t70 -162t21.5 -224.5q0 -119 -21.5 -212t-70 -156.5t-125 -96t-185.5 -32.5q-217 0 -309 129t-92 368zM188 485q0 -104 13.5 -180t47.5 -125t90 -72.5t144 -23.5q86 0 143.5 23.5t91.5 72.5t47 125t13 180 q0 115 -13 195t-47 131t-91.5 74.5t-143.5 23.5q-88 0 -144 -23.5t-90 -74.5t-47.5 -131t-13.5 -195zM322 1130v148h102v-148h-102zM566 1130v148h102v-148h-102z" />
<glyph unicode="&#xd7;" horiz-adv-x="796" d="M51 176l291 291l-291 289l58 57l288 -293l291 293l57 -57l-290 -289l290 -291l-57 -57l-291 291l-288 -291z" />
<glyph unicode="&#xd8;" horiz-adv-x="966" d="M4 -123l160 252q-43 63 -62.5 151.5t-19.5 204.5q0 256 91 386t310 130q125 0 207 -43l119 181h102l-151 -230q66 -66 95.5 -171t29.5 -253q0 -119 -21.5 -212t-70 -156.5t-125 -96t-185.5 -32.5q-88 0 -153.5 20.5t-112.5 61.5l-123 -193h-90zM188 485q0 -84 8.5 -149.5 t28.5 -112.5l416 656q-62 30 -158 30q-88 0 -144 -23.5t-90 -74.5t-47.5 -131t-13.5 -195zM270 152q68 -68 213 -68q86 0 143.5 23.5t91.5 72.5t47 125t13 180q0 123 -15 206t-56 134z" />
<glyph unicode="&#xdb;" horiz-adv-x="1007" d="M123 330v665h102v-506q0 -61 -2 -111t-2 -91q0 -47 6 -85t29 -61q33 -35 99.5 -51t144.5 -16q76 0 148.5 16t103.5 51q23 23 28.5 61t5.5 85q0 41 -2 91t-2 111v506h103v-665q0 -96 -10.5 -148.5t-43.5 -93.5q-31 -33 -73.5 -52.5t-88.5 -30.5t-91.5 -14t-77.5 -3 q-33 0 -77 3t-89 13t-87 30.5t-71 53.5q-35 39 -44 92t-9 150zM281 1135l180 215h104l178 -215h-104l-125 158l-129 -158h-104z" />
<glyph unicode="&#xdc;" horiz-adv-x="1007" d="M123 330v665h102v-506q0 -61 -2 -111t-2 -91q0 -47 6 -85t29 -61q33 -35 99.5 -51t144.5 -16q76 0 148.5 16t103.5 51q23 23 28.5 61t5.5 85q0 41 -2 91t-2 111v506h103v-665q0 -96 -10.5 -148.5t-43.5 -93.5q-31 -33 -73.5 -52.5t-88.5 -30.5t-91.5 -14t-77.5 -3 q-33 0 -77 3t-89 13t-87 30.5t-71 53.5q-35 39 -44 92t-9 150zM338 1130v148h102v-148h-102zM582 1130v148h102v-148h-102z" />
<glyph unicode="&#xde;" horiz-adv-x="911" d="M156 0v995h102v-145h236q100 0 166.5 -25.5t105.5 -70.5t54.5 -105.5t15.5 -132.5q0 -70 -15.5 -131t-54.5 -106.5t-105.5 -71t-166.5 -25.5h-236v-182h-102zM258 266h236q74 0 119.5 18.5t71.5 51.5t36 79t10 101t-10 101.5t-36 78t-72 50t-119 18.5h-236v-498z" />
<glyph unicode="&#xdf;" d="M119 0v829q0 133 67.5 214t206.5 81q59 0 108.5 -21.5t84.5 -58t54 -88t19 -110.5q0 -78 -35.5 -138.5t-105.5 -95.5q104 -33 157.5 -110.5t53.5 -188.5q0 -152 -68.5 -240.5t-197.5 -88.5q-33 0 -73 10t-68 26l32 70q23 -12 54.5 -21.5t60.5 -9.5q80 0 124 64.5 t44 177.5q0 141 -71.5 200.5t-211.5 59.5v74q100 4 155.5 51t55.5 164q0 94 -46 146.5t-142 52.5q-49 0 -81 -18.5t-50.5 -49.5t-25.5 -69t-7 -76v-836h-94z" />
<glyph unicode="&#xe2;" d="M41 217q0 82 34 133t99.5 81t161.5 42t223 19v96q0 82 -41 123t-145 41q-76 0 -134.5 -40t-111.5 -108q-8 -10 -22.5 -4t-28.5 16q-16 12 -33 33q84 98 167 137t167 39q139 0 204.5 -59t65.5 -195v-424q0 -47 7.5 -80.5t13.5 -50.5q-37 -16 -68 -16q-18 0 -29 16 q-6 16 -10 47q-2 17 -2 35q-72 -59 -137.5 -86.5t-159.5 -27.5t-157.5 65.5t-63.5 167.5zM127 219q0 -68 44 -114t108 -46q66 0 140.5 36t135.5 98v223q-135 -2 -219 -19.5t-130 -44t-62.5 -61.5t-16.5 -72zM156 899l180 215h104l178 -215h-104l-125 158l-129 -158h-104z " />
<glyph unicode="&#xe4;" d="M41 217q0 82 34 133t99.5 81t161.5 42t223 19v96q0 82 -41 123t-145 41q-76 0 -134.5 -40t-111.5 -108q-8 -10 -22.5 -4t-28.5 16q-16 12 -33 33q84 98 167 137t167 39q139 0 204.5 -59t65.5 -195v-424q0 -47 7.5 -80.5t13.5 -50.5q-37 -16 -68 -16q-18 0 -29 16 q-6 16 -10 47q-2 17 -2 35q-72 -59 -137.5 -86.5t-159.5 -27.5t-157.5 65.5t-63.5 167.5zM127 219q0 -68 44 -114t108 -46q66 0 140.5 36t135.5 98v223q-135 -2 -219 -19.5t-130 -44t-62.5 -61.5t-16.5 -72zM203 915v148h102v-148h-102zM447 915v148h102v-148h-102z" />
<glyph unicode="&#xe5;" d="M41 217q0 82 34 133t99.5 81t161.5 42t223 19v96q0 82 -41 123t-145 41q-76 0 -134.5 -40t-111.5 -108q-8 -10 -22.5 -4t-28.5 16q-16 12 -33 33q84 98 167 137t167 39q139 0 204.5 -59t65.5 -195v-424q0 -47 7.5 -80.5t13.5 -50.5q-37 -16 -68 -16q-18 0 -29 16 q-6 16 -10 47q-2 17 -2 35q-72 -59 -137.5 -86.5t-159.5 -27.5t-157.5 65.5t-63.5 167.5zM127 219q0 -68 44 -114t108 -46q66 0 140.5 36t135.5 98v223q-135 -2 -219 -19.5t-130 -44t-62.5 -61.5t-16.5 -72zM208 1049q0 66 46.5 110.5t109.5 44.5q61 0 108.5 -45t47.5 -110 q0 -66 -47 -111t-109 -45q-63 0 -109.5 45t-46.5 111zM260 1049q0 -41 30.5 -72t73.5 -31q41 0 71.5 31t30.5 72q0 45 -30.5 73.5t-71.5 28.5q-43 0 -73.5 -28.5t-30.5 -73.5z" />
<glyph unicode="&#xe6;" horiz-adv-x="1275" d="M41 217q0 82 32.5 133t97.5 80t162 40t226 11v107q0 82 -41 123t-145 41q-72 0 -130.5 -39t-105.5 -109l-71 39q61 98 144 140t167 42q102 0 162.5 -38.5t87.5 -106.5q41 61 99 103t151 42q82 0 141 -30.5t97 -87t56.5 -134t18.5 -172.5h-543q0 -70 11.5 -131t39 -108 t73.5 -75t116 -28q78 0 134 34t101 128l76 -39q-49 -109 -126 -153.5t-193 -44.5q-94 0 -155.5 39.5t-107.5 113.5q-74 -78 -153.5 -115.5t-200.5 -37.5q-94 0 -157.5 65.5t-63.5 167.5zM127 219q0 -68 44 -114t108 -46q94 0 158.5 36t117.5 98v213q-135 0 -219 -15.5 t-130 -41t-62.5 -59.5t-16.5 -71zM647 477h449q-6 61 -19.5 112.5t-38 87.5t-64.5 55.5t-102 19.5q-61 0 -104 -25t-69.5 -64.5t-39 -89t-12.5 -96.5z" />
<glyph unicode="&#xe7;" d="M57 406q0 207 76 313t262 106q104 0 169 -44t114 -130l-80 -28q-33 55 -78 92t-125 37q-72 0 -120 -18.5t-75.5 -60.5t-38.5 -107.5t-11 -159.5q0 -78 9 -141.5t35.5 -109.5t74.5 -71t124 -25q86 0 136.5 43t76.5 91l72 -41q-18 -33 -44 -63t-59.5 -53.5t-78.5 -37.5 t-103 -14q-100 0 -165.5 31.5t-103.5 87t-52.5 133t-14.5 170.5zM209 -293l20 55q20 -6 47 -14t46 -8q53 0 77.5 13.5t24.5 47.5q0 35 -21.5 49.5t-48.5 14.5q-39 0 -67 -12l-23 18l92 129h60l-68 -78l4 -4q14 10 47 10q57 0 90 -34.5t33 -96.5q0 -31 -16 -53.5t-41 -37.5 t-53.5 -22.5t-52.5 -7.5q-39 0 -77 7.5t-73 23.5z" />
<glyph unicode="&#xea;" d="M57 406q0 117 28 196.5t74 129.5t108.5 71.5t131.5 21.5q82 0 141.5 -30.5t97.5 -87t56.5 -134t18.5 -172.5h-563q0 -70 14 -131t46 -108t81 -75t119 -28q39 0 69.5 8.5t57 27t52 49t56.5 77.5l76 -39q-33 -53 -64.5 -91t-68.5 -61.5t-82 -34.5t-105 -11q-160 0 -252 103 t-92 319zM150 477h468q-4 133 -60 204t-163 71q-61 0 -107 -22.5t-77 -59.5t-46 -87.5t-15 -105.5zM168 899l180 215h104l178 -215h-104l-125 158l-129 -158h-104z" />
<glyph unicode="&#xeb;" d="M57 406q0 117 28 196.5t74 129.5t108.5 71.5t131.5 21.5q82 0 141.5 -30.5t97.5 -87t56.5 -134t18.5 -172.5h-563q0 -70 14 -131t46 -108t81 -75t119 -28q39 0 69.5 8.5t57 27t52 49t56.5 77.5l76 -39q-33 -53 -64.5 -91t-68.5 -61.5t-82 -34.5t-105 -11q-160 0 -252 103 t-92 319zM150 477h468q-4 133 -60 204t-163 71q-61 0 -107 -22.5t-77 -59.5t-46 -87.5t-15 -105.5zM223 915v148h102v-148h-102zM467 915v148h102v-148h-102z" />
<glyph unicode="&#xee;" horiz-adv-x="346" d="M-59 899l180 215h104l178 -215h-104l-125 158l-129 -158h-104zM127 0v809h92v-809h-92z" />
<glyph unicode="&#xef;" horiz-adv-x="346" d="M0 915v148h102v-148h-102zM127 0v809h92v-809h-92zM244 915v148h102v-148h-102z" />
<glyph unicode="&#xf0;" d="M57 406q0 82 16.5 157.5t55.5 134t102.5 93t157.5 34.5q90 0 154 -34l4 4q-23 39 -48.5 77.5t-58.5 73.5l-157 -84l-45 62l145 75q-25 25 -52.5 45.5t-60.5 38.5l84 41q29 -20 56.5 -40.5t52.5 -43.5l158 84l45 -61l-146 -78q61 -63 100 -135t62 -145.5t31 -149.5t8 -149 q0 -82 -16.5 -159t-54.5 -135.5t-101.5 -93t-159.5 -34.5q-94 0 -157.5 34.5t-102.5 93t-55.5 135.5t-16.5 159zM150 406q0 -166 56 -256.5t183 -90.5t183.5 90.5t56.5 256.5t-56.5 256t-183.5 90t-183 -90.5t-56 -255.5z" />
<glyph unicode="&#xf1;" horiz-adv-x="866" d="M129 0v809h92v-125q49 68 118 104.5t159 36.5q127 0 183 -70.5t56 -201.5v-553h-94v543q0 102 -35 155.5t-129 53.5q-76 0 -136 -43t-122 -113v-596h-92zM256 915q4 55 41 104.5t97 49.5q29 0 57.5 -11t56.5 -26q29 -12 55.5 -22.5t53.5 -10.5q33 0 49 24t20 52h58 q-8 -59 -38 -105t-99 -46q-25 0 -53.5 12t-57.5 25q-29 12 -57.5 22t-51.5 10q-33 0 -50 -24.5t-21 -53.5h-60z" />
<glyph unicode="&#xf4;" d="M57 406q0 98 16.5 175.5t55.5 132t102.5 83t157.5 28.5q96 0 159.5 -28.5t101.5 -83t54.5 -132t16.5 -175.5t-16.5 -176t-54.5 -133.5t-101.5 -84t-159.5 -28.5q-94 0 -157.5 28.5t-102.5 84t-55.5 133t-16.5 176.5zM150 406q0 -166 49 -256.5t190 -90.5t190.5 90.5 t49.5 256.5q0 82 -11.5 146t-38 108.5t-72.5 68t-118 23.5q-70 0 -117 -23.5t-73.5 -68t-37.5 -109t-11 -145.5zM154 899l180 215h104l178 -215h-104l-125 158l-129 -158h-104z" />
<glyph unicode="&#xf6;" d="M57 406q0 98 16.5 175.5t55.5 132t102.5 83t157.5 28.5q96 0 159.5 -28.5t101.5 -83t54.5 -132t16.5 -175.5t-16.5 -176t-54.5 -133.5t-101.5 -84t-159.5 -28.5q-94 0 -157.5 28.5t-102.5 84t-55.5 133t-16.5 176.5zM150 406q0 -166 49 -256.5t190 -90.5t190.5 90.5 t49.5 256.5q0 82 -11.5 146t-38 108.5t-72.5 68t-118 23.5q-70 0 -117 -23.5t-73.5 -68t-37.5 -109t-11 -145.5zM213 915v148h102v-148h-102zM457 915v148h102v-148h-102z" />
<glyph unicode="&#xf7;" horiz-adv-x="823" d="M72 422v86h680v-86h-680zM336 178q0 31 22.5 53.5t53.5 22.5t53 -22.5t22 -53.5q0 -29 -22.5 -51.5t-52.5 -22.5q-31 0 -53.5 23t-22.5 51zM336 750q0 29 22.5 51t53.5 22t53 -22.5t22 -50.5q0 -31 -22.5 -53.5t-52.5 -22.5q-31 0 -53.5 22.5t-22.5 53.5z" />
<glyph unicode="&#xf8;" d="M4 -123l133 209q-43 53 -61.5 134t-18.5 186q0 98 16.5 175.5t55.5 132t102.5 83t157.5 28.5q117 0 193 -47l112 176h84l-143 -223q47 -53 66.5 -136t19.5 -189q0 -98 -16.5 -176t-54.5 -133.5t-101.5 -84t-159.5 -28.5q-66 0 -115 13t-86 38l-100 -158h-84zM150 406 q0 -76 8 -135.5t30 -104.5l349 543q-51 43 -148 43q-70 0 -117 -23.5t-73.5 -68t-37.5 -109t-11 -145.5zM233 106q57 -47 156 -47q141 0 190.5 90.5t49.5 256.5q0 78 -10.5 140t-34.5 105z" />
<glyph unicode="&#xfb;" horiz-adv-x="866" d="M129 256v553h92v-543q0 -100 35 -153.5t129 -53.5q78 0 144.5 42t113.5 114v594h94v-641q0 -72 7.5 -101.5t13.5 -50.5q-16 -8 -30.5 -12t-31.5 -4q-8 0 -19 3t-18 13q-4 8 -6 25.5t-4 38.5q-2 22 -2 49q-35 -70 -111.5 -107.5t-166.5 -37.5q-129 0 -184.5 70.5 t-55.5 201.5zM211 899l180 215h104l178 -215h-104l-125 158l-129 -158h-104z" />
<glyph unicode="&#xfc;" horiz-adv-x="866" d="M129 256v553h92v-543q0 -100 35 -153.5t129 -53.5q78 0 144.5 42t113.5 114v594h94v-641q0 -72 7.5 -101.5t13.5 -50.5q-16 -8 -30.5 -12t-31.5 -4q-8 0 -19 3t-18 13q-4 8 -6 25.5t-4 38.5q-2 22 -2 49q-35 -70 -111.5 -107.5t-166.5 -37.5q-129 0 -184.5 70.5 t-55.5 201.5zM266 915v148h102v-148h-102zM510 915v148h102v-148h-102z" />
<glyph unicode="&#xfe;" horiz-adv-x="866" d="M143 -287v1411h95v-440h2q47 72 106.5 106.5t138.5 34.5q78 0 138.5 -34.5t101.5 -94t62.5 -135.5t21.5 -160q0 -213 -88 -315t-232 -102q-82 0 -137 28.5t-114 91.5v-391h-95zM238 205q12 -20 35.5 -46t54 -47.5t66.5 -37t71 -15.5q129 0 190.5 94.5t61.5 262.5 q0 63 -14.5 123.5t-43 107.5t-73.5 76t-107 29q-78 0 -130 -43t-111 -105v-399z" />
<glyph unicode="&#xff;" horiz-adv-x="690" d="M10.5 -251q-2.5 15 1.5 31.5t10.5 32t12.5 19.5q23 -16 42 -28.5t48 -12.5q47 0 93 48t81 173l-279 797h101l223 -657h2l225 657h103l-303 -868q-41 -117 -95.5 -172.5t-162.5 -55.5q-31 0 -51.5 5.5t-36.5 11.5q-12 4 -14.5 19zM172 915v148h102v-148h-102zM416 915v148 h102v-148h-102z" />
<glyph unicode="&#x102;" horiz-adv-x="948" d="M41 0l381 993h106l379 -993h-110l-105 289h-436l-104 -289h-111zM252 1319h69q14 -70 53.5 -98.5t102.5 -28.5q59 0 99 29t55 98h69q-6 -92 -65.5 -144t-157.5 -52t-158.5 52t-66.5 144zM285 379h381l-191 532z" />
<glyph unicode="&#x103;" d="M41 217q0 82 34 133t99.5 81t161.5 42t223 19v96q0 82 -41 123t-145 41q-76 0 -134.5 -40t-111.5 -108q-8 -10 -22.5 -4t-28.5 16q-16 12 -33 33q84 98 167 137t167 39q139 0 204.5 -59t65.5 -195v-424q0 -47 7.5 -80.5t13.5 -50.5q-37 -16 -68 -16q-18 0 -29 16 q-6 16 -10 47q-2 17 -2 35q-72 -59 -137.5 -86.5t-159.5 -27.5t-157.5 65.5t-63.5 167.5zM127 219q0 -68 44 -114t108 -46q66 0 140.5 36t135.5 98v223q-135 -2 -219 -19.5t-130 -44t-62.5 -61.5t-16.5 -72zM170 1122h69q14 -70 53.5 -98.5t102.5 -28.5q59 0 99 29t55 98h69 q-6 -92 -65.5 -144t-157.5 -52t-158.5 52t-66.5 144z" />
<glyph unicode="&#x106;" horiz-adv-x="776" d="M82 496q0 135 18.5 231t62.5 158.5t116.5 91.5t179.5 29q68 0 144.5 -21.5t131.5 -64.5l-63 -78q-47 41 -100.5 57t-114.5 16q-86 0 -140.5 -23.5t-85 -73.5t-41 -130t-10.5 -192q0 -113 10.5 -192t41 -130t85 -74.5t140.5 -23.5q61 0 114.5 16.5t100.5 57.5l63 -78 q-55 -43 -132 -64.5t-144 -21.5q-106 0 -179 28.5t-117 91t-62.5 159t-18.5 231.5zM409 1133l174 215h121l-215 -215h-80z" />
<glyph unicode="&#x107;" d="M57 406q0 207 76 313t262 106q104 0 169 -44t114 -130l-80 -28q-33 55 -78 92t-125 37q-72 0 -120 -18.5t-75.5 -60.5t-38.5 -107.5t-11 -159.5q0 -78 9 -141.5t35.5 -109.5t74.5 -71t124 -25q86 0 136.5 43t76.5 91l72 -41q-18 -33 -44 -63t-59.5 -53.5t-78.5 -37.5 t-103 -14q-100 0 -165.5 31.5t-103.5 87t-52.5 133t-14.5 170.5zM342 965l174 215h121l-215 -215h-80z" />
<glyph unicode="&#x10c;" horiz-adv-x="776" d="M82 496q0 135 18.5 231t62.5 158.5t116.5 91.5t179.5 29q68 0 144.5 -21.5t131.5 -64.5l-63 -78q-47 41 -100.5 57t-114.5 16q-86 0 -140.5 -23.5t-85 -73.5t-41 -130t-10.5 -192q0 -113 10.5 -192t41 -130t85 -74.5t140.5 -23.5q61 0 114.5 16.5t100.5 57.5l63 -78 q-55 -43 -132 -64.5t-144 -21.5q-106 0 -179 28.5t-117 91t-62.5 159t-18.5 231.5zM228 1335h104l129 -157l125 157h104l-178 -215h-104z" />
<glyph unicode="&#x10d;" d="M57 406q0 207 76 313t262 106q104 0 169 -44t114 -130l-80 -28q-33 55 -78 92t-125 37q-72 0 -120 -18.5t-75.5 -60.5t-38.5 -107.5t-11 -159.5q0 -78 9 -141.5t35.5 -109.5t74.5 -71t124 -25q86 0 136.5 43t76.5 91l72 -41q-18 -33 -44 -63t-59.5 -53.5t-78.5 -37.5 t-103 -14q-100 0 -165.5 31.5t-103.5 87t-52.5 133t-14.5 170.5zM170 1130h104l129 -157l125 157h104l-178 -215h-104z" />
<glyph unicode="&#x110;" horiz-adv-x="956" d="M-41 465v82h164v448h371q109 0 182.5 -31.5t117.5 -96t62 -161t18 -223.5q0 -119 -18 -210t-62 -151.5t-118 -91t-182 -30.5h-371v465h-164zM225 86h269q86 0 140 23.5t85 71.5t42 123t11 179q0 115 -11 195t-42 132t-85 75.5t-140 23.5h-269v-362h310v-82h-310v-379z " />
<glyph unicode="&#x111;" horiz-adv-x="856" d="M57 410q0 195 60.5 305t218.5 110q41 0 82 -7t79 -19.5t69.5 -26.5t51.5 -27v199h-204v72h204v108h95v-108h143v-72h-143v-944h-66l-14 104q-61 -63 -129 -91.5t-154 -28.5q-141 0 -217 101t-76 325zM150 393q0 -78 9 -139t32.5 -104.5t63.5 -67t101 -23.5q86 0 151.5 42 t110.5 106v438q-16 16 -45.5 35.5t-65.5 35t-74 26t-73 10.5q-72 0 -113.5 -23.5t-63 -69t-27.5 -113t-6 -153.5z" />
<glyph unicode="&#x11e;" horiz-adv-x="890" d="M102 496q0 135 18.5 231t62.5 158.5t117 91.5t179 29q68 0 144.5 -21.5t132.5 -64.5l-64 -78q-47 41 -100 57t-115 16q-86 0 -140 -23.5t-85 -73.5t-41 -130t-10 -192q0 -113 10 -192t41 -130t85 -74.5t140 -23.5q61 0 114.5 16.5t100.5 57.5v292h-84q-39 0 -61.5 -4 t-34.5 -6t-17.5 0t-11.5 14q-10 20 -12 46t4 38h313v-419q-41 -43 -117.5 -84t-191.5 -41q-106 0 -179 28.5t-117 91t-62.5 158.5t-18.5 232zM268 1339h69q14 -70 53.5 -98.5t102.5 -28.5q59 0 99 29t55 98h69q-6 -92 -65.5 -144t-157.5 -52t-158.5 52t-66.5 144z" />
<glyph unicode="&#x11f;" d="M39 -96q0 53 24.5 97t110.5 75v4q-59 10 -80.5 42t-21.5 75q0 53 26.5 82.5t69.5 39.5q-55 35 -76.5 92.5t-21.5 120.5q0 143 71.5 218t249.5 75q63 0 108.5 -15t73.5 -32q35 35 75 56.5t89 21.5q10 0 15.5 -10t7.5 -25.5t-1 -32t-9 -30.5q-33 0 -65.5 -4t-57.5 -27 q27 -35 39 -77t12 -101q0 -86 -22.5 -141.5t-63.5 -88t-98.5 -45t-128.5 -12.5q-82 0 -142 21q-39 -16 -53 -34t-14 -40q0 -18 9 -30.5t35.5 -19.5t77 -11.5t132.5 -4.5q182 0 257.5 -47t75.5 -162q0 -59 -16 -101t-58 -68.5t-111 -39t-173 -12.5t-172 13.5t-106.5 39 t-53 60.5t-14.5 78zM133 -78q0 -45 13.5 -71.5t42 -41t73.5 -18.5t109 -4q76 0 128 4t85.5 18.5t49 42t15.5 74.5q0 41 -10 66.5t-41 41t-87 20.5t-146 5q-70 0 -114 -11t-70.5 -30.5t-37 -44t-10.5 -51.5zM164 543q0 -63 14.5 -103.5t41 -62t65.5 -29.5t88 -8q57 0 97 8 t65.5 29.5t37 61.5t11.5 104q0 66 -11.5 105.5t-37 63t-65.5 32t-97 8.5q-113 0 -161 -45t-48 -164zM164 1122h69q14 -70 53.5 -98.5t102.5 -28.5q59 0 99 29t55 98h69q-6 -92 -65.5 -144t-157.5 -52t-158.5 52t-66.5 144z" />
<glyph unicode="&#x130;" horiz-adv-x="565" d="M41 0v86h188v823h-182v86h477v-86h-194v-823h188v-86h-477zM230 1177v148h102v-148h-102z" />
<glyph unicode="&#x131;" horiz-adv-x="346" d="M127 0v809h92v-809h-92z" />
<glyph unicode="&#x141;" d="M25 451v98l131 53v522h102v-481l266 107v-99l-266 -104v-463h502v-84h-604v504z" />
<glyph unicode="&#x142;" horiz-adv-x="346" d="M2 455v100l125 63v506h92v-456l125 63v-98l-125 -66v-567h-92v520z" />
<glyph unicode="&#x152;" horiz-adv-x="1347" d="M82 485q0 256 91 386t310 130q59 0 128 -3t110 -3h586v-86h-484v-336h422v-86h-422v-401h477v-86h-579q-27 0 -93.5 -6t-144.5 -6q-217 0 -309 129t-92 368zM184 485q0 -104 14.5 -180t48.5 -125t91 -73.5t145 -24.5q66 0 134.5 8t103.5 23v776q-39 8 -105.5 15t-132.5 7 q-88 0 -145 -23.5t-91 -75.5t-48.5 -132t-14.5 -195z" />
<glyph unicode="&#x153;" horiz-adv-x="1296" d="M57 406q0 82 16.5 157.5t54.5 134t100.5 93t154.5 34.5q106 0 170.5 -50t95.5 -126q12 31 35 62.5t55.5 57.5t76.5 41t102 15q80 0 139 -30.5t98 -87t57.5 -134t18.5 -172.5h-531q0 -70 11.5 -131t38 -108t70.5 -75t108 -28q39 0 69.5 8.5t57 27t52.5 49t56 77.5l78 -39 q-66 -106 -136.5 -152t-184.5 -46q-98 0 -164 45t-109 133q-33 -76 -94 -127t-170 -51q-92 0 -154.5 34.5t-100.5 93t-54.5 135.5t-16.5 159zM150 406q0 -166 55 -256.5t178 -90.5q113 0 168 90.5t55 256.5t-55 256t-168 90q-123 0 -178 -90t-55 -256zM700 477h439 q-16 125 -67.5 200t-156.5 75q-55 0 -95 -21.5t-64.5 -59.5t-37.5 -88.5t-18 -105.5z" />
<glyph unicode="&#x15e;" horiz-adv-x="913" d="M82 295l96 29q33 -131 111 -190.5t213 -59.5q106 0 166.5 45t60.5 147q0 68 -46 106t-113.5 62.5t-148.5 45t-148.5 52t-113.5 84t-46 142.5q0 117 84 179t243 62q135 0 229.5 -69.5t135.5 -202.5l-90 -27q-31 96 -97.5 155.5t-177.5 59.5q-225 0 -225 -157 q0 -68 46 -106t113.5 -63.5t148.5 -45t148.5 -50t113.5 -79.5t46 -133q0 -147 -86 -220t-245 -73q-174 0 -272.5 73.5t-145.5 233.5zM350 -293l20 55q20 -6 47 -14t46 -8q53 0 77.5 13.5t24.5 47.5q0 35 -21.5 49.5t-48.5 14.5q-39 0 -67 -12l-23 18l92 129h60l-68 -78l4 -4 q14 10 47 10q57 0 90 -34.5t33 -96.5q0 -31 -16 -53.5t-41 -37.5t-53.5 -22.5t-52.5 -7.5q-39 0 -77 7.5t-73 23.5z" />
<glyph unicode="&#x15f;" horiz-adv-x="690" d="M39 147l18 19q8 8 16.5 15t16.5 12q23 10 37 -9q53 -68 111.5 -96.5t119.5 -28.5q78 0 129.5 45.5t51.5 110.5q0 57 -36 89t-88.5 51.5t-114.5 33.5t-114.5 38t-88.5 64.5t-36 112.5q0 57 24 99t61.5 69t83.5 40t89 13q86 0 161 -37.5t118 -107.5q-6 -8 -14 -16 q-6 -6 -15.5 -13.5t-23.5 -11.5q-10 -4 -15.5 0t-15.5 16q-37 47 -84 72t-115 25t-113.5 -35t-45.5 -109q0 -49 35.5 -75.5t88 -45t115 -34t114.5 -42t88 -72.5t36 -124q0 -55 -23.5 -98t-62.5 -73t-89 -45t-106 -15q-94 0 -175 38.5t-138 124.5zM190 -293l20 55 q20 -6 47 -14t46 -8q53 0 77.5 13.5t24.5 47.5q0 35 -21.5 49.5t-48.5 14.5q-39 0 -67 -12l-23 18l92 129h60l-68 -78l4 -4q14 10 47 10q57 0 90 -34.5t33 -96.5q0 -31 -16 -53.5t-41 -37.5t-53.5 -22.5t-52.5 -7.5q-39 0 -77 7.5t-73 23.5z" />
<glyph unicode="&#x160;" horiz-adv-x="913" d="M82 295l96 29q33 -131 111 -190.5t213 -59.5q106 0 166.5 45t60.5 147q0 68 -46 106t-113.5 62.5t-148.5 45t-148.5 52t-113.5 84t-46 142.5q0 117 84 179t243 62q135 0 229.5 -69.5t135.5 -202.5l-90 -27q-31 96 -97.5 155.5t-177.5 59.5q-225 0 -225 -157 q0 -68 46 -106t113.5 -63.5t148.5 -45t148.5 -50t113.5 -79.5t46 -133q0 -147 -86 -220t-245 -73q-174 0 -272.5 73.5t-145.5 233.5zM211 1316h104l129 -157l125 157h104l-178 -215h-104z" />
<glyph unicode="&#x161;" horiz-adv-x="690" d="M39 147l18 19q8 8 16.5 15t16.5 12q23 10 37 -9q53 -68 111.5 -96.5t119.5 -28.5q78 0 129.5 45.5t51.5 110.5q0 57 -36 89t-88.5 51.5t-114.5 33.5t-114.5 38t-88.5 64.5t-36 112.5q0 57 24 99t61.5 69t83.5 40t89 13q86 0 161 -37.5t118 -107.5q-6 -8 -14 -16 q-6 -6 -15.5 -13.5t-23.5 -11.5q-10 -4 -15.5 0t-15.5 16q-37 47 -84 72t-115 25t-113.5 -35t-45.5 -109q0 -49 35.5 -75.5t88 -45t115 -34t114.5 -42t88 -72.5t36 -124q0 -55 -23.5 -98t-62.5 -73t-89 -45t-106 -15q-94 0 -175 38.5t-138 124.5zM168 1130h104l129 -157 l125 157h104l-178 -215h-104z" />
<glyph unicode="&#x178;" horiz-adv-x="866" d="M41 995h111l282 -522l281 522h110l-342 -606v-389h-102v389zM260 1089v148h102v-148h-102zM504 1089v148h102v-148h-102z" />
<glyph unicode="&#x17d;" horiz-adv-x="811" d="M82 907v88h637v-94l-514 -815h524v-86h-643v86l520 821h-524zM211 1316h104l129 -157l125 157h104l-178 -215h-104z" />
<glyph unicode="&#x17e;" horiz-adv-x="690" d="M39 0v59l467 676h-430v74h555v-57l-467 -678h479v-74h-604zM168 1130h104l129 -157l125 157h104l-178 -215h-104z" />
<glyph unicode="&#x192;" horiz-adv-x="784" d="M41 -274l12 90l25.5 -8.5t25.5 -4.5q86 0 122 67t57 189l73 529h-202v71h213q6 61 18 139.5t40 148t78 116.5t132 47q49 0 88 -8l-14 -80q-12 2 -24.5 3t-22.5 1q-63 0 -99.5 -36t-53.5 -89t-24.5 -117.5t-17.5 -124.5h180v-71h-190l-86 -606q-8 -53 -28.5 -100.5 t-54.5 -83.5t-81 -56.5t-107 -20.5q-16 0 -29.5 1.5t-29.5 3.5z" />
<glyph unicode="&#x1a0;" horiz-adv-x="966" d="M82 485q0 256 91 386t310 130q190 0 289 -104q66 20 89.5 60t8.5 106l97 31q16 -94 -30 -166t-124 -90q72 -125 72 -353q0 -119 -21.5 -212t-70 -156.5t-125 -96t-185.5 -32.5q-217 0 -309 129t-92 368zM188 485q0 -104 13.5 -180t47.5 -125t90 -72.5t144 -23.5 q86 0 143.5 23.5t91.5 72.5t47 125t13 180q0 115 -13 195t-47 131t-91.5 74.5t-143.5 23.5q-88 0 -144 -23.5t-90 -74.5t-47.5 -131t-13.5 -195z" />
<glyph unicode="&#x1a1;" d="M57 406q0 98 16.5 175.5t55.5 132t102.5 83t157.5 28.5q127 0 207 -57q66 16 87.5 53t6.5 99l86 28q8 -41 2 -80t-23.5 -70.5t-45 -53t-64.5 -25.5q41 -53 58.5 -133t17.5 -180q0 -98 -16.5 -176t-54.5 -133.5t-101.5 -84t-159.5 -28.5q-94 0 -157.5 28.5t-102.5 84 t-55.5 133t-16.5 176.5zM150 406q0 -82 8 -146.5t33.5 -110t72.5 -68t125 -22.5t125 22.5t72.5 68t34 110t8.5 146.5t-8.5 146t-34 108.5t-72.5 68t-125 23.5t-125 -23.5t-72.5 -68t-33.5 -109t-8 -145.5z" />
<glyph unicode="&#x1af;" horiz-adv-x="1007" d="M123 330v665h102v-506q0 -61 -2 -111t-2 -91q0 -47 6 -85t29 -61q33 -35 99.5 -51t144.5 -16q76 0 148.5 16t103.5 51q23 23 28.5 61t5.5 85q0 41 -2 91t-2 111v506h103v-135q39 2 63.5 22.5t36.5 50.5t13 64.5t-5 65.5l97 31q8 -61 -3.5 -115.5t-38 -97.5t-67.5 -69 t-96 -28v-454q0 -96 -10.5 -148.5t-43.5 -93.5q-31 -33 -73.5 -52.5t-88.5 -30.5t-91.5 -14t-77.5 -3q-33 0 -77 3t-89 13t-87 30.5t-71 53.5q-35 39 -44 92t-9 150z" />
<glyph unicode="&#x1b0;" horiz-adv-x="866" d="M129 256v553h92v-543q0 -100 35 -153.5t129 -53.5q39 0 69.5 11.5t59.5 32t59.5 49t69.5 63.5v594h94v-115q31 10 49.5 28.5t27.5 43.5t10 51.5t-3 52.5l86 21q8 -98 -31.5 -172t-138.5 -96v-623h-94v129q-66 -70 -125 -107.5t-149 -37.5q-129 0 -184.5 70.5t-55.5 201.5 z" />
<glyph unicode="&#x2c6;" horiz-adv-x="346" d="M-59 899l180 215h104l178 -215h-104l-125 158l-129 -158h-104z" />
<glyph unicode="&#x2c7;" horiz-adv-x="346" d="M-59 1130h104l129 -157l125 157h104l-178 -215h-104z" />
<glyph unicode="&#x2d8;" horiz-adv-x="346" d="M-51 1122h69q14 -70 53.5 -98.5t102.5 -28.5q59 0 99 29t55 98h69q-6 -92 -65.5 -144t-157.5 -52t-158.5 52t-66.5 144z" />
<glyph unicode="&#x2d9;" horiz-adv-x="346" d="M121 915v148h102v-148h-102z" />
<glyph unicode="&#x2da;" horiz-adv-x="346" d="M18 1049q0 66 46.5 110.5t109.5 44.5q61 0 108.5 -45t47.5 -110q0 -66 -47 -111t-109 -45q-63 0 -109.5 45t-46.5 111zM70 1049q0 -41 30.5 -72t73.5 -31q41 0 71.5 31t30.5 72q0 45 -30.5 73.5t-71.5 28.5q-43 0 -73.5 -28.5t-30.5 -73.5z" />
<glyph unicode="&#x2db;" horiz-adv-x="346" d="M4 -197q0 57 36 96.5t87 65t107.5 40.5t99.5 24v-13q-33 -14 -74 -31.5t-77 -41t-60.5 -54t-24.5 -71.5q0 -27 18.5 -45.5t65.5 -18.5q37 0 84 21.5t78 38.5l27 -54q-45 -29 -106.5 -55.5t-114.5 -26.5q-59 0 -102.5 28t-43.5 97z" />
<glyph unicode="&#x2dc;" horiz-adv-x="346" d="M-72 915q4 55 41 104.5t97 49.5q29 0 57.5 -11t56.5 -26q29 -12 55.5 -22.5t53.5 -10.5q33 0 49 24t20 52h58q-8 -59 -38 -105t-99 -46q-25 0 -53.5 12t-57.5 25q-29 12 -57.5 22t-51.5 10q-33 0 -50 -24.5t-21 -53.5h-60z" />
<glyph unicode="&#x2dd;" horiz-adv-x="346" d="M-12 899l145 215h121l-191 -215h-75zM176 899l172 215h121l-215 -215h-78z" />
<glyph unicode="&#x300;" horiz-adv-x="434" d="M49 1178h119l172 -215h-80z" />
<glyph unicode="&#x301;" horiz-adv-x="434" d="M100 965l174 215h121l-215 -215h-80z" />
<glyph unicode="&#x303;" horiz-adv-x="346" d="M-72 1018q4 55 41 104t97 49q29 0 57.5 -11t56.5 -25q29 -12 55.5 -22.5t53.5 -10.5q33 0 49 23.5t20 52.5h58q-8 -59 -38 -105.5t-99 -46.5q-25 0 -53.5 12.5t-57.5 24.5t-57.5 22.5t-51.5 10.5q-33 0 -50 -24.5t-21 -53.5h-60z" />
<glyph unicode="&#x309;" horiz-adv-x="477" d="M100 1098q47 86 146 86q55 0 94 -39t39 -94q0 -35 -15.5 -67t-36 -56.5t-40 -43t-29.5 -24.5l-59 41q102 72 102 146q0 29 -16.5 49t-44.5 20q-49 0 -88 -57z" />
<glyph unicode="&#x323;" horiz-adv-x="317" d="M92 -100h133v-142h-133v142z" />
<glyph unicode="&#xe00;" horiz-adv-x="0" />
<glyph unicode="&#xe01;" horiz-adv-x="860" d="M92 653q0 18 25.5 49t70.5 60t107.5 49t136.5 20q70 0 128 -14t99 -51t65 -99.5t24 -156.5v-510h-82v510q0 80 -15.5 128t-45.5 75.5t-73 37t-100 9.5q-51 0 -98 -12.5t-83 -30t-57.5 -33.5t-21.5 -27q0 -6 9 -18t21.5 -24.5t25 -21.5t18.5 -9q16 0 34.5 13t36.5 13 q6 0 14.5 -10t14.5 -22.5t7 -22.5t-7 -10q-31 0 -54.5 -6.5t-39.5 -25.5t-25.5 -55t-9.5 -93v-365h-82v365q0 78 15.5 113.5t50.5 70.5q-8 4 -25.5 16.5t-36 27.5t-33 31.5t-14.5 28.5z" />
<glyph unicode="&#xe02;" horiz-adv-x="817" d="M102 670q0 66 55.5 109.5t135.5 43.5q82 0 137 -47t55 -133q0 -88 -33.5 -134t-73.5 -76t-74 -56.5t-34 -79.5v-107q0 -78 48.5 -104.5t125.5 -26.5q94 0 137.5 26t43.5 116q0 35 -2 93t-2 109v416h84v-588q0 -135 -67 -189t-196 -54q-111 0 -182.5 47t-71.5 162v100 q0 66 35 101.5t77 66.5t77 67.5t35 104.5q0 119 -127 119q-14 0 -33 -2t-36 -11.5t-28.5 -27t-11.5 -45.5q0 -27 12.5 -46.5t40.5 -19.5q23 0 42.5 15.5t19.5 48.5v59h35l36 -59q0 -61 -35.5 -99.5t-97.5 -38.5q-61 0 -94 40t-33 100z" />
<glyph unicode="&#xe03;" horiz-adv-x="845" d="M72 684q2 72 41 106.5t86 34.5q27 0 49 -14t39 -33q20 -23 35 -47l81 103q41 -18 71 -71.5t30 -111.5q0 -59 -16.5 -97t-41 -63.5t-54.5 -44t-54.5 -39t-40.5 -45t-16 -65.5v-117q0 -39 13 -62.5t37.5 -36.5t57.5 -17.5t72 -4.5q94 0 143 31t49 121q0 35 -2 88t-2 104 v416h84v-577q0 -135 -72.5 -194.5t-201.5 -59.5q-55 0 -102.5 9t-83 32.5t-55 61.5t-19.5 95v111q0 49 17 82t44 56.5t58.5 42t58 41t44 53t17.5 75.5q0 39 -13 65.5t-24 37.5l-84 -99q-25 25 -41 44.5t-27 32.5t-22.5 19.5t-27.5 6.5q-27 0 -42.5 -19.5t-15.5 -48.5 q0 -31 14.5 -51.5t45.5 -20.5q12 0 28.5 9.5t38.5 33.5l21 -24l-13 -47q-37 -43 -77 -43q-59 0 -93 41t-34 100z" />
<glyph unicode="&#xe04;" horiz-adv-x="870" d="M102 496q0 160 91.5 247.5t236.5 87.5q98 0 161.5 -20t100.5 -63t51.5 -109t14.5 -156v-483h-82v463q0 80 -7 137t-32 92t-74 51.5t-133 16.5q-109 0 -177.5 -64.5t-68.5 -199.5q0 -43 10.5 -97.5t22.5 -85.5q18 45 40 90.5t51.5 81t67.5 58t89 22.5q25 0 48.5 -9 t42.5 -26.5t32.5 -44t13.5 -61.5q0 -59 -42 -101t-101 -42q-57 0 -99 41l-8 63l21 25l39 -37q18 -20 45 -21q31 0 52 21.5t21 52.5q0 29 -20.5 48.5t-54.5 19.5q-39 0 -77 -37t-70 -102.5t-52 -155.5t-23 -199h-79q-8 0 -11.5 4t-3.5 25q0 37 12.5 94t26.5 94q12 33 0 47 q-31 39 -53.5 95.5t-22.5 136.5z" />
<glyph unicode="&#xe05;" horiz-adv-x="890" d="M102 496q0 131 47.5 213t157.5 122l144 -86l131 91q63 -10 102 -39t59.5 -73t27.5 -104.5t7 -136.5v-483h-82v508q0 53 -2 96t-14 74t-35.5 51.5t-66.5 30.5l-127 -86l-136 84q-70 -23 -100.5 -90.5t-30.5 -171.5q0 -43 10.5 -97.5t22.5 -85.5q18 45 40 90.5t51.5 81 t67.5 58t89 22.5q25 0 48.5 -9t42.5 -26.5t32.5 -44t13.5 -61.5q0 -59 -42 -101t-101 -42q-57 0 -99 41l-8 63l21 25l39 -37q18 -20 45 -21q31 0 52 21.5t21 52.5q0 29 -20.5 48.5t-54.5 19.5q-39 0 -77 -37t-70 -102.5t-52 -155.5t-23 -199h-79q-8 0 -11.5 4t-3.5 25 q0 37 12.5 94t26.5 94q12 33 0 47q-31 39 -53.5 95.5t-22.5 136.5z" />
<glyph unicode="&#xe06;" horiz-adv-x="962" d="M72 684q2 72 41 106.5t86 34.5q27 0 52 -14t46 -33q23 -23 45 -47l82 103q41 -18 70.5 -72t29.5 -111q0 -49 -19.5 -84t-44 -65.5t-47 -62t-26.5 -74.5q51 -2 108.5 -19.5t109.5 -46.5t94 -67.5t63 -86.5q-2 25 -3 64t-2 80t-1 80v63v387h82v-364v-137.5t2 -128t4 -101.5 t4 -59q4 -20 -1 -24.5t-13 -4.5h-80q-16 68 -52 122t-85.5 94t-107.5 62.5t-122 26.5l4 -110v-78t-9 -65.5t-32.5 -46t-70.5 -17.5q-61 0 -96.5 41t-35.5 125q0 92 52.5 144t117.5 64q0 57 21.5 90t46.5 60t45.5 56.5t20.5 78.5q0 35 -12.5 62.5t-18.5 38.5l-82 -97 q-51 51 -79 77t-60 26q-27 0 -42.5 -19.5t-15.5 -48.5q0 -31 14.5 -51.5t45.5 -20.5q29 0 47 19l37 39l20 -25l-10 -59q-45 -45 -96 -45q-59 0 -93 41t-34 100zM221 158q0 -45 17.5 -71t40.5 -26q18 0 27 10.5t12.5 28t2 40.5t-1.5 48q0 23 -1 51.5t-1 61.5 q-35 -10 -65.5 -45t-30.5 -98z" />
<glyph unicode="&#xe07;" horiz-adv-x="765" d="M66 502q-4 6 0 14t15 17.5t24.5 18.5t27.5 15q57 -57 110.5 -180t90.5 -311q2 -6 32.5 -11.5t63.5 -5.5t63.5 5.5t30.5 13.5q6 66 13.5 135.5t15.5 136t13 123.5t5 98q0 94 -17 138.5t-67 44.5q-29 0 -48 -18.5t-19 -45.5q0 -25 16.5 -44t46.5 -19h62v-35l-62 -37 q-61 0 -99 37t-38 98q0 59 40 98t101 39q47 0 79 -18t51.5 -50t27.5 -76t8 -97q0 -33 -4 -82t-10 -101.5t-12 -101.5t-11 -82q-6 -47 -11 -100t-5 -92q0 -8 -14.5 -14.5t-37 -10.5t-51 -6t-57.5 -2q-31 0 -60.5 2t-54 7t-40 11t-17.5 15q-16 98 -32.5 163.5t-39 116.5 t-53 95.5t-77.5 97.5z" />
<glyph unicode="&#xe08;" horiz-adv-x="835" d="M82 666q20 27 57 55.5t84 53t100.5 39.5t102.5 15q57 0 110.5 -14t95.5 -45t66.5 -81t24.5 -122q0 -33 -4 -79t-9 -93t-10.5 -92t-7.5 -78q-2 -25 -3 -55.5t-2 -60t-1 -54v-37.5q0 -16 -42 -23t-95 -7t-99.5 8t-46.5 24q4 98 4.5 182.5t-8 145t-29 95t-57.5 34.5 q-29 0 -48 -18.5t-19 -44.5q0 -23 16.5 -43.5t46.5 -20.5h62v-35l-62 -36q-61 0 -99 36.5t-38 98.5q0 61 40 99t101 38q57 0 91 -34t51.5 -97.5t20.5 -152.5t-1 -199q0 -6 20.5 -10.5t45.5 -4.5q27 0 49 4t22 13q0 68 4.5 140.5t10.5 140t10 123.5t4 93q0 68 -27.5 106 t-62.5 56.5t-67.5 23.5t-45.5 5q-94 0 -159.5 -37t-116.5 -98q-10 -12 -34 2t-46 41z" />
<glyph unicode="&#xe09;" horiz-adv-x="892" d="M109 377q0 61 40.5 99t102.5 38q74 0 108.5 -49t34.5 -109v-20t-2 -66q0 -10 -3 -34.5t-7 -51.5q-4 -31 -10 -65q16 51 43.5 89t61.5 62.5t71 36.5t69 12q29 0 50.5 -4t31.5 -8q4 10 5.5 31.5t1.5 40.5v188q0 68 -30 106t-67 56.5t-72.5 23.5t-48.5 5q-92 0 -157.5 -37 t-116.5 -98q-10 -12 -33.5 2t-46.5 41q20 27 57 55.5t84.5 53t100.5 39.5t102 15q57 0 112.5 -14t99.5 -45t70.5 -81t26.5 -122v-188q0 -18 -8 -48t-24 -46q41 -23 63.5 -57.5t22.5 -88.5q0 -84 -42 -114.5t-104 -30.5q-61 0 -99 32.5t-38 106.5q0 47 19.5 72.5t44.5 46.5 q-8 2 -21 2q-35 0 -74 -22.5t-70.5 -59.5t-53 -82t-21.5 -90h-76q-8 0 -13 4t-1 25q6 33 16 87t10 154v70q0 47 -18 75.5t-49 28.5q-35 0 -53.5 -18t-18.5 -49t16.5 -51.5t49.5 -20.5h55v-33l-55 -39q-61 0 -99 41t-38 103zM631 143q0 -43 15.5 -59t49.5 -16q35 0 53.5 15 t18.5 60q0 63 -80 93q-35 -23 -46 -46.5t-11 -46.5z" />
<glyph unicode="&#xe0a;" horiz-adv-x="817" d="M68 670q0 66 52 109.5t146 43.5q98 0 148.5 -51t50.5 -129q0 -88 -31 -134t-66.5 -76t-66.5 -56.5t-31 -79.5v-107q0 -78 53.5 -104.5t131.5 -26.5q94 0 142 26t48 116v40.5t-1 55.5t-1 79v111q0 66 -26.5 97.5t-45.5 31.5q-12 0 -17 -5t-19 -5q-6 0 -14.5 8.5 t-14.5 17.5t-8 17t4 10q35 8 56.5 17.5t41.5 28.5q27 23 44.5 51t29.5 53q14 28 22 59q14 -4 27 -12q10 -6 21.5 -13t21.5 -18q6 -6 6 -12q0 -4 -2 -7t-4 -7q-29 -45 -62.5 -85t-72.5 -67q12 -8 27.5 -19.5t31 -28.5t25.5 -44t10 -63v-261q0 -135 -71.5 -189t-200.5 -54 q-55 0 -103.5 11t-84.5 35.5t-56.5 64.5t-20.5 98v100q0 43 15.5 72.5t38 53t48 42t48 42t38 54.5t15.5 76q0 59 -27.5 89t-105.5 30q-23 0 -44 -2t-37.5 -11.5t-26 -27t-9.5 -45.5q0 -27 15.5 -48.5t44.5 -21.5q23 0 39 15.5t16 48.5v59h35l37 -59q0 -61 -33 -99.5 t-94 -38.5t-97 42t-36 102z" />
<glyph unicode="&#xe0b;" horiz-adv-x="845" d="M61 684q2 72 41 106.5t86 34.5q27 0 49.5 -14t38.5 -33q20 -23 35 -47l88 103q41 -18 68 -71.5t27 -111.5q0 -59 -15.5 -97t-40 -63.5t-51.5 -44t-51.5 -39t-39.5 -45t-15 -65.5v-117q0 -39 15 -62.5t40.5 -36.5t60.5 -17.5t74 -4.5q94 0 148.5 26t54.5 116v40.5t-1 55.5 t-1 79v111q0 66 -27 97.5t-45 31.5q-12 0 -17 -5t-20 -5q-6 0 -14 8.5t-14.5 17.5t-8.5 17t4 10q35 8 56.5 17.5t42.5 28.5q27 23 44 51t29 53q14 29 23 59q14 -4 27 -12q10 -6 21 -13t22 -18q6 -6 6 -12q0 -4 -2 -7t-4 -7q-29 -45 -63 -85t-73 -67q12 -8 27.5 -19.5 t31 -28.5t26 -44t10.5 -63v-261q0 -135 -78 -189t-207 -54q-55 0 -104.5 9t-86 32.5t-58 61.5t-21.5 95v111q0 49 17 82t42 56.5t55.5 42t55 41t42 53t17.5 75.5q0 39 -10 65.5t-21 37.5l-90 -99q-25 25 -41 44.5t-27.5 32.5t-22.5 19.5t-28 6.5q-27 0 -42 -19.5t-15 -48.5 q0 -31 14.5 -51.5t44.5 -20.5q12 0 29 9.5t39 33.5l21 -24l-13 -47q-37 -43 -78 -43q-59 0 -93 41t-34 100z" />
<glyph unicode="&#xe0c;" horiz-adv-x="1298" d="M92 653q0 18 29 49t78 60t114.5 49t139.5 20q70 0 128 -14t99 -51t64.5 -99.5t23.5 -156.5v-145q104 -6 195.5 -60.5t134.5 -159.5q-2 25 -3 64t-2 80t-1 80v63v387h82v-364v-137.5t2 -128t4 -101.5t4 -59q4 -20 -1 -24.5t-14 -4.5h-79q-33 135 -113 215t-207 90l2 -110 v-78t-9 -65.5t-32.5 -46t-71.5 -17.5q-61 0 -96 41t-35 125q0 92 50.5 143t113.5 63q0 12 -1 34t-2 44.5t-2 43t-1 28.5q0 80 -15.5 128t-45 75.5t-72.5 37t-100 9.5q-51 0 -101.5 -12.5t-90.5 -30t-64.5 -33.5t-24.5 -27q0 -6 9 -18t21.5 -24.5t25 -21.5t18.5 -9 q16 0 34.5 13t36.5 13q6 0 14.5 -10t14.5 -22.5t7 -22.5t-7 -10q-31 0 -54.5 -6.5t-39.5 -25.5t-25.5 -55t-9.5 -93v-207q0 -47 18.5 -73t49.5 -26q35 0 53 22.5t18 53.5t-17 52.5t-48 21.5h-58v33l58 39q59 0 99 -42t40 -104q0 -61 -42 -104t-103 -43q-70 0 -110 48 t-40 148v181q0 78 15.5 113.5t50.5 70.5q-8 4 -25.5 16.5t-36 27.5t-33 31.5t-14.5 28.5zM602 158q0 -45 17.5 -71t39.5 -26q18 0 27.5 10.5t12.5 28t2 41t-1 47.5q0 14 -2 46t-4 67q-35 -10 -63.5 -46t-28.5 -97z" />
<glyph unicode="&#xe0d;" horiz-adv-x="1331" d="M92 653q0 18 25.5 49t70.5 60t107.5 49t136.5 20q70 0 128 -14t99 -51t65 -99.5t24 -156.5q0 -25 -1.5 -59.5t-2.5 -69.5t-2 -67.5t-1 -53.5q0 -49 5.5 -87t21.5 -58q49 -55 172 -56q123 0 172 56q16 20 22.5 50t6.5 71q0 35 -2 96t-2 112v375h82v-549q0 -78 -8.5 -122 t-36.5 -76q-49 -55 -114 -69.5t-120 -14.5t-119.5 14t-113.5 70q-27 31 -34 82t-7 116v240q0 80 -15.5 128t-45.5 75.5t-73 37t-100 9.5q-51 0 -98 -12.5t-83 -30t-57.5 -33.5t-21.5 -27q0 -6 9 -18t21.5 -24.5t25 -21.5t18.5 -9q16 0 34.5 13t36.5 13q6 0 14.5 -10 t14.5 -22.5t7 -22.5t-7 -10q-31 0 -54.5 -6.5t-39.5 -25.5t-25.5 -55t-9.5 -93v-207q0 -47 18.5 -73t49.5 -26q35 0 53 22.5t18 53.5t-17 52.5t-48 21.5h-58v33l58 39q59 0 99 -42t40 -104q0 -61 -42 -104t-103 -43q-70 0 -110 48t-40 148v181q0 78 15.5 113.5t50.5 70.5 q-8 4 -25.5 16.5t-36 27.5t-33 31.5t-14.5 28.5zM698 -207q0 61 36 92t81 31q47 0 78 -29.5t31 -89.5l-33 -59h-33v59q0 29 -13.5 40t-29.5 11q-49 0 -49 -55q0 -51 36 -73.5t122 -22.5q53 0 91 9t62.5 32.5t35.5 63.5t11 100h80q0 -59 -12 -108.5t-43 -84.5t-84 -54.5 t-135 -19.5q-115 0 -173.5 43t-58.5 115z" />
<glyph unicode="&#xe0e;" horiz-adv-x="935" d="M51 131q0 61 36 101t93 40l47 -34v-33h-47q-31 0 -44 -21.5t-13 -52.5t18.5 -51.5t53.5 -20.5q31 0 51 20.5t20 67.5q0 72 -22.5 140.5t-22.5 130.5q0 49 13.5 75.5t35.5 53.5q-8 4 -26.5 17.5t-38 28.5t-33.5 31.5t-14 28.5q0 18 25.5 49t70.5 60t107.5 49t136.5 20 q70 0 128 -14t99 -51t64.5 -99.5t23.5 -156.5v-858h-84q-16 27 -53 61.5t-88 63.5q-31 -47 -82 -88t-129 -41q-59 0 -91 34.5t-32 81.5q0 53 45 87t113 34q39 0 75.5 -8t67.5 -20q6 14 9 25.5t5 21.5l4 20q12 -4 23 -8q10 -4 20.5 -8t18.5 -10q4 -4 4 -11.5t-2 -13.5 q-4 -8 -8 -19.5t-11 -25.5q39 -23 68 -48.5t47 -47.5v70.5t-1 133t-1 225.5v349q0 80 -15.5 128t-45 75.5t-72.5 37t-100 9.5q-51 0 -98.5 -12.5t-83 -30t-57 -33.5t-21.5 -27q0 -6 9 -18t21.5 -24.5t24.5 -21.5t18 -9q16 0 35 13t37 13q6 0 14.5 -10t14.5 -22.5t7 -22.5 t-7 -10q-59 0 -84 -25.5t-25 -103.5q0 -35 7 -73t14.5 -74t14.5 -67.5t7 -54.5q0 -78 -40 -118.5t-111 -40.5q-61 0 -102.5 41t-41.5 102zM317 -240q1 -49 58 -49q55 0 93 28t60 64q-57 20 -108 21q-102 0 -103 -64z" />
<glyph unicode="&#xe0f;" horiz-adv-x="935" d="M51 131q0 61 36 101t93 40l47 -34v-33h-47q-31 0 -44 -21.5t-13 -52.5t18.5 -51.5t53.5 -20.5q31 0 51 20.5t20 67.5q0 72 -22.5 140.5t-22.5 130.5q0 49 13.5 75.5t35.5 53.5q-8 4 -26.5 17.5t-38 28.5t-33.5 31.5t-14 28.5q0 18 25.5 49t70.5 60t107.5 49t136.5 20 q70 0 128 -14t99 -51t64.5 -99.5t23.5 -156.5l-2 -879h-88l-100 82l-97 -78l-73 78q-33 -41 -66 -57t-74 -16q-53 0 -82.5 36.5t-29.5 77.5q0 59 32.5 93t79.5 34q41 0 73 -21.5t50 -39.5q8 18 12.5 47t4.5 45q10 0 18 -2t17.5 -5t17.5 -7t8 -11.5t-2 -17.5q-2 -14 -7 -29.5 t-11 -29.5q-8 -16 -15 -33l56 -58l86 68l112 -82v75t-1 142t-1 234.5v353.5q0 80 -15.5 128t-45 75.5t-72.5 37t-100 9.5q-51 0 -98.5 -12.5t-83 -30t-57 -33.5t-21.5 -27q0 -6 9 -18t21.5 -24.5t24.5 -21.5t18 -9q16 0 35 13t37 13q6 0 14.5 -10t14.5 -22.5t7 -22.5t-7 -10 q-59 0 -84 -25.5t-25 -103.5q0 -35 7 -73t14.5 -74t14.5 -67.5t7 -54.5q0 -78 -40 -118.5t-111 -40.5q-61 0 -102.5 41t-41.5 102zM264 -244q0 -53 55 -53q25 0 50 9t45 46q-27 29 -49.5 44.5t-47.5 15.5q-53 0 -53 -62z" />
<glyph unicode="&#xe10;" horiz-adv-x="837" d="M109 647q0 84 46 128t121 44q14 0 44 -2t65 -5t72 -5t65 -2q37 0 74 5t66 11q35 8 63 17q4 -14 10 -29q10 -27 10 -47q0 -12 -18 -21q-23 -6 -83 -12t-120 -6q-27 0 -63.5 4t-72.5 8t-65.5 8.5t-41.5 4.5q-59 0 -79 -26t-20 -73q0 -39 10.5 -49t51.5 -10t104.5 8t134.5 8 q109 0 166.5 -49t57.5 -127q0 -29 -5.5 -75t-11.5 -101t-13 -114.5t-11 -114.5q0 -16 -40 -23.5t-87 -7.5q-25 0 -51.5 2t-48 6t-34 10t-12.5 15q4 84 5 145t-6 101t-26.5 60.5t-56.5 20.5q-29 0 -48 -18.5t-19 -44.5q0 -23 16 -43.5t47 -20.5h62v-34l-62 -37 q-61 0 -99 36.5t-38 98.5q0 61 40 99t101 38q57 0 90 -26.5t49.5 -73.5t18.5 -114t-2 -146q0 -6 22.5 -10.5t44.5 -4.5q23 0 43.5 4t22.5 13q8 92 17.5 184t9.5 164q0 20 -6.5 40.5t-26 37t-59 26.5t-107.5 10q-63 0 -118.5 -8t-96.5 -8q-59 0 -80.5 38t-21.5 93zM119 -297 q0 53 29.5 84t72.5 31q37 0 67 -22t46 -38q8 18 11 48t3 47q10 0 19 -3q8 -2 17 -5t17 -7t8.5 -11t-1.5 -17q-2 -14 -8.5 -30t-12.5 -30q-8 -16 -14 -33l49 -49l78 43l102 -53q0 20 7 37.5t16.5 34t16.5 33t7 38.5q0 23 -11 41.5t-36 18.5q-45 0 -45 -47q0 -16 7 -25.5 t16 -15.5l26 -21l-16 -22l-47 8q-16 14 -28.5 32.5t-12.5 39.5q0 51 29.5 79.5t74.5 28.5q59 0 85 -37t26 -78q0 -37 -22.5 -87t-22.5 -117h-92l-78 47l-88 -52l-68 70q-29 -37 -58.5 -52t-66.5 -15q-49 0 -75.5 33.5t-26.5 72.5zM176 -295q0 -51 49 -51q23 0 45.5 9 t40.5 44q-47 51 -88 51q-47 0 -47 -53z" />
<glyph unicode="&#xe11;" horiz-adv-x="944" d="M31 684q0 72 36.5 106.5t75.5 34.5q27 0 46.5 -11t33.5 -26q16 -16 29 -36l76 82q35 -23 59.5 -53.5t24.5 -84.5q0 -57 -19.5 -91t-42 -62.5t-42 -64.5t-19.5 -101l-6 -144q29 78 73.5 179.5t99 193.5t115 155.5t117.5 63.5q86 0 114.5 -42t28.5 -134v-649h-81v649 q0 37 -6.5 55.5t-15.5 26.5t-19.5 9t-20.5 1q-31 0 -67.5 -32.5t-73.5 -86t-74 -123t-70.5 -141t-62.5 -142.5t-49 -126l-2 -90h-70q-8 0 -13 4t-1 25q6 33 8 120t2 224q0 68 21.5 109.5t46 73.5t46 60.5t21.5 71.5q0 16 -4 29.5t-8 23.5q-6 10 -12 19l-78 -84 q-35 49 -53.5 65.5t-42.5 16.5q-27 0 -41.5 -21.5t-14.5 -50.5q0 -27 15.5 -44t42.5 -17q12 0 26.5 8t36.5 33l21 -25l-13 -43q-35 -41 -78 -41q-51 0 -83.5 36t-32.5 91z" />
<glyph unicode="&#xe12;" horiz-adv-x="1329" d="M102 496q0 131 47.5 213t157.5 122l150 -86l145 91q63 -10 100 -39t56.5 -73t24.5 -104.5t5 -136.5v-112q51 -2 102.5 -18.5t97.5 -44t83 -67.5t57 -94q-2 25 -3 63t-2 80t-1 80v62v387h82v-364v-137.5t2 -128t4 -101.5t4 -59q4 -20 -1 -24.5t-13 -4.5h-80 q-33 135 -117.5 215t-211.5 90l2 -110v-78t-9.5 -65.5t-33 -46t-70.5 -17.5q-61 0 -96 41t-35 125q0 92 50 146t114 67q-2 27 -4 60.5t-4 80.5q-2 53 -2.5 96t-9.5 74t-30.5 51.5t-64.5 30.5l-141 -86l-142 84q-70 -23 -100.5 -90.5t-30.5 -171.5q0 -76 10.5 -123t24.5 -77 t29.5 -48.5t27.5 -36.5q8 12 31 33.5t49.5 44t50 42t35.5 27.5q31 23 41.5 45.5t10.5 42.5q0 35 -19.5 55.5t-48.5 20.5q-31 0 -52.5 -21.5t-21.5 -51.5q0 -27 21 -46l37 -38l-25 -21l-63 8q-41 41 -41 99q0 59 42 101t101 42q35 0 61.5 -13.5t44 -33t26.5 -43t9 -47.5 q0 -55 -19.5 -86t-64.5 -64q-43 -33 -84 -64.5t-72.5 -67.5t-51 -79t-19.5 -96h-80q-8 0 -13 4t-1 25q6 33 21.5 67.5t35.5 63.5q12 18 4 28q-16 16 -36.5 36t-39 52.5t-31 85t-12.5 134.5zM623 158q0 -45 17 -71t40 -26q18 0 27.5 10.5t12.5 28t2 41t-1 47.5q0 14 -2 46 t-4 67q-35 -10 -63.5 -46t-28.5 -97z" />
<glyph unicode="&#xe13;" horiz-adv-x="1306" d="M92 653q0 18 25.5 49t70.5 60t107.5 49t136.5 20q70 0 125 -14t93 -51t57.5 -99.5t19.5 -156.5v-148l-4 -176q49 78 127 119t145 41q57 0 113 -18q6 18 6 51v440h82v-440q0 -37 -33 -74q41 -23 66.5 -62.5t25.5 -92.5q0 -84 -45 -120t-106 -36t-102 38t-41 111 q0 47 25.5 80t49.5 53q-16 4 -47 5q-49 0 -97 -25t-85 -63.5t-59.5 -89t-22.5 -103.5h-70q-8 0 -13 4t-1 25q4 16 5 67t1 121t-1 147.5t-1 145.5q0 80 -12 128t-38 75.5t-66 37t-97 9.5q-51 0 -98 -12.5t-83 -30t-57.5 -33.5t-21.5 -27q0 -6 9 -18t21.5 -24.5t25 -21.5 t18.5 -9q16 0 34.5 13t36.5 13q6 0 14.5 -10t14.5 -22.5t7 -22.5t-7 -10q-31 0 -54.5 -6.5t-39.5 -25.5t-25.5 -55t-9.5 -93v-201q0 -47 17.5 -76t48.5 -29q35 0 54 22.5t19 53.5t-17 53.5t-48 22.5h-58v33l58 39q59 0 99 -43t40 -105q0 -61 -43 -104t-104 -43 q-78 0 -113 45t-35 131v201q0 78 15.5 113.5t50.5 70.5q-8 4 -25.5 16.5t-36 27.5t-33 31.5t-14.5 28.5zM1032 154q0 -86 72 -86q35 0 56.5 20.5t21.5 65.5q0 70 -86 102q-35 -23 -49.5 -51.5t-14.5 -50.5z" />
<glyph unicode="&#xe14;" horiz-adv-x="870" d="M102 496q0 160 91.5 247.5t236.5 87.5q98 0 161.5 -20t100.5 -63t51.5 -109t14.5 -156v-485h-82v465q0 80 -7 137t-32 92t-74 51.5t-133 16.5q-109 0 -177.5 -64.5t-68.5 -199.5q0 -76 10.5 -123t24.5 -77t29.5 -48.5t27.5 -36.5q8 12 34 33.5t56.5 45t57.5 43t39 27.5 q31 23 41 44.5t10 41.5q0 35 -19.5 55.5t-48.5 20.5q-31 0 -52 -21.5t-21 -51.5q0 -27 20 -46l37 -38l-24 -21l-64 8q-41 41 -41 99q0 59 42 101t101 42q35 0 61.5 -13.5t44 -33t27 -43t9.5 -47.5q0 -55 -19.5 -86t-64.5 -64q-43 -33 -88 -64.5t-80 -67.5t-57.5 -79 t-22.5 -96h-80q-8 0 -13 4t-1 25q6 33 21.5 67.5t35.5 63.5q12 18 4 28q-16 16 -36.5 36t-39 52.5t-31 85t-12.5 134.5z" />
<glyph unicode="&#xe15;" horiz-adv-x="890" d="M102 496q0 131 47.5 213t157.5 122l144 -86l131 91q63 -10 102 -39t59.5 -73t27.5 -104.5t7 -136.5v-483h-82v508q0 53 -2 96t-14 74t-35.5 51.5t-66.5 30.5l-127 -86l-136 84q-70 -23 -100.5 -90.5t-30.5 -171.5q0 -76 10.5 -123t24.5 -77t29.5 -48.5t27.5 -36.5 q8 12 34 33.5t56.5 45t57.5 43t39 27.5q31 23 41 44.5t10 41.5q0 35 -19.5 55.5t-48.5 20.5q-31 0 -52 -21.5t-21 -51.5q0 -27 20 -46l37 -38l-24 -21l-64 8q-41 41 -41 99q0 59 42 101t101 42q35 0 61.5 -13.5t44 -33t27 -43t9.5 -47.5q0 -55 -19.5 -86t-64.5 -64 q-43 -33 -88 -64.5t-80 -67.5t-57.5 -79t-22.5 -96h-80q-8 0 -13 4t-1 25q6 33 21.5 67.5t35.5 63.5q12 18 4 28q-16 16 -36.5 36t-39 52.5t-31 85t-12.5 134.5z" />
<glyph unicode="&#xe16;" horiz-adv-x="860" d="M92 653q0 18 25.5 49t70.5 60t107.5 49t136.5 20q70 0 128 -14t99 -51t65 -99.5t24 -156.5v-510h-82v510q0 80 -15.5 128t-45.5 75.5t-73 37t-100 9.5q-51 0 -98 -12.5t-83 -30t-57.5 -33.5t-21.5 -27q0 -6 9 -18t21.5 -24.5t25 -21.5t18.5 -9q16 0 34.5 13t36.5 13 q6 0 14.5 -10t14.5 -22.5t7 -22.5t-7 -10q-31 0 -54.5 -6.5t-39.5 -25.5t-25.5 -55t-9.5 -93v-207q0 -47 18.5 -73t49.5 -26q35 0 53 22.5t18 53.5t-17 52.5t-48 21.5h-58v33l58 39q59 0 99 -42t40 -104q0 -61 -42 -104t-103 -43q-70 0 -110 48t-40 148v181q0 78 15.5 113.5 t50.5 70.5q-8 4 -25.5 16.5t-36 27.5t-33 31.5t-14.5 28.5z" />
<glyph unicode="&#xe17;" horiz-adv-x="978" d="M72 686q0 61 44 104.5t105 43.5q72 0 111 -42t39 -120q0 -23 -6.5 -44.5t-13.5 -47t-14 -57t-9 -74.5l-11 -191q25 104 64 205.5t88 182.5t108.5 130t122.5 49q72 0 119 -36.5t47 -135.5v-653h-82v653q0 49 -21.5 75t-53.5 26q-57 0 -122 -74t-120 -183.5t-95 -235.5 t-46 -230l-2 -31h-70q-8 0 -13 4t-1 25q4 16 5 59t3 101.5t2 128v137.5q0 39 6 68.5t13 54t13.5 46t6.5 44.5q0 47 -18.5 70.5t-49.5 23.5q-35 0 -55.5 -22.5t-20.5 -53.5t14.5 -53.5t45.5 -22.5h45v-32l-49 -37q-59 0 -94 42t-35 103z" />
<glyph unicode="&#xe18;" horiz-adv-x="854" d="M90 637q0 84 51.5 133t130.5 49q14 0 44 -3t65 -6t71.5 -6t65.5 -3q37 0 74 5t65 13q35 9 64 19q4 -14 10 -29q10 -27 10 -47q0 -12 -18 -21q-23 -6 -84 -14t-121 -8q-31 0 -68.5 4t-71.5 8t-61.5 8t-40.5 4q-45 0 -76.5 -28.5t-31.5 -75.5q0 -29 3 -42t15 -24 q14 -10 58.5 -11t103 -3t121.5 -8t117.5 -26.5t89.5 -60.5t35 -106v-88q0 -78 -8.5 -122t-36.5 -76q-25 -27 -56.5 -44.5t-64.5 -25.5t-66 -11t-61 -3q-27 0 -60.5 3t-66.5 11t-64.5 25.5t-56.5 44.5q-27 31 -34 82t-7 116v154l78 -6q0 -51 -1 -84t-1 -74q0 -49 5 -87 t21 -58q27 -29 75 -42.5t112 -13.5q63 0 111.5 13.5t74.5 42.5q16 20 20.5 50t4.5 71v122q0 47 -32 72t-82 37t-109.5 15t-113.5 5t-98 6.5t-61 18.5q-27 23 -35 53.5t-8 71.5z" />
<glyph unicode="&#xe19;" horiz-adv-x="933" d="M72 686q0 61 44 104.5t105 43.5q72 0 111 -42t39 -120q0 -23 -7.5 -44.5t-14.5 -47t-14 -57t-7 -74.5v-263q25 39 60.5 69t76.5 50.5t82 30.5t74 10q57 0 112 -18q6 18 6 51v440h82v-440q0 -37 -33 -74q41 -23 67 -62.5t26 -92.5q0 -84 -45 -120t-107 -36q-61 0 -102 38 t-41 111q0 47 24.5 79t51.5 50q-14 6 -46 7q-49 0 -100 -24t-93 -63.5t-67.5 -89t-25.5 -102.5h-70q-8 0 -13 4t-1 25q4 16 5 59t1 101.5t-1 128t-1 137.5q0 39 6 68.5t13 54t13.5 46t6.5 44.5q0 47 -18.5 70.5t-49.5 23.5q-35 0 -55.5 -22.5t-20.5 -53.5t14.5 -53.5 t45.5 -22.5h45v-32l-49 -37q-59 0 -94 42t-35 103zM657 154q0 -86 72 -86q35 0 56.5 20.5t21.5 65.5q0 70 -86 102q-35 -23 -49.5 -51.5t-14.5 -50.5z" />
<glyph unicode="&#xe1a;" horiz-adv-x="972" d="M72 686q0 61 44 104.5t105 43.5q72 0 111 -42t39 -120q0 -23 -7.5 -44.5t-14.5 -47t-14 -57t-7 -74.5q0 -51 -1 -99.5t-1 -89.5q0 -49 5 -87t21 -58q27 -29 82 -42.5t119 -13.5q63 0 118.5 13.5t82.5 42.5q16 20 22 50t6 71q0 35 -2 75.5t-2 91.5v416h82v-549 q0 -78 -8 -122t-37 -76q-25 -27 -58.5 -44.5t-69.5 -25.5t-70.5 -11t-63.5 -3q-27 0 -62.5 3t-71.5 11t-70 25.5t-58 44.5q-27 31 -34 82t-7 116v185q0 39 6 68.5t13 54t13.5 46t6.5 44.5q0 47 -18.5 70.5t-49.5 23.5q-35 0 -55.5 -22.5t-20.5 -53.5t16.5 -53.5t47.5 -22.5 h47v-32l-47 -39q-59 0 -98 43t-39 104z" />
<glyph unicode="&#xe1b;" horiz-adv-x="972" d="M72 684q0 61 44 104t105 43q72 0 111 -41.5t39 -119.5q0 -23 -7.5 -44.5t-14.5 -47t-14 -56t-7 -73.5q0 -51 -1 -99.5t-1 -89.5q0 -49 5 -87t21 -58q27 -29 82 -42.5t119 -13.5q63 0 118.5 13.5t82.5 42.5q16 20 22 50t6 71q0 35 -2 75.5t-2 91.5v711h82v-844 q0 -78 -8 -122t-37 -76q-25 -27 -58.5 -44.5t-69.5 -25.5t-70.5 -11t-63.5 -3q-27 0 -62.5 3t-71.5 11t-70 25.5t-58 44.5q-27 31 -34 82t-7 116v185q0 39 6 68.5t13 54t13.5 45t6.5 43.5q0 47 -18.5 70.5t-49.5 23.5q-35 0 -55.5 -22.5t-20.5 -53.5t16.5 -53.5t47.5 -22.5 h47v-33l-47 -38q-59 0 -98 43t-39 104z" />
<glyph unicode="&#xe1c;" horiz-adv-x="888" d="M104 29q4 16 6.5 30.5t3.5 38t2 64.5t1 108l-2 170q0 39 -2 65.5t-4.5 50.5t-3.5 47.5t-1 53.5q0 86 43 131.5t115 45.5q61 0 104.5 -43t43.5 -105q0 -61 -40 -104t-100 -43l-57 39v32h57q31 0 48.5 22.5t17.5 53.5t-19.5 53.5t-54.5 22.5q-31 0 -53.5 -28.5t-22.5 -76.5 q0 -23 2 -43t3.5 -43.5t3.5 -54.5t2 -76q0 -25 -1 -62.5t-3.5 -76.5t-3.5 -75t-1 -56q33 53 76 97t84 79q47 39 96 74q51 -33 99 -74q41 -35 83 -83t70 -103q0 16 -2 47t-3 66.5t-3 70.5t-2 59v416h82v-549q0 -70 1 -140.5t5 -100.5q4 -20 -1 -24.5t-13 -4.5h-76v20 q0 51 -37 106.5t-82 102.5q-53 55 -121 111q-70 -55 -125 -111q-47 -47 -85.5 -102t-38.5 -107v-20h-76q-8 0 -13.5 4t-1.5 25z" />
<glyph unicode="&#xe1d;" horiz-adv-x="888" d="M104 29q4 16 6.5 30.5t3.5 38t2 64.5t1 108l-2 170q0 39 -2 65.5t-4.5 50.5t-3.5 47.5t-1 53.5q0 86 43 131.5t115 45.5q61 0 104.5 -43t43.5 -105q0 -61 -40 -104t-100 -43l-57 39v32h57q31 0 48.5 22.5t17.5 53.5t-19.5 53.5t-54.5 22.5q-31 0 -53.5 -28.5t-22.5 -76.5 q0 -23 2 -43t3.5 -43.5t3.5 -54.5t2 -76q0 -25 -1 -62.5t-3.5 -76.5t-3.5 -75t-1 -56q33 53 76 97t84 79q47 39 96 74q51 -33 99 -74q41 -35 83 -83t70 -103q0 16 -2 47t-3 66.5t-3 70.5t-2 59v711h82v-844q0 -70 1 -140.5t5 -100.5q4 -20 -1 -24.5t-13 -4.5h-76v20 q0 51 -37 106.5t-82 102.5q-53 55 -121 111q-70 -55 -125 -111q-47 -47 -85.5 -102t-38.5 -107v-20h-76q-8 0 -13.5 4t-1.5 25z" />
<glyph unicode="&#xe1e;" horiz-adv-x="1021" d="M72 686q0 61 44 104.5t105 43.5q72 0 111 -42t39 -120q0 -23 -7.5 -47.5t-14.5 -54t-14 -64.5t-7 -78q0 -25 -1 -56.5t-2 -62t-2 -59.5t-1 -49q33 106 75.5 207.5t83.5 181.5q47 94 97 178q51 -84 98 -180q41 -82 82.5 -184.5t70.5 -213.5q0 35 -5 98.5t-5 114.5v416h82 v-549q0 -70 1 -140.5t5 -100.5q4 -20 -1 -24.5t-13 -4.5h-76v20q0 25 -10 66t-26.5 89t-38 102.5t-44.5 105.5q-53 123 -120 264q-70 -141 -125 -264q-25 -51 -47.5 -105.5t-40 -102.5t-27.5 -89t-10 -66v-20h-76q-8 0 -13.5 4t-0.5 25q4 16 6 30.5t3 38t2 64.5t1 108v164 q0 78 19.5 133.5t19.5 100.5q0 47 -18.5 70.5t-49.5 23.5q-35 0 -55.5 -22.5t-20.5 -53.5t16.5 -53.5t47.5 -22.5h47v-32l-47 -39q-59 0 -98 43t-39 104z" />
<glyph unicode="&#xe1f;" horiz-adv-x="1021" d="M72 686q0 61 44 104.5t105 43.5q72 0 111 -42t39 -120q0 -23 -7.5 -47.5t-14.5 -54t-14 -64.5t-7 -78q0 -25 -1 -56.5t-2 -62t-2 -59.5t-1 -49q33 106 75.5 207.5t83.5 181.5q47 94 97 178q51 -84 98 -180q41 -82 82.5 -184.5t70.5 -213.5q0 35 -5 98.5t-5 114.5v711h82 v-844q0 -70 1 -140.5t5 -100.5q4 -20 -1 -24.5t-13 -4.5h-76v20q0 25 -10 66t-26.5 89t-38 102.5t-44.5 105.5q-53 123 -120 264q-70 -141 -125 -264q-25 -51 -47.5 -105.5t-40 -102.5t-27.5 -89t-10 -66v-20h-76q-8 0 -13.5 4t-0.5 25q4 16 6 30.5t3 38t2 64.5t1 108v164 q0 78 19.5 133.5t19.5 100.5q0 47 -18.5 70.5t-49.5 23.5q-35 0 -55.5 -22.5t-20.5 -53.5t16.5 -53.5t47.5 -22.5h47v-32l-47 -39q-59 0 -98 43t-39 104z" />
<glyph unicode="&#xe20;" horiz-adv-x="925" d="M51 131q0 61 36 101t93 40l47 -34v-33h-47q-31 0 -44 -21.5t-13 -52.5t18.5 -51.5t53.5 -20.5q31 0 51 20.5t20 67.5q0 72 -22.5 140.5t-22.5 130.5q0 49 13.5 76.5t35.5 52.5q-8 4 -26.5 17.5t-38 28.5t-33.5 31.5t-14 28.5q0 18 25.5 49t70.5 60t107.5 49t136.5 20 q70 0 128 -14t99 -51t64.5 -99.5t23.5 -156.5v-510h-82v510q0 80 -15.5 128t-45 75.5t-72.5 37t-100 9.5q-51 0 -98.5 -12.5t-83 -30t-57 -33.5t-21.5 -27q0 -6 9 -18t21.5 -24.5t24.5 -21.5t18 -9q16 0 35 13t37 13q6 0 14.5 -10t14.5 -22.5t7 -22.5t-7 -10 q-59 0 -84 -25.5t-25 -103.5q0 -35 7 -73t14.5 -74t14.5 -67.5t7 -54.5q0 -78 -40 -118.5t-111 -40.5q-61 0 -102.5 41t-41.5 102z" />
<glyph unicode="&#xe21;" horiz-adv-x="933" d="M102 686q0 61 44 104.5t106 43.5q72 0 110.5 -42t38.5 -120q0 -23 -7 -46.5t-15 -51t-14.5 -61.5t-6.5 -77v-69q59 0 114.5 -16.5t104 -46.5t89.5 -70.5t67 -88.5q-2 25 -3 64t-2 80t-1 80v63v387h82v-364v-137.5t2 -128t4 -101.5t4 -59q4 -20 -1 -24.5t-13 -4.5h-80 q-16 68 -51 122t-84 93t-107.5 62.5t-122.5 27.5l2 -110v-78t-9 -65.5t-32.5 -46t-70.5 -17.5q-61 0 -96 41t-35 125q0 92 50 143t114 63q-2 27 -2 45.5v36.5q0 39 6 71t13 58.5t13 50t6 46.5q0 47 -18 70.5t-49 23.5q-35 0 -55.5 -22.5t-20.5 -53.5t14.5 -53.5t45.5 -22.5 h45v-32l-50 -37q-59 0 -94 42t-35 103zM193 158q0 -45 17 -71t40 -26q18 0 27.5 10.5t12.5 28t2 40.5t-1 48q0 14 -2 46t-4 67q-35 -10 -63.5 -46t-28.5 -97z" />
<glyph unicode="&#xe22;" horiz-adv-x="858" d="M102 649q0 74 44 129.5t128 55.5q61 0 97.5 -39t36.5 -101q0 -59 -38 -96t-100 -37l-59 35v37h59q33 0 48.5 19.5t15.5 41.5q0 29 -15.5 47.5t-44.5 18.5q-31 0 -49 -10.5t-27.5 -27.5t-11.5 -41t-2 -50q0 -102 74 -143.5t186 -41.5q8 0 4 -11t-13 -25.5t-20.5 -25.5 t-15.5 -11q-8 0 -26.5 5t-39 10t-40 10t-33.5 5q-18 0 -35.5 -28.5t-17.5 -77.5v-59q0 -49 5 -75t24 -48q27 -29 82 -42.5t118 -13.5t118.5 13.5t82.5 42.5q16 18 22.5 45.5t6.5 63.5t-2 80t-2 99v416h81v-416q0 -63 1 -113t-2 -90t-12 -72t-32 -56q-25 -27 -58.5 -44.5 t-69 -25.5t-70.5 -11t-64 -3q-27 0 -62.5 3t-71.5 11t-69.5 25.5t-58.5 44.5q-29 33 -37 68.5t-8 99.5v39q0 72 26.5 104.5t49.5 48.5q-14 8 -32.5 26.5t-34 45t-26 63.5t-10.5 82z" />
<glyph unicode="&#xe23;" horiz-adv-x="737" d="M61 627q0 84 50.5 138t130.5 54q29 0 91 -9t120 -9q37 0 70.5 5t58.5 13q29 8 53 19q4 -14 10 -29q10 -27 10 -47q0 -12 -18 -21q-23 -6 -74 -14t-110 -8q-63 0 -125 12t-86 12q-45 0 -74 -33.5t-29 -80.5q0 -23 4 -44.5t19 -31.5q12 -10 50 -13t87 -5.5t103.5 -10.5 t98.5 -28.5t73.5 -59.5t29.5 -106v-166q0 -82 -36 -129t-122 -47q-61 0 -104 44t-43 103q0 61 40 105.5t101 44.5l56 -39v-33h-56q-33 0 -50 -22.5t-17 -55.5q0 -31 19.5 -53.5t53.5 -22.5q43 0 59.5 29t16.5 76v166q0 47 -25.5 72.5t-66.5 38t-90 16.5t-94 7t-83 8t-54 20 q-27 23 -37.5 58.5t-10.5 76.5z" />
<glyph unicode="&#xe24;" horiz-adv-x="860" d="M102 653q0 18 24 49t68 60t104 49t134 20q70 0 128 -14t99 -51t65 -99.5t24 -156.5v-817h-82v817q0 80 -15.5 128t-45.5 75.5t-73 37t-100 9.5q-51 0 -96 -12.5t-79 -30t-54.5 -33.5t-20.5 -27q0 -6 7.5 -18t18.5 -24.5t21.5 -21.5t16.5 -9q16 0 34.5 13t36.5 13 q6 0 14.5 -10t14.5 -22.5t7 -22.5t-7 -10q-31 0 -54.5 -6.5t-39.5 -25.5t-25.5 -55t-9.5 -93v-207q0 -47 18.5 -73t49.5 -26q35 0 53 22.5t18 53.5t-17 52.5t-48 21.5h-58v33l58 39q59 0 99 -42t40 -104q0 -61 -42 -104t-103 -43q-70 0 -110 48t-40 148v181q0 78 15.5 113.5 t50.5 70.5q-8 4 -24.5 16.5t-33 27.5t-29 31.5t-12.5 28.5z" />
<glyph unicode="&#xe25;" horiz-adv-x="892" d="M102 666q20 27 61.5 55.5t91.5 53t106.5 39.5t105.5 15q66 0 121 -14t97 -45t65.5 -81t23.5 -122q0 -66 -9 -123t-9 -120q0 -23 4 -66t9 -89t11 -85t8 -55q4 -20 -1 -24.5t-13 -4.5h-80q0 115 -21.5 199t-58 140t-83 84t-95.5 28q-121 0 -168 -60.5t-47 -154.5 q0 -29 3 -60t13.5 -56.5t30 -42t49.5 -16.5q29 0 44.5 18.5t15.5 45.5q0 25 -15.5 44t-46.5 19h-61v37l61 35q59 0 97.5 -37t38.5 -98q0 -59 -36 -98t-98 -39q-74 0 -122 58t-48 185q0 74 21.5 128.5t60.5 91t90.5 54t110.5 17.5q68 0 140.5 -36.5t119.5 -114.5q0 25 1 75 t1 121q0 68 -25.5 106t-61.5 56.5t-71.5 23.5t-56.5 5q-92 0 -168 -37t-127 -98q-10 -12 -33.5 2t-46.5 41z" />
<glyph unicode="&#xe26;" horiz-adv-x="925" d="M51 131q0 61 36 101t93 40l47 -34v-33h-47q-31 0 -44 -21.5t-13 -52.5t18.5 -51.5t53.5 -20.5q31 0 51 20.5t20 67.5q0 72 -22.5 140.5t-22.5 130.5q0 49 10.5 77.5t34.5 53.5q-8 4 -24.5 16.5t-32.5 27.5t-28.5 31.5t-12.5 28.5q0 18 23.5 49t67.5 60t104.5 49t134.5 20 q70 0 128 -14t99 -51t64.5 -99.5t23.5 -156.5v-817h-82v817q0 80 -15.5 128t-45 75.5t-72.5 37t-100 9.5q-51 0 -96.5 -12.5t-79 -30t-54 -33.5t-20.5 -27q0 -6 7 -18t18.5 -24.5t21.5 -21.5t16 -9q16 0 35 13t37 13q6 0 14.5 -10t14.5 -22.5t7 -22.5t-7 -10 q-59 0 -84 -25.5t-25 -103.5q0 -35 7 -73t14.5 -74t14.5 -67.5t7 -54.5q0 -78 -40 -118.5t-111 -40.5q-61 0 -102.5 41t-41.5 102z" />
<glyph unicode="&#xe27;" horiz-adv-x="751" d="M41 666q18 27 56 55.5t84 53t94 39.5t87 15q57 0 107.5 -14t88.5 -45t59.5 -81t21.5 -122v-54t-1 -58t-1 -103.5v-189.5q0 -176 -156 -176q-61 0 -104 43t-43 104t40 104.5t99 43.5l55 -39v-33h-55q-31 0 -48 -22.5t-17 -53.5t19 -53.5t54 -22.5q31 0 53.5 26t22.5 79 v405q0 68 -23.5 106t-55.5 56.5t-61.5 23.5t-41.5 5q-72 0 -137.5 -37t-118.5 -98q-10 -12 -34 2t-44 41z" />
<glyph unicode="&#xe28;" horiz-adv-x="866" d="M102 496q0 160 91.5 247.5t236.5 87.5q131 0 203 -38q29 14 66.5 40.5t70.5 55.5q10 -2 21 -8q10 -4 20 -10.5t18 -14.5q6 -6 7 -12q0 -8 -7 -15q-25 -25 -63.5 -49.5t-73.5 -34.5q37 -43 51.5 -107.5t14.5 -154.5v-483h-82v463q0 80 -7 137t-32 92t-74 51.5t-133 16.5 q-109 0 -177.5 -64.5t-68.5 -199.5q0 -43 10.5 -97.5t22.5 -85.5q18 45 40 90.5t51.5 81t67.5 58t89 22.5q25 0 48.5 -9t42.5 -26.5t32.5 -44t13.5 -61.5q0 -59 -42 -101t-101 -42q-57 0 -99 41l-8 63l21 25l39 -37q18 -20 45 -21q31 0 52 21.5t21 52.5q0 29 -20.5 48.5 t-54.5 19.5q-39 0 -77 -37t-70 -102.5t-52 -155.5t-23 -199h-79q-8 0 -11.5 4t-3.5 25q0 18 3 43.5t9.5 53.5t13.5 53.5t13 43.5q12 33 0 47q-31 39 -53.5 92.5t-22.5 133.5z" />
<glyph unicode="&#xe29;" horiz-adv-x="1001" d="M100 698q0 61 44 104.5t106 43.5q72 0 110.5 -42t38.5 -120q0 -25 -6 -49.5t-14 -53t-15.5 -62.5t-7.5 -79l-2 -180q0 -49 5.5 -87t21.5 -58q27 -29 82 -42.5t119 -13.5q63 0 118.5 13.5t81.5 42.5q31 37 31 121v104q-20 -41 -68.5 -61.5t-89.5 -20.5q-98 0 -135 44 t-37 110q0 61 35 87.5t80 26.5q47 0 75.5 -27.5t28.5 -86.5l-32 -45h-33v45q0 29 -11.5 38t-27.5 9q-27 0 -36 -9.5t-9 -37.5q0 -47 21.5 -67.5t74.5 -20.5q78 0 118 43t40 96v356h82v-549q0 -78 -8.5 -122t-36.5 -76q-25 -27 -58.5 -44.5t-69.5 -25.5t-71 -11t-63 -3 q-27 0 -63 3t-71.5 11t-69.5 25.5t-59 44.5q-27 31 -33.5 82t-6.5 116v185q0 39 6 68.5t13 56t13 50t6 50.5q0 47 -18 70.5t-49 23.5q-35 0 -55.5 -22.5t-20.5 -53.5t16.5 -53t47.5 -22h47v-33l-47 -39q-59 0 -98.5 43t-39.5 104z" />
<glyph unicode="&#xe2a;" horiz-adv-x="876" d="M102 666q20 27 61.5 55.5t91.5 53t106.5 39.5t105.5 15q47 0 97 -9t91 -32q33 14 67 42t69 59q10 -2 20 -8q10 -4 20.5 -10.5t18.5 -14.5q6 -6 6 -12q0 -8 -6 -15q-25 -25 -63.5 -49.5t-73.5 -34.5q61 -61 61 -178q0 -66 -9 -123t-9 -120q0 -23 4 -66t9 -89t11 -85t8 -55 q4 -20 -1 -24.5t-13 -4.5h-80q0 115 -21.5 199t-58 140t-83 84t-95.5 28q-121 0 -168 -61.5t-47 -156.5q0 -29 3 -59.5t13.5 -56t30 -42t49.5 -16.5q29 0 44.5 18.5t15.5 45.5q0 25 -15.5 44t-46.5 19h-61v37l61 35q59 0 97.5 -37t38.5 -98q0 -59 -36 -98t-98 -39 q-74 0 -122 58t-48 185q0 74 21.5 129.5t60.5 91t90.5 54t110.5 18.5q68 0 140.5 -36.5t119.5 -114.5q0 25 1 75t1 121q0 68 -25.5 106t-61.5 56.5t-71.5 23.5t-56.5 5q-92 0 -168 -37t-127 -98q-10 -12 -33.5 2t-46.5 41z" />
<glyph unicode="&#xe2b;" horiz-adv-x="964" d="M72 686q0 61 44 104.5t105 43.5q72 0 111 -42t39 -120q0 -23 -6.5 -44.5t-13.5 -47t-14 -57t-9 -74.5l-6 -256q29 61 73.5 115t95 97.5t102.5 75t93 49.5q-12 10 -27.5 23.5t-29 31t-23.5 41t-10 54.5q0 66 40 108.5t109 42.5q61 0 104.5 -39.5t43.5 -117.5 q0 -53 -24.5 -86t-61.5 -60q16 -10 30.5 -26.5t14.5 -34.5v-467h-82v465q0 10 -8 19.5t-25 2.5q-78 -33 -150.5 -87t-130 -117.5t-91 -131t-33.5 -126.5v-25h-70q-8 0 -13 4t-1 25q4 16 5 59t1 101.5t-1 128t-1 137.5q0 39 6 68.5t12 54t12.5 46t6.5 44.5q0 47 -18.5 70.5 t-49.5 23.5q-35 0 -55.5 -22.5t-20.5 -53.5t16.5 -53.5t47.5 -22.5h47v-32l-47 -39q-59 0 -98 43t-39 104zM670 680q0 -23 15 -54.5t54 -58.5q35 23 57.5 47.5t22.5 55.5q0 35 -16.5 61.5t-57.5 26.5q-35 0 -55 -23.5t-20 -54.5z" />
<glyph unicode="&#xe2c;" horiz-adv-x="1007" d="M72 686q0 61 44 104.5t105 43.5q72 0 111 -42t39 -120q0 -23 -7.5 -44.5t-14.5 -47t-14 -57t-7 -74.5q0 -25 -1 -61t-2 -72.5t-2 -70.5t-1 -55q33 68 75.5 134.5t83.5 119.5q47 63 97 119q51 -57 98 -121q41 -53 83 -121.5t70 -140.5q-4 43 -6 107.5t-2 115.5q0 41 5 85 t8 71q-37 -6 -68 4t-53.5 34t-34.5 56.5t-12 69.5q0 41 14 69.5t34.5 46t43 25.5t37.5 8q63 0 93 -40.5t25 -112.5l-12 -88q29 14 61.5 55t45.5 88q12 -4 22 -10q10 -4 19.5 -12.5t15.5 -18.5q8 -10 -6 -28q-27 -35 -69 -74t-89 -58q0 -23 -2 -67q-2 -39 -3 -103.5 t-1 -166.5q0 -70 4 -123.5t8 -83.5q4 -20 -1 -24.5t-13 -4.5h-76v20q0 51 -37 128t-82 149q-53 84 -120 176q-70 -92 -125 -176q-25 -37 -47.5 -75t-40 -74.5t-27.5 -69.5t-10 -58v-20h-76q-8 0 -13.5 4t-0.5 25q4 16 6 30.5t3 38t2 64.5t1 108v185q0 39 6 68.5t13 54 t13.5 46t6.5 44.5q0 47 -18.5 70.5t-49.5 23.5q-35 0 -55.5 -22.5t-20.5 -53.5t16.5 -53.5t47.5 -22.5h47v-32l-47 -39q-59 0 -98 43t-39 104zM735 721q0 -47 26 -82t77 -23q2 16 3 53.5t1 51.5q0 51 -12.5 65.5t-34.5 14.5q-23 0 -41.5 -17.5t-18.5 -62.5z" />
<glyph unicode="&#xe2d;" horiz-adv-x="874" d="M90 666q20 27 53 55.5t76 53t95.5 39.5t109.5 15q92 0 156.5 -21.5t104.5 -70.5t58.5 -131t18.5 -205q0 -100 -15.5 -178t-52.5 -130t-97 -78.5t-153 -26.5q-92 0 -153.5 18.5t-97 56t-51 97t-15.5 139.5q0 104 43 163.5t131 59.5q59 0 96 -38t37 -99t-38 -97t-99 -36 l-59 35v37h59q33 0 48 19t15 42q0 29 -16 46.5t-43 17.5q-31 0 -49.5 -12.5t-27.5 -33t-12 -48t-3 -56.5q0 -68 9 -113t35 -73.5t72 -41t119 -12.5q74 0 120 20.5t72 62.5t35 106.5t9 152.5q0 111 -12.5 180.5t-42 108.5t-78.5 53.5t-123 14.5q-86 0 -144.5 -37t-109.5 -98 q-10 -12 -33.5 2t-46.5 41z" />
<glyph unicode="&#xe2e;" horiz-adv-x="874" d="M111 680q0 35 13 61.5t47 47t90 30.5t142 10q174 0 267 -88q45 45 80 107q10 -2 20 -8q10 -4 20.5 -10.5t18.5 -14.5q6 -6 6 -12q0 -8 -6 -15q-23 -31 -47.5 -57t-48.5 -49q49 -98 49 -281q0 -100 -16.5 -178t-53.5 -130t-98.5 -78.5t-153.5 -26.5q-170 0 -241.5 75.5 t-71.5 206.5q0 104 43 163t131 59q59 0 96 -38t37 -100q0 -61 -38 -97t-99 -36l-59 35v37h59q33 0 48 19.5t15 41.5q0 29 -16 46.5t-43 17.5q-31 0 -49.5 -12.5t-27.5 -33t-12 -47t-3 -55.5q0 -102 49 -156.5t182 -54.5q74 0 121 20.5t72.5 62.5t36 106.5t10.5 152.5 q0 150 -31 230q-125 -82 -274 -82q-84 0 -136.5 10t-81 27.5t-37.5 41t-9 52.5zM190 684q0 -18 4.5 -30.5t24 -20.5t58 -11.5t108.5 -3.5q53 0 117.5 15.5t122.5 56.5q-35 37 -92.5 52.5t-129.5 15.5q-125 0 -169 -21.5t-44 -52.5z" />
<glyph unicode="&#xe2f;" horiz-adv-x="645" d="M33 705q0 61 35.5 91.5t81.5 30.5q47 0 77.5 -29.5t30.5 -88.5l-33 -60h-32v60q0 29 -13.5 40t-29.5 11q-49 0 -50 -55q0 -51 33 -74t74 -23q23 0 63.5 10.5t79.5 35t67.5 65.5t28.5 100h68q25 0 20.5 -13t-4.5 -46v-760h-86v670q-29 -47 -93 -85t-146 -38q-76 0 -124 43 t-48 115z" />
<glyph unicode="&#xe30;" horiz-adv-x="622" d="M41 197q0 61 36 89.5t81 28.5q47 0 77.5 -29.5t30.5 -88.5l-33 -50h-32v50q0 29 -13.5 40t-29.5 11q-49 0 -49 -51q0 -39 26.5 -54.5t87.5 -15.5q92 0 150.5 38t97.5 128l90 -21q-94 -211 -332 -211q-98 0 -143 38t-45 98zM41 662q0 61 36 89.5t81 28.5q47 0 77.5 -29.5 t30.5 -88.5l-33 -50h-32v50q0 29 -13.5 40t-29.5 11q-49 0 -49 -51q0 -39 26.5 -54.5t87.5 -15.5q92 0 150.5 38t97.5 128l90 -21q-94 -211 -332 -211q-98 0 -143 38t-45 98z" />
<glyph unicode="&#xe31;" horiz-adv-x="0" d="M-487 1079q0 61 35.5 92t80.5 31q47 0 78 -29.5t31 -89.5l-33 -49h-33v49q0 29 -13 40.5t-30 11.5q-49 0 -49 -56q0 -51 36 -67.5t91 -16.5q31 0 72 5.5t83 23.5t80 54t60 96l100 -21q-61 -119 -155 -170t-223 -51q-115 0 -163 41t-48 106z" />
<glyph unicode="&#xe32;" horiz-adv-x="686" d="M0 668q18 27 53 55.5t77 53t87 39.5t84 15q117 0 186.5 -59t69.5 -203q0 -66 -4 -124t-4 -121v-66t2 -89t4 -85t4 -55q4 -20 -1 -24.5t-13 -4.5h-80v313q0 66 5 125.5t5 130.5q0 68 -20.5 106t-48 56.5t-54 23.5t-39.5 5q-72 0 -127 -37t-108 -98q-10 -12 -34 2t-44 41z " />
<glyph unicode="&#xe33;" horiz-adv-x="686" d="M-297 1094q0 57 40 97t97 40t97 -40t40 -97t-39.5 -97.5t-97.5 -40.5q-57 0 -97 40t-40 98zM-229 1094q0 -29 20.5 -49.5t48.5 -20.5q29 0 49.5 20.5t20.5 49.5t-20.5 49t-49.5 20t-49 -20.5t-20 -48.5zM0 668q18 27 53 55.5t77 53t87 39.5t84 15q117 0 186.5 -59 t69.5 -203q0 -66 -4 -124t-4 -121v-66t2 -89t4 -85t4 -55q4 -20 -1 -24.5t-13 -4.5h-80v313q0 66 5 125.5t5 130.5q0 68 -20.5 106t-48 56.5t-54 23.5t-39.5 5q-72 0 -127 -37t-108 -98q-10 -12 -34 2t-44 41z" />
<glyph unicode="&#xe34;" horiz-adv-x="0" d="M-764 948q2 37 15.5 79t46 78t88 58.5t141.5 22.5q94 0 164.5 -24.5t118 -62.5t71 -87t23.5 -99q0 -18 -21 -18q-41 0 -105.5 8t-145.5 16.5t-175 12.5t-194 -6q-12 -2 -19.5 2t-7.5 20zM-684 987q57 4 123.5 3t134.5 -5t132.5 -11t119.5 -13q-6 31 -31.5 59.5t-65.5 51 t-93.5 35.5t-114.5 13q-63 0 -103.5 -15t-63 -36.5t-30.5 -44.5t-8 -37z" />
<glyph unicode="&#xe35;" horiz-adv-x="0" d="M-764 948q2 37 15.5 79t46 78t88 58.5t141.5 22.5q37 0 78 -7.5t78.5 -19.5t67.5 -27.5t46 -29.5v131h88v-238q6 -18 12.5 -38.5t6.5 -43.5q0 -18 -21 -18q-41 0 -105.5 8t-145.5 16.5t-175 12.5t-194 -6q-12 -2 -19.5 2t-7.5 20zM-684 987q57 4 123.5 3t134.5 -5 t132.5 -11t119.5 -13q-6 31 -31.5 59.5t-65.5 51t-93.5 35.5t-114.5 13q-63 0 -103.5 -15t-63 -36.5t-30.5 -44.5t-8 -37z" />
<glyph unicode="&#xe36;" horiz-adv-x="0" d="M-764 948q2 37 15.5 79t46 78t88 58.5t141.5 22.5q45 0 82 -6t63 -15q31 -8 56 -20q0 49 31.5 85t80.5 36t82 -33t33 -86q0 -43 -28.5 -75t-63.5 -38q23 -31 32 -59.5t9 -61.5q0 -18 -21 -18q-41 0 -105.5 8t-145.5 16.5t-175 12.5t-194 -6q-12 -2 -19.5 2t-7.5 20z M-684 987q57 4 123.5 3t134.5 -5t132.5 -11t119.5 -13q-6 31 -31.5 59.5t-65.5 51t-93.5 35.5t-114.5 13q-63 0 -103.5 -15t-63 -36.5t-30.5 -44.5t-8 -37zM-215 1147q0 -25 14.5 -43.5t40.5 -18.5q27 0 42.5 18.5t15.5 43.5t-15.5 43t-42.5 18t-41 -18.5t-14 -42.5z" />
<glyph unicode="&#xe37;" horiz-adv-x="0" d="M-764 948q2 37 15.5 79t46 78t88 58.5t141.5 22.5q20 0 51 -4t49 -13v74h88v-98q25 -10 45.5 -22.5t36.5 -22.5v143h88v-248q6 -18 12.5 -38.5t6.5 -43.5q0 -18 -21 -18q-41 0 -105.5 8t-145.5 16.5t-175 12.5t-194 -6q-12 -2 -19.5 2t-7.5 20zM-684 987q57 4 123.5 3 t134.5 -5t132.5 -11t119.5 -13q-6 31 -31.5 59.5t-65.5 51t-93.5 35.5t-114.5 13q-63 0 -103.5 -15t-63 -36.5t-30.5 -44.5t-8 -37z" />
<glyph unicode="&#xe38;" horiz-adv-x="0" d="M-324 -188q0 47 31 75.5t76 28.5q47 -2 74.5 -31.5t27.5 -77.5q0 -18 -2 -31.5t-5 -24.5t-5 -24.5t-2 -33.5v-123h-78v125q0 20 5 33.5t10.5 26t10.5 23.5t5 27q0 25 -12.5 41.5t-34.5 16.5q-23 0 -35 -14.5t-12 -36.5q0 -20 11 -31.5t21 -16.5l23 -10l-10 -22l-39 -2 q-27 6 -43.5 27.5t-16.5 54.5z" />
<glyph unicode="&#xe39;" horiz-adv-x="0" d="M-492 -186q0 47 29 74.5t74 27.5q53 -2 77.5 -35t24.5 -69q0 -23 -5 -35.5t-11 -25.5t-11 -32.5t-5 -54.5q0 -18 23.5 -23.5t39.5 -5.5t39.5 5.5t23.5 23.5v240h78v-248q0 -23 -13 -36t-34.5 -19.5t-47.5 -7.5t-48 -1q-25 0 -49.5 1t-45 7.5t-33.5 19.5t-13 36v27 q0 20 8 34.5t19.5 27.5t19.5 27.5t8 37.5q0 20 -11.5 36.5t-33.5 16.5q-49 0 -49 -51q0 -18 18 -37l23 -21l-17 -20l-43 8q-35 31 -35 72z" />
<glyph unicode="&#xe3a;" horiz-adv-x="0" d="M-242 -205q0 35 26 58.5t60 23.5q35 0 60.5 -23.5t25.5 -58.5t-25.5 -58.5t-60.5 -23.5t-60.5 23.5t-25.5 58.5z" />
<glyph unicode="&#xe3f;" horiz-adv-x="874" d="M123 0v995h274v197h74v-197h6q78 0 131.5 -17t86 -47t47 -70t14.5 -87q0 -82 -34 -131.5t-87 -67.5q39 -8 71.5 -34.5t56 -62.5t37 -78t13.5 -83q0 -68 -18.5 -126t-58.5 -100t-104.5 -66.5t-158.5 -24.5h-2v-184h-74v184h-274zM225 86h172v444h-172v-444zM229 612h168 v291h-168v-291zM471 86q133 4 186.5 59.5t53.5 171.5q0 94 -52.5 149.5t-187.5 61.5v-442zM471 612q66 4 102.5 16.5t54 34t21.5 50t4 61.5q0 59 -35.5 94t-140.5 35h-6v-291z" />
<glyph unicode="&#xe40;" horiz-adv-x="436" d="M115 791q-4 20 1 24t13 4h80q2 -61 4 -119q2 -49 3 -99t1 -85q0 -33 -2 -91t-6 -114q-4 -66 -8 -137q0 -59 24.5 -76.5t53.5 -17.5q27 0 46 18.5t19 46.5q0 29 -15.5 47.5t-43.5 18.5h-60v37l60 45q61 0 101 -43t40 -105q0 -61 -43 -104t-104 -43t-110.5 41t-49.5 135 q4 72 8 135q4 53 5 109.5t1 87.5q0 23 -2 64.5t-4 84.5t-5 81t-7 55z" />
<glyph unicode="&#xe41;" horiz-adv-x="845" d="M115 791q-4 20 1 24t13 4h80q2 -61 4 -119q2 -49 3 -99t1 -85q0 -33 -2 -91t-6 -114q-4 -66 -8 -137q0 -59 24.5 -76.5t53.5 -17.5q27 0 46 18.5t19 46.5q0 29 -15.5 47.5t-43.5 18.5h-60v37l60 45q61 0 101 -43t40 -105q0 -61 -43 -104t-104 -43t-110.5 41t-49.5 135 q4 72 8 135q4 53 5 109.5t1 87.5q0 23 -2 64.5t-4 84.5t-5 81t-7 55zM524 791q-4 20 1 24t14 4h79q2 -61 5 -119q2 -49 3 -99t1 -85q0 -33 -2 -91t-7 -114q-4 -66 -8 -137q0 -59 24.5 -76.5t53.5 -17.5q27 0 46.5 18.5t19.5 46.5q0 29 -15.5 47.5t-44.5 18.5h-59v37l59 45 q61 0 101.5 -43t40.5 -105q0 -61 -43 -104t-105 -43q-61 0 -110.5 41t-49.5 135q4 72 9 135q4 53 5 109.5t1 87.5q0 23 -2 64.5t-4 84.5t-5.5 81t-7.5 55z" />
<glyph unicode="&#xe42;" horiz-adv-x="436" d="M-76 1208q0 84 51.5 128t116.5 44q29 0 76 -7t104 -7q37 0 65 5t44 11q20 8 33 17q4 -14 10 -29q10 -27 10 -47q0 -12 -18 -20q-23 -6 -53.5 -12.5t-90.5 -6.5q-63 0 -107 10.5t-69 10.5q-45 0 -71.5 -25t-26.5 -72q0 -29 6 -38t23 -13q20 -6 52 -10t62.5 -22.5t52 -57.5 t21.5 -115q2 -70 2 -133v-201q0 -41 -2 -115.5t-6 -148.5q-4 -86 -8 -180q0 -59 24.5 -76.5t53.5 -17.5q27 0 46 18.5t19 46.5q0 29 -15.5 47.5t-43.5 18.5h-60v37l60 45q61 0 101 -43t40 -105q0 -61 -43 -104t-104 -43t-110.5 41t-49.5 135q4 76 8 154q4 66 5 141.5 t1 138.5v344q0 53 -14.5 81t-36 40t-49 16.5t-51.5 10.5q-33 8 -45.5 34.5t-12.5 73.5z" />
<glyph unicode="&#xe43;" horiz-adv-x="446" d="M-72 1214q0 66 55.5 118t149.5 52q113 0 166 -57t53 -143q0 -74 -21.5 -114t-47 -71.5t-47 -66.5t-21.5 -94q2 -39 2 -76v-144q0 -41 -2 -115.5t-6 -148.5q-4 -86 -8 -180q0 -59 24.5 -76.5t53.5 -17.5q27 0 46 18.5t19 46.5q0 29 -15.5 47.5t-43.5 18.5h-60v37l60 45 q61 0 101 -43t40 -105q0 -61 -43 -104t-104 -43t-110.5 41t-49.5 135q4 76 8 154q4 66 5 141.5t1 138.5v230q0 74 21.5 110.5t48 64t48 62.5t21.5 103q0 31 -5 56.5t-21.5 43.5t-45 28.5t-75.5 10.5q-45 0 -84 -21.5t-39 -81.5q0 -27 14.5 -48t42.5 -21q23 0 42.5 15.5 t19.5 47.5v60h35l37 -60q0 -61 -36 -99t-98 -38q-61 0 -96 42t-35 101z" />
<glyph unicode="&#xe44;" horiz-adv-x="436" d="M-84 1368q27 20 54.5 29.5t31.5 -8.5q10 -51 21.5 -89t21.5 -65q10 -31 23 -51q33 37 55 71q20 29 36.5 60t16.5 53v21h68q8 0 13 -4.5t1 -24.5q-4 -31 -3 -65.5t1 -104.5q0 -61 -6 -113.5t-13.5 -114t-13.5 -142.5t-6 -202q0 -41 -2 -115.5t-6 -148.5q-4 -86 -8 -180 q0 -59 24.5 -76.5t53.5 -17.5q27 0 46 18.5t19 46.5q0 29 -15.5 47.5t-43.5 18.5h-60v37l60 45q61 0 101 -43t40 -105q0 -61 -43 -104t-104 -43t-110.5 41t-49.5 135q4 76 8 154q4 66 5 141.5t1 138.5q0 106 5 188.5t12.5 147t15.5 113.5t14 90q6 43 6 74q0 16 -2 30 q-20 -35 -43.5 -67.5t-46.5 -55.5q-25 -27 -51 -49q-20 35 -43 80q-18 39 -40.5 91.5t-43.5 117.5z" />
<glyph unicode="&#xe45;" horiz-adv-x="686" d="M0 668q18 27 53 55.5t77 53t87 39.5t84 15q117 0 186.5 -59t69.5 -203q0 -66 -1 -124t-1 -121q0 -14 1 -62.5t2 -112t2 -134t3 -132t4 -106.5t4 -56q4 -20 -1 -24t-13 -4h-80q0 150 -2 276q0 53 -1 107.5t-2 101.5t-1 83v52q0 66 2 125.5t2 130.5q0 68 -20.5 106 t-48 56.5t-54 23.5t-39.5 5q-72 0 -127 -37t-108 -98q-10 -12 -34 2t-44 41z" />
<glyph unicode="&#xe46;" horiz-adv-x="622" d="M61 678q0 35 14.5 61.5t35 45t45 27.5t49.5 9l102 -82l86 80h25q33 0 55.5 -7t36.5 -27.5t20.5 -54.5t6.5 -89q0 -119 -1 -210t-3.5 -177t-3.5 -182.5t-1 -225.5v-54t2 -30q4 -20 -1 -24t-13 -4h-80q4 125 8 268q4 123 5.5 286t1.5 349q0 43 -2.5 67.5t-6.5 37t-13 15.5 t-23 3l-99 -92l-100 80q-35 0 -54.5 -19.5t-19.5 -48.5q0 -31 17.5 -51.5t48.5 -20.5q29 0 47 21l30 43l27 -17l-8 -73q-18 -27 -45 -36t-53 -9q-59 0 -97.5 40.5t-38.5 100.5z" />
<glyph unicode="&#xe47;" horiz-adv-x="0" d="M-657 1110q0 92 46 136t128 44q41 0 68.5 -4t58.5 -4q80 0 116.5 30.5t36.5 86.5q39 4 68 -4.5t24 -26.5q-18 -80 -76.5 -114.5t-156.5 -34.5q-33 0 -67.5 4t-63.5 4q-66 0 -89.5 -32t-23.5 -81q0 -45 13.5 -70.5t27.5 -37.5l80 100q29 -47 64 -82t96 -35q41 0 66.5 24.5 t25.5 65.5q0 20 -10.5 38t-32.5 18q-47 0 -47 -52q0 -16 18 -34l23 -21l-17 -20l-43 8q-37 33 -36 69q0 47 27.5 75t72.5 28q53 -2 79.5 -36t26.5 -71q0 -68 -45 -104.5t-110 -36.5q-63 0 -98 25.5t-58 60.5l-53 -80h-53q-35 8 -60.5 53t-25.5 111z" />
<glyph unicode="&#xe48;" horiz-adv-x="0" d="M-211 1491v119h94v-119l-18 -160h-58z" />
<glyph unicode="&#xe49;" horiz-adv-x="0" d="M-471 1327q0 10 2 21q2 10 3 18t5 18q8 -2 17 -2q53 4 95 31t42 80q0 20 -9.5 35.5t-31.5 15.5q-47 0 -47 -47q0 -14 18 -33l23 -20l-17 -21l-43 9q-37 33 -37 67q0 47 28 72.5t73 25.5q53 -2 77.5 -33.5t24.5 -68.5q0 -53 -33.5 -90t-103.5 -45q10 2 18 2h35q31 0 66 5 t68.5 28.5t61 68.5t44.5 125h82q-23 -82 -51.5 -135t-67.5 -85t-89 -45t-114 -13q-47 0 -80.5 4t-58.5 12z" />
<glyph unicode="&#xe4a;" horiz-adv-x="0" d="M-502 1417q0 39 12.5 69t33 49t44 28.5t45.5 9.5q29 0 46.5 -10.5t27.5 -22.5q12 -14 19 -33q6 18 16 33q10 12 25.5 21.5t39.5 9.5q55 0 73 -39t18 -82q0 -33 -4.5 -52.5t-12.5 -39.5q18 12 34.5 40.5t28 66.5t14.5 80t-5 77h63q16 0 18.5 -7t2.5 -18q0 -51 -14.5 -99 t-37 -88t-50 -67.5t-54.5 -39.5h-53q-10 0 -6 12q4 16 6 45t2 57q0 47 -7 70.5t-30 23.5q-25 0 -42 -24.5t-27 -46.5q-10 25 -29 49t-57 24q-37 0 -60.5 -25.5t-23.5 -82.5q0 -27 12 -46.5t41 -19.5q37 0 37 47q0 10 -6.5 21.5t-14.5 19.5l-24 23l16 20l45 -10 q16 -16 27.5 -33.5t11.5 -37.5q0 -47 -23.5 -75t-70.5 -28q-53 0 -80 37t-27 94z" />
<glyph unicode="&#xe4b;" horiz-adv-x="0" d="M-317 1440v65h112v113h92v-113h113v-65h-117l-12 -121h-57l-13 121h-118z" />
<glyph unicode="&#xe4c;" horiz-adv-x="0" d="M-334 1378q0 43 20.5 74t53.5 47q31 14 55.5 23.5t42 21.5t26.5 33.5t9 60.5h64q6 0 10 -3t0 -19q-8 -43 -22.5 -66.5t-36 -39t-50 -28t-67.5 -30.5q-27 -14 -36 -33.5t-9 -36.5q0 -29 15 -44t38 -15q25 0 40 13.5t15 37.5q0 10 -4 27.5t-31 40.5l21 16l45 -6 q16 -16 21 -35.5t5 -42.5q0 -47 -31.5 -77.5t-78.5 -30.5q-57 2 -86 37.5t-29 74.5z" />
<glyph unicode="&#xe4d;" horiz-adv-x="0" d="M-297 1094q0 57 40 97t97 40t97 -40t40 -97t-39.5 -97.5t-97.5 -40.5q-57 0 -97 40t-40 98zM-229 1094q0 -29 20.5 -49.5t48.5 -20.5q29 0 49.5 20.5t20.5 49.5t-20.5 49t-49.5 20t-49 -20.5t-20 -48.5z" />
<glyph unicode="&#xe4e;" horiz-adv-x="0" d="M-416 1034q0 35 12.5 58.5t31 40t39 25.5t36.5 11q-23 0 -41 17.5t-18 44.5q0 37 23.5 62.5t61.5 41t84 17.5t91 -11q10 -4 15 -5t5 -15q0 -10 -8 -31l-8 -20q-27 12 -61.5 16t-65.5 -1t-51.5 -17.5t-20.5 -34.5q0 -35 33 -39t59 0q-2 -8 -4 -18q-2 -16 -10 -39 q-6 2 -15.5 2h-13.5q-35 0 -71.5 -24.5t-36.5 -78.5q0 -20 12 -37.5t35 -17.5q18 0 31.5 12.5t13.5 36.5q0 16 -18 35l-23 20l16 21l43 -8q37 -33 37 -70q0 -47 -32.5 -73.5t-77.5 -26.5q-49 0 -76 34.5t-27 71.5z" />
<glyph unicode="&#xe4f;" horiz-adv-x="985" d="M113 432q0 84 31.5 153.5t84 119t121 77t144.5 27.5q74 0 142.5 -27.5t120.5 -77t83.5 -119t31.5 -153.5q0 -82 -31.5 -150.5t-83.5 -117.5t-121 -77t-142 -28q-76 0 -144.5 28t-121 77t-84 117.5t-31.5 150.5zM201 432q0 -61 22.5 -114.5t62.5 -93.5t93.5 -62.5 t114.5 -22.5q59 0 112 22.5t93 62.5t62.5 93.5t22.5 114.5t-22.5 115.5t-62.5 94.5t-93 63.5t-112 23.5q-61 0 -114.5 -23.5t-93.5 -63.5t-62.5 -94t-22.5 -116zM315 438q0 74 53.5 126t127.5 52t127 -52t53 -126q0 -78 -53.5 -129t-126.5 -51q-74 0 -127.5 51t-53.5 129z M391 438q0 -45 31 -75.5t74 -30.5t73.5 30.5t30.5 75.5q0 41 -30.5 72t-73.5 31t-74 -31t-31 -72z" />
<glyph unicode="&#xe50;" horiz-adv-x="864" d="M72 328q0 166 100 255t260 89t260.5 -89t100.5 -255t-100.5 -255t-260.5 -89t-260 89t-100 255zM172 328q0 -80 22.5 -132.5t59.5 -84t84 -44t94 -12.5t94 12.5t84 44t59.5 84t22.5 132.5t-22.5 132t-59.5 83.5t-84 44t-94 12.5t-94 -12.5t-84 -44t-59.5 -83.5 t-22.5 -132z" />
<glyph unicode="&#xe51;" horiz-adv-x="862" d="M72 336q0 82 28.5 143.5t77.5 103.5t115.5 63.5t144.5 21.5q162 0 257.5 -93.5t95.5 -267.5q0 -184 -106.5 -294.5t-278.5 -164.5q-31 -10 -54.5 6.5t-40.5 77.5q70 14 138.5 36t123 63t88 107.5t33.5 168.5q0 152 -73.5 218.5t-190.5 66.5q-121 0 -194.5 -63.5 t-73.5 -198.5q0 -63 14 -104.5t37 -66t51.5 -33.5t57.5 -9q51 0 86.5 18.5t35.5 65.5q0 25 -17 42t-40 17t-40 -13.5t-17 -41.5v-55h-33l-33 55q0 53 34 88t89 35q53 0 88 -36t35 -91q0 -25 -7 -52.5t-27.5 -49t-56.5 -36t-93 -14.5q-43 0 -88 14.5t-82 47t-60.5 88 t-23.5 137.5z" />
<glyph unicode="&#xe52;" horiz-adv-x="915" d="M-31 788q12 14 27.5 26.5t31 20t29 7.5t23.5 -11q45 -47 72.5 -128.5t25.5 -202.5v-240q0 -49 6 -87t23 -58q12 -14 40.5 -24.5t62.5 -17.5t72 -10.5t69 -3.5t71.5 3.5t80.5 10.5t72 17t44 25q16 20 22.5 50t6.5 71v276q0 29 -23 46t-43 17l-117 -118l-123 106 q-68 -43 -85 -87t-17 -77q0 -29 4 -56.5t14.5 -49t31 -34.5t50.5 -13q29 0 47.5 18.5t18.5 44.5q0 25 -15.5 44.5t-46.5 19.5h-61v37l61 34q59 0 97.5 -36.5t38.5 -98.5q0 -59 -39 -98t-101 -39q-37 0 -69.5 11.5t-58 38t-40 68.5t-14.5 105q0 29 6 63t25.5 69.5t55.5 69.5 t95 60l125 -108l105 106h24q23 0 47.5 -7t45 -22.5t34 -40t13.5 -57.5v-258q0 -78 -8.5 -122t-37.5 -76q-25 -27 -69.5 -44.5t-96 -25.5t-97.5 -11t-74 -3q-27 0 -71 3t-91 11t-89 25.5t-67 44.5q-27 31 -34 82t-7 116v193q0 123 -31.5 197.5t-91.5 127.5z" />
<glyph unicode="&#xe53;" horiz-adv-x="843" d="M82 211v215q0 104 43 166.5t139 62.5q86 0 122 -55t52 -151q16 96 53 151t119 55q84 0 118 -58t34 -140v-457h-88v444q0 57 -15.5 97.5t-54.5 40.5q-37 0 -61.5 -22.5t-40 -60.5t-23.5 -89.5t-12 -110.5h-55q-8 68 -16.5 120t-26 89t-45 55.5t-74.5 18.5t-66.5 -43 t-19.5 -121v-203q0 -29 3 -56.5t14.5 -49t30.5 -35t50 -13.5q29 0 47.5 18.5t18.5 45.5q0 25 -15.5 44t-46.5 19h-59v37l59 35q59 0 97 -37t38 -98q0 -59 -38.5 -98t-100.5 -39q-74 0 -127 49t-53 174z" />
<glyph unicode="&#xe54;" horiz-adv-x="872" d="M72 313q0 109 25.5 176.5t71.5 104.5t109.5 49t137.5 8q27 -2 58.5 -2h53.5q53 0 89 18.5t59.5 48t38 66.5t24.5 72q35 -12 61.5 -32.5t20.5 -45.5q-10 -37 -32.5 -74.5t-58.5 -66.5t-85 -47.5t-115 -18.5q-23 0 -44 1t-50 3q-63 4 -114.5 -4t-87 -35.5t-54 -77.5 t-18.5 -128q0 -92 19.5 -144.5t50 -79t68.5 -32.5t75 -6q18 0 56 1t58 5q-10 0 -35.5 13t-52 41t-47 69t-20.5 94q0 59 40 104t109 45q53 0 91 -40t38 -93t-37 -90l-57 -6l-22 18l34 35q18 16 19 41q0 29 -19.5 47.5t-48.5 18.5q-27 0 -48 -20.5t-21 -67.5 q0 -88 73.5 -138.5t184.5 -50.5q47 0 87 -4t74 -20l-38 -74q-45 14 -80 22.5t-68 8.5q-43 0 -78 -5.5t-67.5 -11.5t-66.5 -11t-75 -5q-57 0 -109 13t-91 49t-62.5 98.5t-23.5 160.5z" />
<glyph unicode="&#xe55;" horiz-adv-x="872" d="M72 313q0 190 76.5 268t197.5 70q4 0 6 -1t6 -1q-14 27 -14 60q0 66 39 100.5t88 34.5q53 0 89 -34t36 -89q0 -33 -16.5 -64.5t-42.5 -48.5l22 -4q31 -6 61.5 11.5t55 51t42 82t23.5 105.5q35 -10 61.5 -29.5t20.5 -46.5q-6 -31 -25.5 -70.5t-52 -75.5t-81 -61.5 t-113.5 -25.5q-31 0 -59.5 12t-53.5 23q-12 -2 -24.5 -2h-26.5q-53 0 -95 -6.5t-70.5 -32t-44 -75.5t-15.5 -136q0 -92 19.5 -144.5t50 -79t68.5 -32.5t75 -6q18 0 56 1t58 5q-10 0 -35.5 13t-52 41t-47 69t-20.5 94q0 59 40 104t109 45q53 0 91 -40t38 -93t-37 -90l-57 -6 l-22 18l34 35q18 16 19 41q0 29 -19.5 47.5t-48.5 18.5q-27 0 -48 -20.5t-21 -67.5q0 -88 73.5 -138.5t184.5 -50.5q47 0 87 -4t74 -20l-38 -74q-45 14 -80 22.5t-68 8.5q-43 0 -78 -5.5t-67.5 -11.5t-66.5 -11t-75 -5q-57 0 -109 13t-91 49t-62.5 98.5t-23.5 160.5z M408 711q0 -45 34 -68q47 0 67.5 20.5t20.5 47.5q0 41 -19 55t-40 14q-31 0 -47 -20.5t-16 -48.5z" />
<glyph unicode="&#xe56;" horiz-adv-x="835" d="M0 829q12 14 28.5 25.5t34 18t32 6.5t22.5 -13q41 -55 70.5 -129.5t31.5 -146.5q29 23 82 45t137 22q147 0 236.5 -87t89.5 -253q0 -90 -27.5 -152.5t-71.5 -101t-100.5 -56t-115.5 -17.5q-137 0 -201 57t-64 146q0 61 39 100t99 39q61 0 98 -38t37 -97l-35 -62h-37v62 q0 31 -19.5 46t-43.5 15q-27 0 -45.5 -18.5t-18.5 -46.5q0 -63 51 -94t144 -31q29 0 66.5 7t71.5 32.5t57.5 74.5t23.5 135q0 74 -19.5 124.5t-52.5 81t-77 44t-93 13.5q-82 0 -133 -26t-80 -71h-63q4 53 -9.5 104.5t-36 96.5t-51 82t-57.5 63z" />
<glyph unicode="&#xe57;" horiz-adv-x="1015" d="M72 272v82q0 104 48 183t134 120l139 -149l105 147h30q78 0 120 -48t42 -130v-385q68 41 112 125t44 219q0 106 -40 199.5t-99 146.5q12 14 29.5 24.5t34.5 15.5t32.5 4t23.5 -13q41 -55 74 -147.5t33 -216.5q0 -176 -75 -289t-187 -160h-62q-18 0 -13 10t5 33v428 q0 111 -82 111l-127 -170l-145 153q-43 -29 -68.5 -81t-25.5 -138v-70q0 -104 18 -159.5t82 -55.5q29 0 47 18.5t18 45.5q0 25 -15 44t-46 19h-61v37l61 35q59 0 97 -37t38 -98q0 -59 -39 -98t-100 -39q-37 0 -69.5 12t-58.5 44t-40 87t-14 141z" />
<glyph unicode="&#xe58;" horiz-adv-x="864" d="M72 313q0 109 28.5 176.5t74.5 104.5t103.5 49t116.5 8q12 0 34 -2t44.5 -3t43 -2t32.5 -1q53 0 89 19.5t59.5 50t38 68.5t24.5 73q35 -12 61.5 -32.5t20.5 -45.5q-8 -35 -29.5 -72.5t-58.5 -70.5t-87.5 -53.5t-115.5 -20.5q-12 0 -30.5 2t-40 4t-41 5t-33.5 3 q-49 4 -93.5 -5t-78 -36.5t-53 -76.5t-19.5 -127q0 -84 15.5 -135.5t40 -79t57 -36.5t67.5 -9q27 0 53 10q14 6 29 10q-23 23 -43.5 51.5t-26.5 63.5q-2 10 11.5 20t29 17.5t28.5 8.5t13 -7q0 -39 13.5 -72t36 -56.5t51 -37t57.5 -13.5q31 0 58.5 6.5t47 23t31.5 46t12 76.5 t-15 72.5t-42 25.5q-29 0 -46 -17t-17 -46q0 -25 18 -41l35 -35l-23 -18l-57 6q-37 37 -37 90t36 90t89 37q78 0 109.5 -48t31.5 -108q0 -51 -16 -93t-43 -72.5t-62.5 -48t-76.5 -17.5q-39 0 -67 9t-47 20.5t-31.5 20.5t-24.5 9q-6 0 -19.5 -9t-33 -20.5t-48 -20.5t-69.5 -9 q-92 0 -153.5 82t-61.5 239z" />
<glyph unicode="&#xe59;" horiz-adv-x="839" d="M72 305q0 92 10 157.5t36.5 107.5t74 62.5t118.5 20.5q51 0 94.5 -23.5t65.5 -51.5q18 35 50 57t73 22q88 0 125 -77q14 33 13 103.5t-32 143.5q39 16 73 17.5t38 -23.5q10 -49 4 -106.5t-21.5 -106.5t-34 -82.5t-30.5 -33.5h-13t-14 2q-8 2 -12 2q-6 2 -5 4t1 14 q0 33 -25.5 52.5t-64.5 19.5q-29 0 -48.5 -19.5t-31.5 -42.5q35 -55 68.5 -125.5t62.5 -142.5t52.5 -139.5t37.5 -116.5h-88q-23 74 -57.5 173t-77.5 190.5t-94 155t-109 63.5q-43 0 -71.5 -8.5t-47 -37t-26.5 -82t-8 -145.5q0 -45 6 -88t20.5 -75.5t37 -52t52.5 -19.5 q29 0 47.5 18.5t18.5 44.5q0 25 -15.5 44.5t-45.5 19.5h-62v37l62 34q59 0 97 -36.5t38 -98.5q0 -59 -41 -98t-103 -39q-88 0 -143 84t-55 221z" />
<glyph unicode="&#xe5b;" horiz-adv-x="1427" d="M158 375q0 154 63.5 237.5t177.5 83.5q92 0 145.5 -56t53.5 -155q0 -88 -35 -147q-43 -74 -125 -74q-45 0 -77.5 34t-32.5 79q0 47 31.5 79.5t78.5 32.5q53 0 88 -40v4q4 20 4 49q0 131 -124 131q-84 0 -129.5 -72t-45.5 -196q0 -113 56.5 -180.5t144.5 -67.5 q121 0 185.5 88t64.5 250q0 63 -6 96q115 -23 153 -217q18 59 19 115q0 39 -17 98q86 -25 150 -178q10 51 10 75q0 18 -10 76q88 -25 131 -172q20 27 21 72q0 25 -7 55q10 -2 88 -57q70 -51 146 -51h10q-41 -23 -84 -23q-68 0 -119 51q-12 -98 -57 -112q-18 0 -41 67 q-29 86 -43 101q0 -188 -55 -189q-12 0 -35 74q-25 82 -43 104q-12 -201 -78 -200q-12 0 -35 79q-29 102 -43 121q0 -391 -305 -391q-127 0 -200.5 88t-73.5 238zM381 377q0 -23 17.5 -40.5t39.5 -17.5q23 0 40.5 17.5t17.5 40.5t-17.5 40t-40.5 17t-40 -17.5t-17 -39.5z " />
<glyph unicode="&#x2000;" horiz-adv-x="819" />
<glyph unicode="&#x2001;" horiz-adv-x="1638" />
<glyph unicode="&#x2002;" horiz-adv-x="819" />
<glyph unicode="&#x2003;" horiz-adv-x="1638" />
<glyph unicode="&#x2004;" horiz-adv-x="546" />
<glyph unicode="&#x2005;" horiz-adv-x="409" />
<glyph unicode="&#x2006;" horiz-adv-x="273" />
<glyph unicode="&#x2007;" horiz-adv-x="273" />
<glyph unicode="&#x2008;" horiz-adv-x="204" />
<glyph unicode="&#x2009;" horiz-adv-x="327" />
<glyph unicode="&#x200a;" horiz-adv-x="91" />
<glyph unicode="&#x200c;" horiz-adv-x="0" d="M-41 -520v1100h82v-1100h-82z" />
<glyph unicode="&#x200d;" horiz-adv-x="0" d="M-131 408l86 59l-80 68l51 51l74 -70l74 70l51 -51l-80 -68l86 -59l-41 -60l-49 41v-909h-82v909l-51 -41z" />
<glyph unicode="&#x200e;" horiz-adv-x="0" d="M-41 508h283l-47 57l53 33l96 -131l-96 -131l-53 35l47 57h-201v-948h-82v1028z" />
<glyph unicode="&#x200f;" horiz-adv-x="0" d="M-344 467l96 131l53 -33l-47 -57h283v-1028h-82v948h-201l47 -57l-53 -35z" />
<glyph unicode="&#x2010;" horiz-adv-x="681" d="M86 436v92h510v-92h-510z" />
<glyph unicode="&#x2011;" horiz-adv-x="681" d="M86 436v92h510v-92h-510z" />
<glyph unicode="&#x2012;" horiz-adv-x="681" d="M86 436v92h510v-92h-510z" />
<glyph unicode="&#x2013;" d="M0 371v69h778v-69h-778z" />
<glyph unicode="&#x2014;" horiz-adv-x="1556" d="M0 371v69h1556v-69h-1556z" />
<glyph unicode="&#x2018;" horiz-adv-x="346" d="M94 766v141l96 234h64l-92 -234h65v-141h-133z" />
<glyph unicode="&#x2019;" horiz-adv-x="346" d="M94 752l88 233h-63v139h135v-139l-100 -233h-60z" />
<glyph unicode="&#x201a;" horiz-adv-x="346" d="M94 -233l88 233h-63v139h135v-139l-100 -233h-60z" />
<glyph unicode="&#x201c;" horiz-adv-x="690" d="M152 766v141l98 234h59l-90 -234h66v-141h-133zM410 766v141l100 234h59l-90 -234h66v-141h-135z" />
<glyph unicode="&#x201d;" horiz-adv-x="690" d="M121 752l92 233h-68v139h136v-139l-99 -233h-61zM381 752l90 233h-63v139h133v-139l-99 -233h-61z" />
<glyph unicode="&#x201e;" horiz-adv-x="690" d="M121 -233l92 233h-68v139h136v-139l-99 -233h-61zM381 -233l90 233h-63v139h133v-139l-99 -233h-61z" />
<glyph unicode="&#x2020;" d="M129 752v96l236 -27l-23 320h94l-22 -320l235 27v-96l-235 28l28 -276l-32 -629h-41l-33 629l29 276z" />
<glyph unicode="&#x2021;" d="M129 168v94l236 -26l-29 272l29 272l-236 -28v96l236 -27l-23 320h94l-22 -320l235 27v-96l-235 28l28 -272l-28 -272l235 26v-94l-235 25l22 -318h-94l23 318z" />
<glyph unicode="&#x2022;" d="M106 563q0 59 22 109.5t60.5 88.5t90 59.5t108.5 21.5q59 0 110.5 -21.5t89.5 -59.5t60.5 -88t22.5 -110q0 -57 -22.5 -109.5t-60.5 -90t-89.5 -60t-110.5 -22.5q-57 0 -108.5 22.5t-90 60t-60.5 90t-22 109.5z" />
<glyph unicode="&#x2026;" horiz-adv-x="1556" d="M193 0v139h135v-139h-135zM713 0v139h131v-139h-131zM1229 0v139h135v-139h-135z" />
<glyph unicode="&#x202f;" horiz-adv-x="327" />
<glyph unicode="&#x2030;" horiz-adv-x="1679" d="M113 768q0 47 17 88t48 71.5t72 49t86 18.5q47 0 89 -18.5t72.5 -49t48 -71.5t17.5 -88t-17.5 -88t-48 -71.5t-72.5 -48t-89 -17.5q-45 0 -86 17.5t-72 48t-48 71.5t-17 88zM186 768q-2 -63 43 -107.5t107 -44.5q66 0 109.5 44.5t43.5 107.5q0 66 -43.5 109t-109.5 43 q-61 0 -106.5 -43t-43.5 -109zM264 -14l570 1024h86l-572 -1024h-84zM616 225q0 47 18.5 88t49.5 72t72 48.5t86 17.5q47 0 88 -17.5t71.5 -48.5t49 -72t18.5 -88q0 -45 -18.5 -86t-49 -71.5t-71.5 -49t-88 -18.5q-45 0 -86 18.5t-72 49t-49.5 71.5t-18.5 86zM692 225 q-2 -63 42 -107t108 -44q66 0 110.5 44t42.5 107q2 63 -42.5 108.5t-110.5 45.5q-63 0 -107.5 -45t-42.5 -109zM1114 225q0 47 18.5 88t49 72t71.5 48.5t86 17.5q47 0 88 -17.5t72 -48.5t49.5 -72t18.5 -88q0 -45 -18.5 -86t-49.5 -71.5t-72 -49t-88 -18.5q-45 0 -86 18.5 t-71.5 49t-49 71.5t-18.5 86zM1190 225q-2 -63 42 -107t107 -44q66 0 111 44t43 107q2 63 -43 108.5t-111 45.5q-63 0 -107 -45t-42 -109z" />
<glyph unicode="&#x2032;" horiz-adv-x="317" d="M123 719v330h72v-330h-72z" />
<glyph unicode="&#x2033;" horiz-adv-x="460" d="M113 719v330h71v-330h-71zM276 719v330h72v-330h-72z" />
<glyph unicode="&#x2039;" horiz-adv-x="518" d="M98 410l191 233h102l-192 -233l192 -244h-102z" />
<glyph unicode="&#x203a;" horiz-adv-x="518" d="M129 166l193 235l-193 242h100l189 -242l-189 -235h-100z" />
<glyph unicode="&#x2044;" horiz-adv-x="331" d="M-74 0l396 975h84l-396 -975h-84z" />
<glyph unicode="&#x205f;" horiz-adv-x="409" />
<glyph unicode="&#x20a3;" horiz-adv-x="749" d="M14 195v81h109v719h586v-86h-484v-295h422v-86h-422v-252h232v-81h-232v-195h-102v195h-109z" />
<glyph unicode="&#x20ab;" horiz-adv-x="884" d="M57 410q0 195 60.5 305t218.5 110q41 0 82 -7t79 -19.5t69.5 -26.5t51.5 -27v199h-204v72h204v108h95v-108h143v-72h-143v-944h-66l-14 104q-61 -63 -129 -91.5t-154 -28.5q-141 0 -217 101t-76 325zM78 -150h661v-81h-661v81zM150 393q0 -78 9 -139t32.5 -104.5 t63.5 -67t101 -23.5q86 0 151.5 42t110.5 106v438q-16 16 -45.5 35.5t-65.5 35t-74 26t-73 10.5q-72 0 -113.5 -23.5t-63 -69t-27.5 -113t-6 -153.5z" />
<glyph unicode="&#x20ac;" horiz-adv-x="776" d="M-37 324v88h598v-88h-598zM-37 573v89h598v-89h-598zM82 496q0 135 18.5 231t62.5 158.5t116.5 91.5t179.5 29q68 0 144.5 -21.5t131.5 -64.5l-63 -78q-47 41 -100.5 57t-114.5 16q-86 0 -140.5 -23.5t-85 -73.5t-41 -130t-10.5 -192q0 -113 10.5 -192t41 -130t85 -74.5 t140.5 -23.5q61 0 114.5 16.5t100.5 57.5l63 -78q-55 -43 -132 -64.5t-144 -21.5q-106 0 -179 28.5t-117 91t-62.5 159t-18.5 231.5z" />
<glyph unicode="&#x2113;" horiz-adv-x="428" d="M10 305l115 80v489q0 66 28.5 95.5t69.5 29.5q37 0 64.5 -26.5t46 -66.5t27 -84t8.5 -81q0 -133 -50.5 -233t-123.5 -166v-242q0 -23 10 -28.5t26 -5.5q27 0 46.5 8t44.5 22q8 -18 14 -35q4 -14 5 -26t-9 -17q-23 -12 -59.5 -18t-61.5 -6q-49 0 -67.5 29.5t-18.5 74.5 v203l-64 -43zM195 430q25 29 44 65.5t33.5 76.5t22.5 81t8 74q0 23 -6 57.5t-17.5 68.5t-24.5 58.5t-28 24.5q-33 0 -32 -62v-444z" />
<glyph unicode="&#x2122;" horiz-adv-x="1449" d="M61 926v69h498v-69h-207v-572h-78v572h-213zM674 354v641h133l207 -512l200 512h134v-641h-78v572h-4l-232 -572h-47l-231 572h-4v-572h-78z" />
<glyph unicode="&#x2126;" horiz-adv-x="962" d="M72 0v82h241v127q-51 16 -96 53t-76.5 86t-50 109.5t-18.5 126.5q0 88 26.5 166.5t78.5 137t128 92.5t176 34t176 -34t128.5 -92.5t79 -137t26.5 -166.5q0 -66 -18.5 -126.5t-50 -109.5t-76 -86t-97.5 -53v-127h242v-82h-328v266q47 10 90 38t75 69t51.5 94t19.5 117 q0 74 -20.5 136t-61.5 109.5t-99.5 74t-136.5 26.5q-76 0 -135 -26.5t-100 -74t-61.5 -110t-20.5 -135.5q0 -63 19.5 -116.5t51 -94.5t74.5 -69t90 -38v-266h-327z" />
<glyph unicode="&#x212e;" horiz-adv-x="991" d="M102 446q0 125 30 219.5t82 157t124 94t158 31.5q197 0 291 -128t94 -378h-686q0 -70 24.5 -138t67.5 -122.5t101 -88.5t128 -34q78 0 158 34t139 128l76 -39q-66 -109 -165 -153.5t-216 -44.5q-80 0 -152.5 32.5t-129 92t-90.5 145.5t-34 192zM195 518h591 q-12 186 -84.5 271t-209.5 85q-76 0 -132.5 -28.5t-92.5 -77.5t-54 -113.5t-18 -136.5z" />
<glyph unicode="&#x2202;" d="M57 406q0 82 16.5 157.5t55.5 134t102.5 93t157.5 34.5q90 0 154 -34l4 4q-8 20 -31.5 55t-59.5 73t-83 75.5t-103 64.5l84 61q117 -80 188.5 -168t111.5 -179t53.5 -184t13.5 -187q0 -82 -16.5 -159t-54.5 -135.5t-101.5 -93t-159.5 -34.5q-94 0 -157.5 34.5t-102.5 93 t-55.5 135.5t-16.5 159zM150 406q0 -166 56 -256.5t183 -90.5t183.5 90.5t56.5 256.5t-56.5 256t-183.5 90t-183 -90.5t-56 -255.5z" />
<glyph unicode="&#x2206;" horiz-adv-x="796" d="M0 0l328 995h123l327 -995h-778zM113 82h553l-277 821z" />
<glyph unicode="&#x220f;" horiz-adv-x="962" d="M49 918v77h832v-77l-82 -11v-907h-94v903h-478v-903h-94v907z" />
<glyph unicode="&#x2211;" horiz-adv-x="899" d="M72 0v113l362 399l-354 375v108h717v-82h-607l347 -368v-53l-371 -410h661v-82h-755z" />
<glyph unicode="&#x2212;" horiz-adv-x="823" d="M72 422v86h680v-86h-680z" />
<glyph unicode="&#x221a;" horiz-adv-x="792" d="M51 410l10 82h168l156 -386l274 801h82l-307 -907h-94l-164 410h-125z" />
<glyph unicode="&#x221e;" horiz-adv-x="1142" d="M82 453q0 98 64.5 162.5t162.5 64.5q45 0 86 -21.5t76 -52.5t62.5 -61.5t44.5 -48.5q57 84 119.5 134t133.5 50q47 0 89.5 -15.5t73 -46t49 -77t18.5 -109.5q0 -98 -64.5 -162.5t-162.5 -64.5q-45 0 -86 21.5t-77 51t-63.5 61.5t-44.5 52q-55 -86 -117.5 -136t-134.5 -50 q-94 0 -161.5 61.5t-67.5 186.5zM156 451q0 -33 10 -65t30.5 -56.5t49 -39t67.5 -14.5q35 0 67 17.5t60.5 44.5t52 57.5t37.5 57.5q-55 59 -109 108t-110 49q-41 0 -70.5 -15t-48 -40t-27.5 -52.5t-9 -51.5zM612 432q55 -59 109.5 -108.5t109.5 -49.5q41 0 71 15.5t48.5 40 t27.5 52t9 52.5q0 33 -10 64.5t-29.5 56.5t-49.5 39t-69 14q-33 0 -65.5 -17.5t-61 -44t-52 -57t-38.5 -57.5z" />
<glyph unicode="&#x222b;" horiz-adv-x="495" d="M-18 -201l10 86q10 -2 30.5 -3t30.5 -1q57 0 88 22.5t31 96.5v805q0 92 44 137t126 45q16 0 44 -1t48 -5l-14 -84q-10 2 -27.5 2h-25.5q-61 0 -82 -22.5t-21 -75.5l-2 -824q0 -96 -52 -142t-124 -46q-23 0 -52.5 2t-51.5 8z" />
<glyph unicode="&#x2248;" horiz-adv-x="804" d="M59 248q23 41 66 77.5t121 36.5q37 0 78 -13t84 -32q41 -16 81.5 -30.5t71.5 -14.5q45 0 75 30t56 67l51 -60q-23 -43 -65.5 -78.5t-120.5 -35.5q-37 0 -78 12t-86 33q-41 16 -82 30.5t-69 14.5q-45 0 -76 -30t-57 -67zM61 508q23 41 66 78t121 37q37 0 78 -13.5 t84 -31.5q41 -16 81.5 -31t71.5 -15q45 0 75 30t56 67l51 -60q-23 -43 -65.5 -78.5t-120.5 -35.5q-37 0 -78 12t-86 33q-41 16 -82 30.5t-69 14.5q-45 0 -76 -30t-57 -66z" />
<glyph unicode="&#x2260;" horiz-adv-x="790" d="M66 242v88h245l105 202h-350v89h397l129 249h74l-129 -249h188v-89h-236l-104 -202h340v-88h-385l-125 -242h-74l125 242h-200z" />
<glyph unicode="&#x2264;" horiz-adv-x="933" d="M61 0v84h811v-84h-811zM61 449v110l809 281v-88l-739 -250l739 -260v-86z" />
<glyph unicode="&#x2265;" horiz-adv-x="933" d="M61 0v84h811v-84h-811zM63 156v86l740 260l-740 250v88l809 -281v-110z" />
<glyph unicode="&#x25ca;" horiz-adv-x="743" d="M92 500l238 381h88l233 -381l-233 -385h-88zM182 500l191 -316l192 316l-192 311z" />
<glyph unicode="&#x25cc;" horiz-adv-x="1107" d="M102 502q0 20 11.5 33.5t31.5 13.5q23 0 35.5 -13.5t12.5 -33.5q0 -45 -48 -45q-43 0 -43 45zM133 348q0 45 45 45q20 0 33.5 -12.5t13.5 -32.5t-13 -33.5t-34 -13.5q-20 0 -32.5 13.5t-12.5 33.5zM133 653q0 20 12.5 33.5t32.5 13.5t33.5 -13.5t13.5 -33.5t-13 -32.5 t-34 -12.5q-45 0 -45 45zM219 211q0 45 45 45q20 0 33.5 -12.5t13.5 -32.5t-13 -33.5t-34 -13.5q-20 0 -32.5 13t-12.5 34zM219 791q0 20 12.5 33.5t32.5 13.5t33.5 -13.5t13.5 -33.5t-13 -33t-34 -13q-45 0 -45 46zM352 125q0 45 45 45t45 -45q0 -20 -12 -33.5t-33 -13.5 q-23 0 -34 13t-11 34zM352 877q0 20 11.5 33.5t33.5 13.5q20 0 32.5 -13.5t12.5 -33.5q0 -45 -45 -46q-45 0 -45 46zM506 96q0 20 13 32.5t34 12.5q20 0 33.5 -12.5t13.5 -32.5q0 -23 -13.5 -35t-33.5 -12t-33.5 12.5t-13.5 34.5zM506 905q0 20 13 33.5t34 13.5 q20 0 33.5 -13.5t13.5 -33.5t-13.5 -33.5t-33.5 -13.5t-33.5 13.5t-13.5 33.5zM662 877q0 20 13 33.5t34 13.5q20 0 32.5 -13.5t12.5 -33.5q0 -45 -45 -46q-20 0 -33.5 11.5t-13.5 34.5zM664 125q0 20 13 32.5t34 12.5q45 0 45 -45q0 -20 -12.5 -33.5t-32.5 -13.5t-33.5 13 t-13.5 34zM795 791q0 20 12 33.5t35 13.5q20 0 31.5 -13.5t11.5 -33.5q0 -45 -43 -46q-47 0 -47 46zM797 211q0 20 13 32.5t34 12.5q43 0 43 -45q0 -20 -11.5 -33.5t-31.5 -13.5t-33.5 13t-13.5 34zM879 653q0 20 13 33.5t36 13.5q20 0 32.5 -13.5t12.5 -33.5q0 -45 -45 -45 q-23 0 -36 12.5t-13 32.5zM883 348q0 45 47 45q45 0 45 -45q0 -20 -12.5 -33.5t-32.5 -13.5q-23 0 -35 13.5t-12 33.5zM915 502q0 20 11.5 33.5t31.5 13.5t34 -13.5t14 -33.5t-13.5 -32.5t-34.5 -12.5q-43 0 -43 45z" />
<glyph unicode="&#x25fc;" horiz-adv-x="808" d="M0 0v809h809v-809h-809z" />
<glyph unicode="&#xf700;" horiz-adv-x="837" d="M109 635q0 84 46 128t121 44q14 0 40 -2t58 -5t65.5 -5t62.5 -2q37 0 73.5 5t65.5 11q35 8 64 16q4 -14 10 -28q10 -27 10 -47q0 -12 -18 -21q-23 -6 -83.5 -12t-119.5 -6q-27 0 -59.5 4t-65.5 8t-59.5 8t-38.5 4q-59 0 -79 -25.5t-20 -72.5q0 -39 10.5 -49t51.5 -10 t104.5 8t134.5 8q109 0 166.5 -49t57.5 -127q0 -29 -6.5 -73t-15.5 -96t-17.5 -109.5t-12.5 -112.5q0 -14 -42 -22.5t-91 -7.5t-89 9t-40 23q4 84 5 144t-6 101t-26.5 60.5t-56.5 19.5q-29 0 -48 -18.5t-19 -44.5q0 -23 16 -43.5t47 -20.5h62v-34l-62 -37q-61 0 -99 36.5 t-38 98.5q0 61 40 99t101 38q57 0 90 -25.5t49.5 -73.5t18.5 -113.5t-2 -145.5q0 -6 18.5 -10.5t42 -4.5t43 4t19.5 13q8 92 22.5 177t14.5 157q0 20 -6.5 40.5t-26 37t-59 26.5t-107.5 10q-63 0 -118.5 -8t-96.5 -8q-59 0 -80.5 38t-21.5 93z" />
<glyph unicode="&#xf701;" horiz-adv-x="0" d="M-928 948q2 37 15.5 79t46 78t88 58.5t141.5 22.5q94 0 161.5 -24.5t110.5 -62.5t63.5 -87t20.5 -99q0 -18 -20 -18q-41 0 -102.5 8t-138 16.5t-168 12.5t-191.5 -6q-12 -2 -19.5 2t-7.5 20zM-848 987q117 10 248 -1t242 -25q-6 31 -29 59.5t-58.5 51t-86 35.5t-111.5 13 q-63 0 -103 -15t-62.5 -36.5t-31 -44.5t-8.5 -37z" />
<glyph unicode="&#xf702;" horiz-adv-x="0" d="M-907 948q2 37 15 79t46 78t88.5 58.5t141.5 22.5q74 0 146.5 -29t113.5 -72q-4 10 -6 25q-2 12 -3.5 29.5t-1.5 40.5v53h88v-238q6 -18 12.5 -38.5t6.5 -43.5q0 -18 -21 -18q-41 0 -102 8t-138 16.5t-168 12.5t-192 -6q-12 -2 -19 2t-7 20zM-827 987q117 10 247.5 -1 t241.5 -25q-6 23 -28.5 50t-58.5 51.5t-86 41t-112 16.5q-63 0 -103 -15t-62.5 -36.5t-30.5 -44.5t-8 -37z" />
<glyph unicode="&#xf703;" horiz-adv-x="0" d="M-928 948q2 37 15.5 79t46 78t88 58.5t141.5 22.5q45 0 79 -6t56 -15q27 -8 45 -20q0 49 32 85t81 36t82 -33t33 -86q0 -43 -29 -75t-64 -38q23 -31 32 -59.5t9 -61.5q0 -18 -20 -18q-41 0 -102.5 8t-138 16.5t-168 12.5t-191.5 -6q-12 -2 -19.5 2t-7.5 20zM-848 987 q117 10 248 -1t242 -25q-6 31 -29 59.5t-58.5 51t-86 35.5t-111.5 13q-63 0 -103 -15t-62.5 -36.5t-31 -44.5t-8.5 -37zM-399 1147q0 -25 14 -43.5t41 -18.5t42 18.5t15 43.5t-15 43t-42 18t-41 -18.5t-14 -42.5z" />
<glyph unicode="&#xf704;" horiz-adv-x="0" d="M-928 948q2 37 15.5 79t46 78t88 58.5t141.5 22.5q20 0 51 -4t49 -13v76h88v-100q25 -10 37.5 -18.5t32.5 -24.5q-2 8 -4 20q-2 10 -3 25.5t-1 34.5v63h88v-250q6 -18 12 -38.5t6 -43.5q0 -18 -20 -18q-41 0 -102.5 8t-138 16.5t-168 12.5t-191.5 -6q-12 -2 -19.5 2 t-7.5 20zM-848 987q117 10 248 -1t242 -25q-6 31 -29 59.5t-58.5 51t-86 35.5t-111.5 13q-63 0 -103 -15t-62.5 -36.5t-31 -44.5t-8.5 -37z" />
<glyph unicode="&#xf705;" horiz-adv-x="0" d="M-471 1102v119h94v-119l-18 -160h-58z" />
<glyph unicode="&#xf706;" horiz-adv-x="0" d="M-700 956q0 10 2 21q2 10 3 18.5t5 18.5q6 -2 14.5 -2h12.5q53 4 95 34.5t42 83.5q0 20 -9.5 38t-31.5 18q-47 0 -47 -51q0 -16 18 -35l23 -21l-17 -20l-43 8q-37 33 -37 70q0 47 28 74.5t73 27.5q53 -2 77.5 -36t24.5 -70q0 -53 -33.5 -94.5t-103.5 -49.5q10 2 18 2h35 q31 0 69 6.5t76 31t68.5 70.5t46.5 126h82q-23 -82 -54.5 -136.5t-74.5 -87t-96 -47t-117 -14.5q-96 0 -149 16z" />
<glyph unicode="&#xf707;" horiz-adv-x="0" d="M-729 1071q0 39 12.5 67.5t33 48t44 29t45.5 9.5q29 0 46.5 -10.5t27.5 -22.5q12 -14 19 -33q6 18 16 33q10 12 25.5 21.5t40.5 9.5q55 0 72.5 -39t17.5 -82q0 -33 -4.5 -52.5t-12.5 -39.5q18 12 34.5 40.5t28 66.5t14.5 80t-5 77h63q16 0 18.5 -7t2.5 -18 q0 -51 -14.5 -99t-37 -88t-50 -67.5t-54.5 -40.5h-53q-10 0 -6 13q4 16 6 44.5t2 57.5q0 47 -7 70.5t-30 23.5q-25 0 -42 -24.5t-27 -46.5q-10 25 -29 49t-57 24q-37 0 -60.5 -25.5t-23.5 -82.5q0 -27 11 -46.5t40 -19.5q39 0 39 47q0 10 -6.5 21.5t-14.5 19.5l-24 23l16 20 l45 -10q16 -16 27.5 -33.5t11.5 -38.5q0 -47 -24.5 -74.5t-71.5 -27.5q-53 0 -79 38t-26 95z" />
<glyph unicode="&#xf708;" horiz-adv-x="0" d="M-629 1057v61h112v113h93v-113h112v-61h-116l-13 -125h-57l-12 125h-119z" />
<glyph unicode="&#xf709;" horiz-adv-x="0" d="M-536 1053q0 43 19.5 73.5t51.5 47.5q31 14 62 29.5t55.5 36t41 48t16.5 66.5h63q6 0 10 -3t0 -20q-8 -43 -28.5 -72.5t-49 -52t-64.5 -42t-75 -38.5q-27 -14 -36 -33.5t-9 -35.5q0 -29 15.5 -44.5t37.5 -15.5q25 0 40.5 13.5t15.5 38.5q0 10 -4.5 27.5t-30.5 39.5l20 17 l45 -7q16 -16 21.5 -35.5t5.5 -41.5q0 -47 -32 -78t-79 -31q-57 2 -84.5 38t-27.5 75z" />
<glyph unicode="&#xf70a;" horiz-adv-x="0" d="M-211 1102v119h94v-119l-18 -160h-58z" />
<glyph unicode="&#xf70b;" horiz-adv-x="0" d="M-522 956q0 10 2 21q2 10 3 18.5t5 18.5q6 -2 14.5 -2h12.5q53 4 95 34.5t42 83.5q0 20 -9.5 38t-31.5 18q-47 0 -47 -51q0 -16 18 -35l23 -21l-17 -20l-43 8q-37 33 -37 70q0 47 28 74.5t73 27.5q53 -2 77.5 -36t24.5 -70q0 -53 -33.5 -94.5t-103.5 -49.5q10 2 18 2h35 q31 0 69 6.5t76 31t68.5 70.5t46.5 126h82q-23 -82 -54.5 -136.5t-74.5 -87t-96 -47t-117 -14.5q-96 0 -149 16z" />
<glyph unicode="&#xf70c;" horiz-adv-x="0" d="M-543 1071q0 39 12.5 67.5t33 48t44 29t45.5 9.5q29 0 46.5 -10.5t27.5 -22.5q12 -14 19 -33q6 18 16 33q10 12 25.5 21.5t40.5 9.5q55 0 72.5 -39t17.5 -82q0 -33 -4.5 -52.5t-12.5 -39.5q18 12 34.5 40.5t28 66.5t14.5 80t-5 77h63q16 0 18.5 -7t2.5 -18 q0 -51 -14.5 -99t-37 -88t-50 -67.5t-54.5 -40.5h-53q-10 0 -6 13q4 16 6 44.5t2 57.5q0 47 -7 70.5t-30 23.5q-25 0 -42 -24.5t-27 -46.5q-10 25 -29 49t-57 24q-37 0 -60.5 -25.5t-23.5 -82.5q0 -27 11 -46.5t40 -19.5q39 0 39 47q0 10 -6.5 21.5t-14.5 19.5l-24 23l16 20 l45 -10q16 -16 27.5 -33.5t11.5 -38.5q0 -47 -24.5 -74.5t-71.5 -27.5q-53 0 -79 38t-26 95z" />
<glyph unicode="&#xf70d;" horiz-adv-x="0" d="M-307 1057v61h112v113h93v-113h112v-61h-116l-13 -125h-57l-12 125h-119z" />
<glyph unicode="&#xf70e;" horiz-adv-x="0" d="M-352 1053q0 43 19.5 73.5t51.5 47.5q31 14 62 29.5t55.5 36t41 48t16.5 66.5h63q6 0 10 -3t0 -20q-8 -43 -28.5 -72.5t-49 -52t-64.5 -42t-75 -38.5q-27 -14 -36 -33.5t-9 -35.5q0 -29 15.5 -44.5t37.5 -15.5q25 0 40.5 13.5t15.5 38.5q0 10 -4.5 27.5t-30.5 39.5l20 17 l45 -7q16 -16 21.5 -35.5t5.5 -41.5q0 -47 -32 -78t-79 -31q-57 2 -84.5 38t-27.5 75z" />
<glyph unicode="&#xf70f;" horiz-adv-x="1314" d="M61 653q0 18 24 49t68 60t104 49t134 20q70 0 128.5 -14t99 -51t64.5 -99.5t24 -156.5q0 -25 -1 -59.5t-2.5 -69.5t-2.5 -67.5t-1 -53.5q0 -49 5.5 -87t21.5 -58q27 -29 74 -42.5t110 -13.5t110.5 13.5t74.5 42.5q16 20 22 50t6 71q0 35 -2 96t-2 112v363h82v-537 q0 -78 -8 -122t-37 -76q-49 -55 -119.5 -69.5t-126.5 -14.5q-55 0 -125.5 14t-119.5 70q-27 31 -34 82t-7 116v240q0 80 -15.5 128t-45 75.5t-72.5 37t-101 9.5q-51 0 -96 -12.5t-79 -30t-54.5 -33.5t-20.5 -27q0 -6 7.5 -18t18.5 -24.5t21.5 -21.5t16.5 -9q16 0 34.5 13 t36.5 13q6 0 14.5 -10t14.5 -22.5t7 -22.5t-7 -10q-31 0 -54.5 -6.5t-39.5 -25.5t-25.5 -55t-9.5 -93v-201q0 -47 17.5 -76t48.5 -29q35 0 54 22.5t19 53.5t-17 53.5t-48 22.5h-57v33l57 39q59 0 99 -43t40 -105q0 -61 -43 -104t-104 -43q-78 0 -113 45t-35 131v201 q0 78 15.5 113.5t50.5 70.5q-8 4 -24.5 16.5t-33 27.5t-29 31.5t-12.5 28.5z" />
<glyph unicode="&#xf710;" horiz-adv-x="0" d="M-665 1079q0 61 35.5 92t80.5 31q47 0 78 -29.5t31 -89.5l-33 -49h-33v49q0 29 -13 40.5t-30 11.5q-49 0 -49 -56q0 -51 36 -67.5t91 -16.5q31 0 72 5.5t83 23.5t80 54t60 96l100 -21q-61 -119 -155 -170t-223 -51q-115 0 -163 41t-48 106z" />
<glyph unicode="&#xf711;" horiz-adv-x="0" d="M-604 1094q0 57 40 97t97 40t97 -40t40 -97t-40 -97.5t-97 -40.5t-97 40t-40 98zM-537 1094q0 -29 20.5 -49.5t49.5 -20.5t49.5 20.5t20.5 49.5t-20.5 49t-49.5 20t-49.5 -20.5t-20.5 -48.5z" />
<glyph unicode="&#xf712;" horiz-adv-x="0" d="M-805 1110q0 92 49 140t121 48q41 0 76 -5t65 -5q92 0 125 31t33 86q39 4 66.5 -6t23.5 -29q-18 -80 -71.5 -112.5t-157.5 -32.5q-41 0 -78 5t-65 5q-66 0 -90.5 -36t-24.5 -85q0 -45 13 -70.5t30 -42.5l94 105q33 -47 68 -82t96 -35q41 0 66.5 26.5t25.5 67.5 q0 20 -10 38t-33 18q-47 0 -47 -52q0 -16 18 -34l23 -21l-17 -20l-43 8q-37 33 -36 70q0 47 27.5 74.5t72.5 27.5q53 -2 79.5 -36t26.5 -71q0 -68 -45 -106.5t-110 -38.5q-63 0 -99 25.5t-63 60.5l-66 -80h-53q-35 8 -62.5 53t-27.5 111z" />
<glyph unicode="&#xf713;" horiz-adv-x="0" d="M-356 1491v119h94v-119l-18 -160h-58z" />
<glyph unicode="&#xf714;" horiz-adv-x="0" d="M-551 1327q0 10 2 21q2 10 3 18t5 18q8 -2 17 -2q53 4 95 31t42 80q0 20 -9.5 35.5t-31.5 15.5q-47 0 -47 -47q0 -14 18 -33l23 -20l-17 -21l-43 9q-37 33 -37 67q0 47 28 72.5t73 25.5q53 -2 77.5 -33.5t24.5 -68.5q0 -53 -33.5 -90t-103.5 -45q10 2 18 2h35q31 0 66 5 t68.5 28.5t61 68.5t44.5 125h82q-23 -82 -51.5 -135t-67.5 -85t-89 -45t-114 -13q-47 0 -80.5 4t-58.5 12z" />
<glyph unicode="&#xf715;" horiz-adv-x="0" d="M-660 1417q0 39 12.5 69t33 49t44 28.5t45.5 9.5q29 0 46.5 -10.5t27.5 -22.5q12 -14 19 -33q6 18 16 33q10 12 25.5 21.5t39.5 9.5q55 0 73 -39t18 -82q0 -33 -4.5 -52.5t-12.5 -39.5q18 12 34.5 40.5t28 66.5t14.5 80t-5 77h63q16 0 18.5 -7t2.5 -18q0 -51 -14.5 -99 t-37 -88t-50 -67.5t-54.5 -39.5h-53q-10 0 -6 12q4 16 6 45t2 57q0 47 -7 70.5t-30 23.5q-25 0 -42 -24.5t-27 -46.5q-10 25 -29 49t-57 24q-37 0 -60.5 -25.5t-23.5 -82.5q0 -27 12 -46.5t41 -19.5q37 0 37 47q0 10 -6.5 21.5t-14.5 19.5l-24 23l16 20l45 -10 q16 -16 27.5 -33.5t11.5 -37.5q0 -47 -23.5 -75t-70.5 -28q-53 0 -80 37t-27 94z" />
<glyph unicode="&#xf716;" horiz-adv-x="0" d="M-473 1440v65h112v113h92v-113h113v-65h-117l-12 -121h-57l-13 121h-118z" />
<glyph unicode="&#xf717;" horiz-adv-x="0" d="M-451 1378q0 43 20.5 74t53.5 47q31 14 55.5 23.5t42 21.5t26.5 33.5t9 60.5h64q6 0 10 -3t0 -19q-8 -43 -22.5 -66.5t-36 -39t-50 -28t-67.5 -30.5q-27 -14 -36 -33.5t-9 -36.5q0 -29 15 -44t38 -15q25 0 40 13.5t15 37.5q0 10 -4 27.5t-31 40.5l21 16l45 -6 q16 -16 21 -35.5t5 -42.5q0 -47 -31.5 -77.5t-78.5 -30.5q-57 2 -86 37.5t-29 74.5z" />
<glyph unicode="&#xf718;" horiz-adv-x="0" d="M-324 -475q0 47 31 75.5t76 28.5q47 -2 74.5 -31.5t27.5 -76.5q0 -18 -2 -31.5t-5 -25t-5 -24.5t-2 -34v-123h-78v125q0 20 5 33.5t10.5 26t10.5 23.5t5 28q0 25 -12.5 41t-34.5 16q-23 0 -35 -14.5t-12 -36.5q0 -20 11 -31.5t21 -15.5l23 -10l-10 -23l-39 -2 q-27 6 -43.5 27.5t-16.5 54.5z" />
<glyph unicode="&#xf719;" horiz-adv-x="0" d="M-471 -473q0 47 28.5 74.5t73.5 27.5q53 -2 78 -34.5t25 -69.5q0 -23 -5 -35t-11.5 -25.5t-11.5 -33t-5 -54.5q0 -18 18.5 -23t34.5 -5t34.5 5t18.5 23v240h78v-248q0 -23 -12 -36t-31.5 -19t-43 -7t-46.5 -1q-25 0 -48 1t-41.5 7t-30 19.5t-11.5 35.5v27q0 20 8.5 34.5 t19.5 28t19 27.5t8 37q0 20 -11 36.5t-34 16.5q-49 0 -49 -51q0 -18 19 -37l22 -20l-16 -21l-43 8q-35 31 -35 72z" />
<glyph unicode="&#xf71a;" horiz-adv-x="0" d="M-242 -451q0 35 26 58.5t60 23.5q35 0 60.5 -23.5t25.5 -58.5t-25.5 -58t-60.5 -23t-60.5 23.5t-25.5 57.5z" />
<glyph unicode="&#xf71b;" horiz-adv-x="935" d="M51 131q0 61 36 101t93 40l47 -34v-33h-47q-31 0 -44 -21.5t-13 -52.5t18.5 -51.5t53.5 -20.5q31 0 51 20.5t20 67.5q0 72 -22.5 140.5t-22.5 130.5q0 49 10.5 77.5t34.5 53.5q-8 4 -25.5 16.5t-36 27.5t-32.5 31.5t-14 28.5q0 18 25.5 49t70.5 60t107.5 49t136.5 20 q70 0 128 -14t99 -51t64.5 -99.5t23.5 -156.5v-797h-84q-16 27 -53 62t-88 63q-31 -47 -82 -88t-129 -41q-59 0 -91 35t-32 82q0 53 45 87t113 34q76 0 141 -27q6 14 9 25.5t7 21.5t4 19q12 -4 23 -9q10 -4 20.5 -8t18.5 -10q4 -4 4 -11t-2 -14q-4 -8 -8 -19t-11 -26 q39 -23 68 -48t47 -48v60.5t-1 111.5t-1 205v340q0 80 -15.5 128t-45 75.5t-72.5 37t-100 9.5q-51 0 -98.5 -12.5t-83 -30t-57 -33.5t-21.5 -27q0 -6 9 -18t21.5 -24.5t24.5 -21.5t18 -9q16 0 35 13t37 13q6 0 14.5 -10t14.5 -22.5t7 -22.5t-7 -10q-59 0 -84 -25.5 t-25 -103.5q0 -35 7 -73t14.5 -74t14.5 -67.5t7 -54.5q0 -78 -40 -118.5t-111 -40.5q-61 0 -102.5 41t-41.5 102zM317 -178q1 -49 58 -49q55 0 92 28.5t59 65.5q-51 18 -106 18q-102 0 -103 -63z" />
<glyph unicode="&#xf71c;" horiz-adv-x="935" d="M51 131q0 61 36 101t93 40l47 -34v-33h-47q-31 0 -44 -21.5t-13 -52.5t18.5 -51.5t53.5 -20.5q31 0 51 20.5t20 67.5q0 72 -22.5 140.5t-22.5 130.5q0 49 10.5 77.5t34.5 53.5q-8 4 -25.5 16.5t-36 27.5t-32.5 31.5t-14 28.5q0 18 25.5 49t70.5 60t107.5 49t136.5 20 q70 0 128 -14t99 -51t64.5 -99.5t23.5 -156.5l-2 -817h-88l-80 82l-76 -78l-73 78q-33 -41 -66 -57.5t-74 -16.5q-53 0 -82.5 37t-29.5 78q0 59 32.5 93t79.5 34q41 0 73 -21.5t50 -40.5q8 18 12.5 47t4.5 45q10 0 18 -2t17.5 -5t17.5 -7t8 -11t-2 -18q-2 -14 -7 -29.5 t-11 -29.5q-8 -16 -15 -33l55 -57l66 67l92 -81v64.5t-1 120.5t-1 214v344q0 80 -15.5 128t-45 75.5t-72.5 37t-100 9.5q-51 0 -98.5 -12.5t-83 -30t-57 -33.5t-21.5 -27q0 -6 9 -18t21.5 -24.5t24.5 -21.5t18 -9q16 0 35 13t37 13q6 0 14.5 -10t14.5 -22.5t7 -22.5t-7 -10 q-59 0 -84 -25.5t-25 -103.5q0 -35 7 -73t14.5 -74t14.5 -67.5t7 -54.5q0 -78 -40 -118.5t-111 -40.5q-61 0 -102.5 41t-41.5 102zM305 -182q0 -53 55 -54q25 0 50 9.5t45 46.5q-27 29 -49.5 44t-47.5 15q-53 0 -53 -61z" />
<glyph unicode="&#xf71d;" horiz-adv-x="1007" d="M72 686q0 61 44 104.5t105 43.5q72 0 111 -42t39 -120q0 -23 -7.5 -44.5t-14.5 -47t-14 -57t-7 -74.5q0 -25 -1 -61t-2 -72.5t-2 -70.5t-1 -55q33 68 75.5 127.5t83.5 106.5q47 53 97 98q51 -47 98 -100q41 -47 83 -108.5t70 -133.5q-4 43 -6 107.5t-2 115.5q0 41 5 66 t8 51q-37 -6 -68 4.5t-53.5 34t-34.5 56t-12 69.5q0 41 14 69.5t34.5 46t43 24.5t37.5 7q63 0 93 -40.5t25 -112.5l-12 -86q35 12 65.5 49t49.5 82l59 -64q-12 -18 -32.5 -38.5t-45 -38t-49 -30.5t-47.5 -17q0 -10 -2 -48q-2 -31 -3 -90t-1 -161q0 -70 4 -123.5t8 -83.5 q4 -20 -1 -24.5t-13 -4.5h-76v20q0 51 -37 123t-82 138q-53 78 -120 161q-70 -84 -125 -161q-25 -33 -47.5 -69t-40 -69.5t-27.5 -65.5t-10 -57v-20h-76q-8 0 -13.5 4t-0.5 25q4 16 6 30.5t3 38t2 64.5t1 108v185q0 39 6 68.5t13 54t13.5 46t6.5 44.5q0 47 -18.5 70.5 t-49.5 23.5q-35 0 -55.5 -22.5t-20.5 -53.5t16.5 -53.5t47.5 -22.5h47v-32l-47 -39q-59 0 -98 43t-39 104zM735 680q0 -47 26 -82t77 -23q2 16 3 53.5t1 51.5q0 51 -12.5 65.5t-34.5 14.5q-23 0 -41.5 -17.5t-18.5 -62.5z" />
<glyph horiz-adv-x="686" d="M-604 1094q0 57 40 97t97 40t97 -40t40 -97t-40 -97.5t-97 -40.5t-97 40t-40 98zM-537 1094q0 -29 20.5 -49.5t49.5 -20.5t49.5 20.5t20.5 49.5t-20.5 49t-49.5 20t-49.5 -20.5t-20.5 -48.5zM0 668q18 27 53 55.5t77 53t87 39.5t84 15q117 0 186.5 -59t69.5 -203 q0 -66 -4 -124t-4 -121v-66t2 -89t4 -85t4 -55q4 -20 -1 -24.5t-13 -4.5h-80v313q0 66 5 125.5t5 130.5q0 68 -20.5 106t-48 56.5t-54 23.5t-39.5 5q-72 0 -127 -37t-108 -98q-10 -12 -34 2t-44 41z" />
<glyph horiz-adv-x="0" d="M-553 1020q0 35 12.5 58.5t31 40t39 25.5t36.5 11q-23 0 -41 17.5t-18 44.5q0 37 23.5 62.5t61.5 41t84 17.5t91 -11q10 -4 15 -5t5 -15q0 -10 -8 -31l-8 -20q-27 12 -61.5 16t-65.5 -1t-51.5 -17.5t-20.5 -34.5q0 -35 33 -39t59 0q-2 -8 -4 -18q-2 -16 -10 -39 q-6 2 -15.5 2h-13.5q-35 0 -71.5 -24.5t-36.5 -78.5q0 -20 12 -37.5t35 -17.5q18 0 31.5 12.5t13.5 36.5q0 16 -18 35l-23 20l16 21l43 -8q37 -33 37 -70q0 -47 -32.5 -73.5t-77.5 -26.5q-49 0 -76 34.5t-27 71.5z" />
</font>
</defs>
</svg>
